<svg xmlns="http://www.w3.org/2000/svg" xmlns:xlink="http://www.w3.org/1999/xlink" width="295.289" height="194.19" viewBox="0 0 295.289 194.19">
  <defs>
    <clipPath id="clip-path">
      <rect id="Rectángulo_401825" data-name="Rectángulo 401825" width="295" height="194.162" fill="none"/>
    </clipPath>
    <clipPath id="clip-path-5">
      <rect id="Rectángulo_401764" data-name="Rectángulo 401764" width="7.931" height="16.891" fill="none"/>
    </clipPath>
    <clipPath id="clip-path-6">
      <rect id="Rectángulo_401765" data-name="Rectángulo 401765" width="14.823" height="9.276" fill="none"/>
    </clipPath>
    <clipPath id="clip-path-10">
      <rect id="Rectángulo_401773" data-name="Rectángulo 401773" width="31.475" height="26.347" fill="none"/>
    </clipPath>
    <clipPath id="clip-path-11">
      <rect id="Rectángulo_401774" data-name="Rectángulo 401774" width="20.173" height="15.912" fill="none"/>
    </clipPath>
    <clipPath id="clip-path-13">
      <rect id="Rectángulo_401789" data-name="Rectángulo 401789" width="3.346" height="16.181" fill="none"/>
    </clipPath>
    <clipPath id="clip-path-14">
      <rect id="Rectángulo_401791" data-name="Rectángulo 401791" width="3.346" height="23.556" fill="none"/>
    </clipPath>
    <clipPath id="clip-path-15">
      <rect id="Rectángulo_401793" data-name="Rectángulo 401793" width="3.346" height="12.607" fill="none"/>
    </clipPath>
    <clipPath id="clip-path-16">
      <rect id="Rectángulo_401795" data-name="Rectángulo 401795" width="3.346" height="18.023" fill="none"/>
    </clipPath>
    <clipPath id="clip-path-17">
      <rect id="Rectángulo_401797" data-name="Rectángulo 401797" width="3.346" height="14.437" fill="none"/>
    </clipPath>
    <clipPath id="clip-path-23">
      <rect id="Rectángulo_401822" data-name="Rectángulo 401822" width="12.152" height="11.465" fill="none"/>
    </clipPath>
    <clipPath id="clip-path-24">
      <rect id="Rectángulo_401823" data-name="Rectángulo 401823" width="6.665" height="8.506" fill="none"/>
    </clipPath>
  </defs>
  <g id="img8" transform="translate(-284.711 -5797.81)">
    <circle id="Elipse_11547" data-name="Elipse 11547" cx="95" cy="95" r="95" transform="translate(284.711 5802)" fill="#c4facd"/>
    <g id="Grupo_1100998" data-name="Grupo 1100998" transform="translate(285 5797.81)">
      <g id="Grupo_1100997" data-name="Grupo 1100997" clip-path="url(#clip-path)">
        <g id="Grupo_1100941" data-name="Grupo 1100941">
          <g id="Grupo_1100940" data-name="Grupo 1100940" clip-path="url(#clip-path)">
            <path id="Trazado_874007" data-name="Trazado 874007" d="M574.118,349.472a14.074,14.074,0,0,0-6.02-2.072,4.013,4.013,0,0,0-2.847.524.585.585,0,0,0-.293.52.635.635,0,0,0,.279.356,8.608,8.608,0,0,0,8.882.673" transform="translate(-316.785 -194.772)" fill="#e0e0e0"/>
            <path id="Trazado_874008" data-name="Trazado 874008" d="M577.3,339.739a29.391,29.391,0,0,1-3.888-3.421,9.835,9.835,0,0,1-2.438-4.508,1.817,1.817,0,0,1,.193-1.508c3.1,2.42,5.534,5.551,6.133,9.437" transform="translate(-320.121 -185.21)" fill="#e0e0e0"/>
            <path id="Trazado_874009" data-name="Trazado 874009" d="M585.492,340.227a14.065,14.065,0,0,1,.072-5.1,6.9,6.9,0,0,1,2.719-4.212,6.028,6.028,0,0,1-.072,4,19.432,19.432,0,0,1-2.7,5.676" transform="translate(-328.192 -185.551)" fill="#e0e0e0"/>
            <path id="Trazado_874010" data-name="Trazado 874010" d="M582.974,364.513a8.9,8.9,0,0,0-4.828,2.443,9.132,9.132,0,0,0-2.761,4.74,6.511,6.511,0,0,0,4.457-2.818c1.113-1.431,1.884-3,3.107-4.338" transform="translate(-322.635 -204.393)" fill="#e0e0e0"/>
            <path id="Trazado_874011" data-name="Trazado 874011" d="M593.1,352.118a11.906,11.906,0,0,1,1.375-11.262,14.339,14.339,0,0,1-1.375,11.262" transform="translate(-332.105 -191.128)" fill="#e0e0e0"/>
            <path id="Trazado_874012" data-name="Trazado 874012" d="M592.633,377.356A8.61,8.61,0,0,0,584.4,382.1c-.1.2-.192.463-.055.645a.613.613,0,0,0,.546.161,7.166,7.166,0,0,0,4.247-2.193,40.588,40.588,0,0,1,3.531-3.357" transform="translate(-327.621 -211.586)" fill="#e0e0e0"/>
            <path id="Trazado_874013" data-name="Trazado 874013" d="M602.13,362.223a15.327,15.327,0,0,1-.153-8.564,4.177,4.177,0,0,1,1.827-2.78.36.36,0,0,1,.28-.049.371.371,0,0,1,.177.2,5.159,5.159,0,0,1,.431,2.457,15.429,15.429,0,0,1-.385,2.488,13.226,13.226,0,0,1-1.326,4.465,9.088,9.088,0,0,0-.53.981c-.158.333-.159.451-.3.716" transform="translate(-337.246 -196.713)" fill="#e0e0e0"/>
            <path id="Trazado_874014" data-name="Trazado 874014" d="M626.822,368.344a11.043,11.043,0,0,1,1.935-9.08c.139-.181.323-.374.55-.354.348.033.438.5.422.844a16.407,16.407,0,0,1-2.908,8.589" transform="translate(-351.312 -201.251)" fill="#e0e0e0"/>
            <path id="Trazado_874015" data-name="Trazado 874015" d="M629.38,377.872a13.208,13.208,0,0,0,10.838-2.2,8.773,8.773,0,0,0-5.867-.72,8.369,8.369,0,0,0-4.971,2.924" transform="translate(-352.912 -210.124)" fill="#e0e0e0"/>
            <path id="Trazado_874016" data-name="Trazado 874016" d="M631.219,370.08a12.527,12.527,0,0,1,9.836-5.688,6.057,6.057,0,0,1-3.217,3.557,17.844,17.844,0,0,1-4.721,1.381,3.328,3.328,0,0,0-1.9.75" transform="translate(-353.943 -204.325)" fill="#e0e0e0"/>
            <path id="Trazado_874017" data-name="Trazado 874017" d="M625.856,340.688a28.576,28.576,0,0,0,1.258-5.761,9.592,9.592,0,0,0-1.147-5.7,12.543,12.543,0,0,0-.168,11.656" transform="translate(-350.144 -184.609)" fill="#e0e0e0"/>
            <path id="Trazado_874018" data-name="Trazado 874018" d="M642.247,338.075a15.435,15.435,0,0,1,11.362-7.729,12.659,12.659,0,0,1-11.362,7.729" transform="translate(-360.127 -185.235)" fill="#e0e0e0"/>
            <path id="Trazado_874019" data-name="Trazado 874019" d="M639.06,348.9c3.32.506,6.148,2.626,9.25,3.911a4.145,4.145,0,0,0,2.091.4,1.637,1.637,0,0,0,1.025-2.9,4.475,4.475,0,0,0-1.519-.922,16.881,16.881,0,0,0-10.561-.589" transform="translate(-358.34 -195.266)" fill="#e0e0e0"/>
            <path id="Trazado_874020" data-name="Trazado 874020" d="M634.687,354.841a3.922,3.922,0,0,1,1.6,1.111,17.3,17.3,0,0,0,7.014,3.6c.268.066.62.093.752-.149.116-.212-.031-.467-.181-.656a9.653,9.653,0,0,0-4.235-2.875c-1.619-.6-3.021-1.329-4.953-1.174" transform="translate(-355.888 -198.88)" fill="#e0e0e0"/>
            <path id="Trazado_874021" data-name="Trazado 874021" d="M629.752,322.578a13.274,13.274,0,0,0,10.177,3.462.7.7,0,0,0,.463-.166c.256-.279-.051-.709-.35-.942a11.724,11.724,0,0,0-10.29-2.354" transform="translate(-353.121 -180.677)" fill="#e0e0e0"/>
            <path id="Trazado_874022" data-name="Trazado 874022" d="M635.6,317.367a14.183,14.183,0,0,1,12.7-2.1,10.084,10.084,0,0,1-6.051,2.657,19.158,19.158,0,0,1-6.647-.561" transform="translate(-356.401 -176.407)" fill="#e0e0e0"/>
            <path id="Trazado_874023" data-name="Trazado 874023" d="M631.088,294.72c-.294-2.987-.1-5.344-.311-8.344-.017-.239-.068-.528-.292-.615-.312-.12-.573.264-.675.582a9.564,9.564,0,0,0,1.273,8.311" transform="translate(-352.908 -160.222)" fill="#e0e0e0"/>
            <path id="Trazado_874024" data-name="Trazado 874024" d="M632.788,294.952a17.567,17.567,0,0,0,4.947-4.808,6.573,6.573,0,0,0,1.579-4.579,4.734,4.734,0,0,0-3.569,1.772,9.963,9.963,0,0,0-1.819,3.66c-.4,1.314-.673,2.664-1.138,3.956" transform="translate(-354.823 -160.124)" fill="#e0e0e0"/>
            <path id="Trazado_874025" data-name="Trazado 874025" d="M643.772,294.314a39.889,39.889,0,0,0,12.174-7.179,6.213,6.213,0,0,0-4.573.351,14.421,14.421,0,0,0-7.665,6.795" transform="translate(-360.946 -160.836)" fill="#e0e0e0"/>
            <path id="Trazado_874026" data-name="Trazado 874026" d="M635.9,306.161a24.768,24.768,0,0,0,6.76.033,28.7,28.7,0,0,0,6.311-2.1.739.739,0,0,0,.429-.326.493.493,0,0,0-.154-.54,1.3,1.3,0,0,0-.538-.252,11.684,11.684,0,0,0-6.82.407,31.636,31.636,0,0,0-5.988,2.774" transform="translate(-356.567 -169.699)" fill="#e0e0e0"/>
            <path id="Trazado_874027" data-name="Trazado 874027" d="M605.247,310.635a11.958,11.958,0,0,1-.109-9.9,7.559,7.559,0,0,1,.876,4.921c-.17,1.691-.685,3.431-.719,5.13" transform="translate(-338.748 -168.633)" fill="#e0e0e0"/>
            <path id="Trazado_874028" data-name="Trazado 874028" d="M579.647,316.232A13.8,13.8,0,0,0,569.39,320.6a9.585,9.585,0,0,0,5.617-1.041,28.591,28.591,0,0,0,4.813-3.222" transform="translate(-319.274 -177.319)" fill="#e0e0e0"/>
            <path id="Trazado_874029" data-name="Trazado 874029" d="M571.049,312.87a14.3,14.3,0,0,0-5.476.168,6.567,6.567,0,0,0-4.173,3.538,9.893,9.893,0,0,0,5.133-.969,29.535,29.535,0,0,0,4.516-2.738" transform="translate(-314.794 -175.334)" fill="#e0e0e0"/>
            <path id="Trazado_874030" data-name="Trazado 874030" d="M583.232,309.573a17.273,17.273,0,0,0-5.377-2.685,5.859,5.859,0,0,0-5.6,1.359,10.471,10.471,0,0,0,5.356,1.041,18.5,18.5,0,0,1,5.834.592" transform="translate(-320.879 -171.975)" fill="#e0e0e0"/>
            <path id="Trazado_874031" data-name="Trazado 874031" d="M593.1,298.414a12.5,12.5,0,0,1-2.814-11.776,17.942,17.942,0,0,1,2.814,11.776" transform="translate(-330.733 -160.726)" fill="#e0e0e0"/>
            <path id="Trazado_874032" data-name="Trazado 874032" d="M615.3,283.339c.543-1.263.925-2.588,1.413-3.874a11.12,11.12,0,0,1,2.014-3.571,5.3,5.3,0,0,1,3.567-1.849,14.369,14.369,0,0,1-6.923,9.314" transform="translate(-345.017 -153.665)" fill="#e0e0e0"/>
            <path id="Trazado_874033" data-name="Trazado 874033" d="M602.526,292.525a18.547,18.547,0,0,0-3.157-3.841,5.281,5.281,0,0,0-4.294-1.128,10,10,0,0,0,7.451,4.968" transform="translate(-333.676 -161.181)" fill="#e0e0e0"/>
            <path id="Trazado_874034" data-name="Trazado 874034" d="M610.743,283.59a21.392,21.392,0,0,1-1.421-4.6,7.18,7.18,0,0,1,.72-4.679,10.614,10.614,0,0,1,.781,9.314" transform="translate(-341.607 -153.814)" fill="#e0e0e0"/>
            <path id="Trazado_874035" data-name="Trazado 874035" d="M615.333,266.223c.9-2.963,3.609-5.144,6.538-6.145a2.438,2.438,0,0,1,1.146-.172,1,1,0,0,1,.845.705c.107.5-.309.956-.7,1.291a22.254,22.254,0,0,1-7.827,4.322" transform="translate(-345.035 -145.727)" fill="#e0e0e0"/>
            <path id="Trazado_874036" data-name="Trazado 874036" d="M615.346,256.081a21.2,21.2,0,0,1,.854-5.658,7.152,7.152,0,0,1,3.561-4.3,8.386,8.386,0,0,1-1.581,5.509,25.285,25.285,0,0,0-2.881,5.079" transform="translate(-345.016 -138.008)" fill="#e0e0e0"/>
            <path id="Trazado_874037" data-name="Trazado 874037" d="M608.208,258.529c-.74-2.159-.817-4.9-2.11-6.783-.9-1.315-2.351-2.21-3.13-3.6a5.481,5.481,0,0,0,.182,4.091,11.826,11.826,0,0,0,2.392,3.424c.957,1.022,1.776,1.79,2.665,2.872" transform="translate(-337.925 -139.141)" fill="#e0e0e0"/>
            <path id="Trazado_874038" data-name="Trazado 874038" d="M615.19,334.415c-.058,0-.107-14.4-.112-32.169s.04-32.172.1-32.172.107,14.4.111,32.172-.039,32.169-.1,32.169" transform="translate(-344.893 -151.438)" fill="#e0e0e0"/>
            <path id="Trazado_874039" data-name="Trazado 874039" d="M627.9,318.317a3.07,3.07,0,0,1-.542.2l-1.49.5c-1.257.428-2.983,1.048-4.856,1.816a19.668,19.668,0,0,0-4.6,2.305,3.373,3.373,0,0,0-.924,1.223c-.143.338-.169.545-.188.542a.445.445,0,0,1,.006-.151,2.372,2.372,0,0,1,.106-.42,3.249,3.249,0,0,1,.9-1.3,8.085,8.085,0,0,1,2-1.24c.8-.373,1.684-.762,2.623-1.148,1.879-.77,3.619-1.37,4.89-1.763.635-.2,1.154-.344,1.513-.441a3.1,3.1,0,0,1,.565-.126" transform="translate(-345.012 -178.488)" fill="#e0e0e0"/>
            <path id="Trazado_874040" data-name="Trazado 874040" d="M633.287,295.247a.884.884,0,0,1-.152.162l-.463.434-1.725,1.568-5.743,5.114c-2.242,2-4.18,3.9-5.522,5.338-.672.717-1.2,1.311-1.563,1.726l-.417.476a.111.111,0,1,1-.033-.026c.087-.116.214-.289.388-.5.343-.431.857-1.042,1.517-1.773a72.8,72.8,0,0,1,5.492-5.393c2.25-1.991,4.3-3.779,5.784-5.069l1.769-1.518.488-.405a.894.894,0,0,1,.18-.13" transform="translate(-346.276 -165.554)" fill="#e0e0e0"/>
            <path id="Trazado_874041" data-name="Trazado 874041" d="M629.465,310.069c-.059-.026.409-1.107.876-2.475s.692-2.521.752-2.512a8.437,8.437,0,0,1-.555,2.579,16.835,16.835,0,0,1-.7,1.731,2.687,2.687,0,0,1-.376.677" transform="translate(-352.957 -171.068)" fill="#e0e0e0"/>
            <path id="Trazado_874042" data-name="Trazado 874042" d="M604.705,322.855a2.629,2.629,0,0,1-.346-.4l-.885-1.135c-.744-.961-1.771-2.288-2.923-3.739s-2.211-2.754-2.978-3.7l-.9-1.12a2.545,2.545,0,0,1-.312-.427,2.594,2.594,0,0,1,.373.375c.231.25.557.618.956,1.077.8.919,1.874,2.208,3.029,3.661s2.164,2.8,2.878,3.78c.357.492.641.894.832,1.176a2.594,2.594,0,0,1,.28.449" transform="translate(-334.395 -175.137)" fill="#e0e0e0"/>
            <path id="Trazado_874043" data-name="Trazado 874043" d="M607.252,322.658a5.074,5.074,0,0,1-1.156-2.165,6.167,6.167,0,0,1-.262-2.182l.092.007c-.041.167-.071.255-.088.252s-.017-.1,0-.267l.092.007a9.915,9.915,0,0,0,.369,2.123,16.09,16.09,0,0,0,.957,2.224" transform="translate(-339.701 -178.482)" fill="#e0e0e0"/>
            <path id="Trazado_874044" data-name="Trazado 874044" d="M593.009,316.882a3.738,3.738,0,0,0-.807-.469,5.4,5.4,0,0,0-2.241-.178,13.821,13.821,0,0,0-2.257.364,6.8,6.8,0,0,1-.929.223,3.249,3.249,0,0,1,.89-.365,10.311,10.311,0,0,1,2.281-.43,4.891,4.891,0,0,1,2.312.25,1.432,1.432,0,0,1,.752.605" transform="translate(-329.022 -177.189)" fill="#e0e0e0"/>
            <path id="Trazado_874045" data-name="Trazado 874045" d="M587.862,313.85c-.016.033-.47-.188-1.237-.45a12.449,12.449,0,0,0-6.233-.475c-.8.143-1.28.292-1.291.258a1.176,1.176,0,0,1,.328-.14,7.761,7.761,0,0,1,.934-.262,11,11,0,0,1,6.312.481,7.715,7.715,0,0,1,.883.4,1.175,1.175,0,0,1,.3.188" transform="translate(-324.719 -175.243)" fill="#e0e0e0"/>
            <path id="Trazado_874046" data-name="Trazado 874046" d="M613.247,297.017a51.056,51.056,0,0,1-1.6-6.318,51.107,51.107,0,0,1,1.6,6.318" transform="translate(-342.964 -163.004)" fill="#e0e0e0"/>
            <path id="Trazado_874047" data-name="Trazado 874047" d="M612.275,300.745a15.065,15.065,0,0,0-1-1.876,8.266,8.266,0,0,0-1.471-1.519,1.369,1.369,0,0,1,.568.293,4.564,4.564,0,0,1,1.074,1.106,4.157,4.157,0,0,1,.829,2" transform="translate(-341.935 -166.731)" fill="#e0e0e0"/>
            <path id="Trazado_874048" data-name="Trazado 874048" d="M598.488,372.229c-.022,0-.065-.346-.227-.958a13.643,13.643,0,0,0-.962-2.494,34.518,34.518,0,0,0-5.107-7.2c-1.14-1.3-2.246-2.532-3.185-3.708a25.961,25.961,0,0,1-2.278-3.285,15.768,15.768,0,0,1-1.15-2.438c-.106-.3-.183-.535-.226-.7a1.163,1.163,0,0,1-.059-.249c.019-.006.123.329.361.917a17.852,17.852,0,0,0,1.2,2.393,27.566,27.566,0,0,0,2.3,3.239c.943,1.164,2.051,2.387,3.193,3.692a32.726,32.726,0,0,1,5.083,7.268,12.457,12.457,0,0,1,.908,2.539,6.983,6.983,0,0,1,.127.723,1.193,1.193,0,0,1,.021.255" transform="translate(-328.19 -196.931)" fill="#e0e0e0"/>
            <path id="Trazado_874049" data-name="Trazado 874049" d="M626.706,369.816a5.178,5.178,0,0,1-.6.335,13.021,13.021,0,0,0-1.546,1.022,17.758,17.758,0,0,0-2.031,1.852c-.712.753-1.447,1.628-2.2,2.564-1.5,1.88-2.9,3.543-3.738,4.871-.426.659-.736,1.214-.939,1.6a5.221,5.221,0,0,1-.328.6.564.564,0,0,1,.055-.169c.045-.107.1-.268.2-.467a15.249,15.249,0,0,1,.887-1.646,53.718,53.718,0,0,1,3.7-4.922c.751-.939,1.494-1.815,2.221-2.567a16.5,16.5,0,0,1,2.081-1.837,10.913,10.913,0,0,1,1.6-.976c.2-.1.359-.16.466-.206a.57.57,0,0,1,.168-.057" transform="translate(-345.034 -207.366)" fill="#e0e0e0"/>
            <path id="Trazado_874050" data-name="Trazado 874050" d="M631.7,379.286a8.7,8.7,0,0,1-1.26.183,16.576,16.576,0,0,0-2.988.589,8.984,8.984,0,0,0-2.676,1.4c-.617.477-.908.871-.936.848a.968.968,0,0,1,.187-.29,4.757,4.757,0,0,1,.656-.672,8.115,8.115,0,0,1,2.705-1.488,13.518,13.518,0,0,1,3.038-.537,6.956,6.956,0,0,1,1.275-.036" transform="translate(-349.804 -212.668)" fill="#e0e0e0"/>
            <path id="Trazado_874051" data-name="Trazado 874051" d="M624.67,379.7c-.066-.037.5-.9.943-2.071.413-1.177.51-2.21.584-2.2a2.009,2.009,0,0,1-.021.676,7.27,7.27,0,0,1-.368,1.592,7.7,7.7,0,0,1-.731,1.461,2.041,2.041,0,0,1-.408.539" transform="translate(-350.268 -210.514)" fill="#e0e0e0"/>
            <path id="Trazado_874052" data-name="Trazado 874052" d="M630.4,344.344a.955.955,0,0,1-.2.107l-.592.269c-.26.111-.574.252-.929.439s-.771.372-1.2.633l-.687.391c-.239.137-.474.3-.725.457-.507.307-1.014.686-1.556,1.072a26.7,26.7,0,0,0-5.993,6.2c-.368.555-.729,1.075-1.019,1.592-.148.256-.3.5-.432.74l-.367.7c-.245.441-.42.863-.591,1.225s-.3.68-.407.943l-.249.6a.946.946,0,0,1-.1.205.957.957,0,0,1,.061-.219l.213-.616c.091-.269.211-.594.376-.961s.329-.8.566-1.244l.358-.711c.126-.246.278-.492.424-.751.286-.524.644-1.052,1.009-1.614a25.73,25.73,0,0,1,6.037-6.247c.549-.385,1.064-.761,1.578-1.064.254-.155.494-.315.736-.45l.7-.381c.44-.253.862-.434,1.224-.608s.682-.309.947-.409l.609-.234a.951.951,0,0,1,.217-.068" transform="translate(-345.04 -193.083)" fill="#e0e0e0"/>
            <path id="Trazado_874053" data-name="Trazado 874053" d="M629.117,356.156a1.445,1.445,0,0,1,.5-.737,3.122,3.122,0,0,1,1.994-.765,5.46,5.46,0,0,1,2.1.41,3.015,3.015,0,0,1,.794.386,4.884,4.884,0,0,1-.842-.246,6.329,6.329,0,0,0-2.044-.341,3.248,3.248,0,0,0-1.905.669,5.909,5.909,0,0,0-.591.625" transform="translate(-352.764 -198.864)" fill="#e0e0e0"/>
            <path id="Trazado_874054" data-name="Trazado 874054" d="M626.051,356.428a5.324,5.324,0,0,0,.439-3.766,1.219,1.219,0,0,1,.234.536,3.808,3.808,0,0,1-.322,2.761c-.176.318-.331.483-.351.468" transform="translate(-351.043 -197.748)" fill="#e0e0e0"/>
            <path id="Trazado_874055" data-name="Trazado 874055" d="M592.685,403.764a47.684,47.684,0,0,0,4.521,16.763h11.1a48.206,48.206,0,0,0,4.252-16.763Z" transform="translate(-332.336 -226.402)" fill="#e0e0e0"/>
            <path id="Trazado_874056" data-name="Trazado 874056" d="M612.991,423.909c0,.058-3.653.1-8.159.1s-8.159-.047-8.159-.1,3.653-.1,8.159-.1,8.159.047,8.159.1" transform="translate(-334.572 -237.64)" fill="#fafafa"/>
            <path id="Trazado_874057" data-name="Trazado 874057" d="M613.729,428.449c0,.058-3.425.1-7.649.1s-7.649-.047-7.649-.1,3.424-.1,7.649-.1,7.649.047,7.649.1" transform="translate(-335.558 -240.186)" fill="#fafafa"/>
            <path id="Trazado_874058" data-name="Trazado 874058" d="M603.251,411.992a31.415,31.415,0,0,1,0,5.111,31.415,31.415,0,0,1,0-5.111" transform="translate(-338.202 -231.016)" fill="#fafafa"/>
            <path id="Trazado_874059" data-name="Trazado 874059" d="M616.784,411.992a33.707,33.707,0,0,1,0,5.293,33.687,33.687,0,0,1,0-5.293" transform="translate(-345.791 -231.016)" fill="#fafafa"/>
            <path id="Trazado_874060" data-name="Trazado 874060" d="M629.489,411.89a35.04,35.04,0,0,1,0,5.4,35.04,35.04,0,0,1,0-5.4" transform="translate(-352.915 -230.959)" fill="#fafafa"/>
            <path id="Trazado_874061" data-name="Trazado 874061" d="M612.681,411.859c0,.057-4.285.1-9.569.1s-9.57-.047-9.57-.1,4.284-.1,9.57-.1,9.569.047,9.569.1" transform="translate(-332.816 -230.883)" fill="#fafafa"/>
            <path id="Trazado_874062" data-name="Trazado 874062" d="M109.1,235.894a14.872,14.872,0,0,1,3.63-1.577l.748-3.593,6.07-.106.874,3.564a14.864,14.864,0,0,1,3.683,1.449l3.068-2.011,4.368,4.217-1.9,3.136a14.885,14.885,0,0,1,1.577,3.631l3.592.748.106,6.07-3.564.874a14.864,14.864,0,0,1-1.449,3.683l2.011,3.068-4.217,4.368-3.136-1.9a14.876,14.876,0,0,1-3.63,1.577l-.748,3.592-6.07.107-.874-3.564a14.9,14.9,0,0,1-3.683-1.449l-3.068,2.011-4.367-4.217,1.9-3.136a14.867,14.867,0,0,1-1.577-3.63l-3.592-.748-.107-6.07,3.564-.874a14.9,14.9,0,0,1,1.449-3.683l-2.011-3.068,4.217-4.368Zm3.236,8.086a6.513,6.513,0,1,0,9.209-.162,6.513,6.513,0,0,0-9.209.162" transform="translate(-55.371 -129.314)" fill="#636363"/>
            <path id="Trazado_874063" data-name="Trazado 874063" d="M20.516,51.228a9.425,9.425,0,0,1,2.3-1l.474-2.279,3.851-.068.554,2.261a9.439,9.439,0,0,1,2.336.919l1.946-1.276,2.771,2.675-1.206,1.989a9.435,9.435,0,0,1,1,2.3l2.279.474.068,3.851-2.261.554a9.443,9.443,0,0,1-.919,2.336l1.276,1.946-2.675,2.771-1.989-1.206a9.451,9.451,0,0,1-2.3,1l-.474,2.279-3.851.068-.554-2.261a9.424,9.424,0,0,1-2.336-.919l-1.946,1.276-2.77-2.675,1.206-1.989a9.418,9.418,0,0,1-1-2.3l-2.279-.474-.068-3.851,2.261-.554a9.435,9.435,0,0,1,.919-2.336l-1.276-1.946,2.675-2.771Zm2.053,5.13a4.131,4.131,0,1,0,5.842-.1,4.131,4.131,0,0,0-5.842.1" transform="translate(-7.82 -26.848)" fill="#636363"/>
            <path id="Trazado_874064" data-name="Trazado 874064" d="M572.735,53.922a12.694,12.694,0,0,1,3.1-1.347l.638-3.067,5.182-.091.746,3.043a12.692,12.692,0,0,1,3.145,1.237l2.619-1.717,3.729,3.6-1.624,2.677a12.712,12.712,0,0,1,1.347,3.1l3.067.638.091,5.183-3.043.746A12.693,12.693,0,0,1,590.5,71.07l1.717,2.62-3.6,3.729-2.678-1.624a12.7,12.7,0,0,1-3.1,1.347l-.639,3.067-5.182.091-.746-3.043a12.713,12.713,0,0,1-3.145-1.237L570.5,77.736l-3.729-3.6,1.624-2.678a12.688,12.688,0,0,1-1.347-3.1l-3.067-.638-.091-5.183,3.043-.746a12.712,12.712,0,0,1,1.237-3.145l-1.717-2.619,3.6-3.729Zm2.763,6.9a5.561,5.561,0,1,0,7.863-.138,5.561,5.561,0,0,0-7.863.138" transform="translate(-316.191 -27.71)" fill="#636363"/>
            <path id="Trazado_874065" data-name="Trazado 874065" d="M407.484,242.246a10.977,10.977,0,0,1,2.677-1.164l.552-2.651,4.478-.079.644,2.629a10.978,10.978,0,0,1,2.717,1.069l2.263-1.483,3.222,3.111-1.4,2.314a10.969,10.969,0,0,1,1.164,2.679l2.65.551.079,4.478-2.629.644a10.97,10.97,0,0,1-1.069,2.717l1.483,2.264-3.111,3.222-2.314-1.4a10.967,10.967,0,0,1-2.678,1.164l-.552,2.651-4.478.079-.644-2.629a11,11,0,0,1-2.717-1.069l-2.263,1.483-3.222-3.111,1.4-2.314a10.967,10.967,0,0,1-1.164-2.678l-2.651-.552-.079-4.478,2.629-.645a10.987,10.987,0,0,1,1.069-2.717l-1.483-2.263,3.11-3.222Zm2.387,5.966a4.8,4.8,0,1,0,6.794-.119,4.8,4.8,0,0,0-6.794.119" transform="translate(-224.204 -133.652)" fill="#636363"/>
            <path id="Trazado_874066" data-name="Trazado 874066" d="M622.091,18.208a5.005,5.005,0,0,1,1.223-.532l.252-1.211,2.046-.036.294,1.2a5,5,0,0,1,1.241.488l1.034-.677,1.472,1.421-.641,1.057a5.011,5.011,0,0,1,.531,1.224l1.211.252.036,2.046-1.2.295a5.016,5.016,0,0,1-.488,1.241l.678,1.034-1.421,1.472-1.057-.641a5,5,0,0,1-1.223.532l-.252,1.211-2.046.036-.294-1.2a5.021,5.021,0,0,1-1.241-.488l-1.034.678-1.472-1.421.641-1.057a5.012,5.012,0,0,1-.532-1.224l-1.211-.252-.036-2.046,1.2-.295a5.008,5.008,0,0,1,.488-1.241l-.677-1.034,1.421-1.472Zm1.091,2.725a2.195,2.195,0,1,0,3.1-.054,2.195,2.195,0,0,0-3.1.054" transform="translate(-346.868 -9.212)" fill="#636363"/>
            <path id="Trazado_874067" data-name="Trazado 874067" d="M616.491,163.367a5.007,5.007,0,0,1,1.223-.532l.252-1.211,2.046-.036.294,1.2a5,5,0,0,1,1.241.488l1.034-.677,1.472,1.421-.641,1.057a5.008,5.008,0,0,1,.532,1.224l1.211.252.036,2.046-1.2.295a5.012,5.012,0,0,1-.488,1.241l.678,1.034-1.421,1.472L621.7,172a4.981,4.981,0,0,1-1.223.532l-.252,1.211-2.046.036-.294-1.2a5,5,0,0,1-1.241-.488l-1.034.678-1.472-1.421.641-1.057a5.02,5.02,0,0,1-.531-1.224l-1.211-.252L613,166.767l1.2-.295a5.013,5.013,0,0,1,.488-1.241l-.678-1.034,1.421-1.472Zm1.091,2.725a2.195,2.195,0,1,0,3.1-.054,2.2,2.2,0,0,0-3.1.054" transform="translate(-343.728 -90.607)" fill="#636363"/>
            <path id="Trazado_874068" data-name="Trazado 874068" d="M141.1,339.958a6.8,6.8,0,0,1,1.659-.721l.342-1.642,2.774-.049.4,1.629a6.789,6.789,0,0,1,1.683.662l1.4-.919,2,1.928-.869,1.433a6.794,6.794,0,0,1,.721,1.66l1.642.342.049,2.774-1.629.4a6.8,6.8,0,0,1-.662,1.683l.919,1.4-1.928,2-1.433-.869a6.817,6.817,0,0,1-1.659.721l-.342,1.642-2.774.049-.4-1.629a6.8,6.8,0,0,1-1.683-.662l-1.4.919-2-1.928.869-1.433a6.806,6.806,0,0,1-.721-1.66l-1.642-.342-.049-2.774,1.629-.4a6.8,6.8,0,0,1,.662-1.683l-.919-1.4,1.928-2Zm1.479,3.7a2.977,2.977,0,1,0,4.209-.074,2.977,2.977,0,0,0-4.209.074" transform="translate(-76.462 -189.272)" fill="#636363"/>
            <path id="Trazado_874069" data-name="Trazado 874069" d="M303.009,414.592V426.5H339.64V414.592Z" transform="translate(-169.906 -232.474)" fill="#f5f5f5"/>
            <path id="Trazado_874070" data-name="Trazado 874070" d="M299.51,407.011v3.33h39.448v-3.33H299.51Z" transform="translate(-167.944 -228.223)" fill="#e0e0e0"/>
            <path id="Trazado_874071" data-name="Trazado 874071" d="M343.431,422.252h18.443V410.341h1.281v-3.33H342.662v3.022Z" transform="translate(-192.141 -228.223)" fill="#e0e0e0"/>
            <rect id="Rectángulo_401758" data-name="Rectángulo 401758" width="7.429" height="1.793" transform="translate(138.226 184.039)" fill="#e0e0e0"/>
            <rect id="Rectángulo_401759" data-name="Rectángulo 401759" width="9.539" height="3.786" transform="translate(137.27 188.073)" fill="#fff"/>
            <path id="Trazado_874072" data-name="Trazado 874072" d="M315.839,379.931v11.911h36.63V379.931Z" transform="translate(-177.1 -213.038)" fill="#f5f5f5"/>
            <path id="Trazado_874073" data-name="Trazado 874073" d="M312.34,372.35v3.33h39.448v-3.33H312.34Z" transform="translate(-175.138 -208.787)" fill="#e0e0e0"/>
            <path id="Trazado_874074" data-name="Trazado 874074" d="M356.26,387.591H374.7V375.68h1.281v-3.33H355.492v3.022Z" transform="translate(-199.335 -208.787)" fill="#e0e0e0"/>
            <rect id="Rectángulo_401760" data-name="Rectángulo 401760" width="7.429" height="1.793" transform="translate(143.862 168.813)" fill="#e0e0e0"/>
            <rect id="Rectángulo_401761" data-name="Rectángulo 401761" width="9.539" height="3.786" transform="translate(142.906 172.848)" fill="#fff"/>
          </g>
        </g>
        <g id="Grupo_1100943" data-name="Grupo 1100943">
          <g id="Grupo_1100942" data-name="Grupo 1100942" clip-path="url(#clip-path)">
            <path id="Trazado_874075" data-name="Trazado 874075" d="M290.283,441.556c0,.063-64.987.114-145.134.114C64.973,441.67,0,441.619,0,441.556s64.973-.114,145.149-.114c80.147,0,145.134.051,145.134.114" transform="translate(0 -247.53)" fill="#263238"/>
          </g>
        </g>
        <g id="Grupo_1100951" data-name="Grupo 1100951">
          <g id="Grupo_1100950" data-name="Grupo 1100950" clip-path="url(#clip-path)">
            <path id="Trazado_874076" data-name="Trazado 874076" d="M64.582,367.227s-1.856-12.76-1.7-20.184-.009-15.776-.009-15.776h.855s-.579,14.736.051,23.624,2.289,12.337,2.289,12.337Z" transform="translate(-35.254 -185.751)" fill="#263238"/>
            <path id="Trazado_874077" data-name="Trazado 874077" d="M68.425,296.861a2.256,2.256,0,0,0-.779-1.141,2.169,2.169,0,0,0-1.859.013c-2.584.914-4.875,5.732-5.92,8.266l3.431,11.56c6.192-5.745,7.265-13.281,5.128-18.7" transform="translate(-33.569 -165.703)" fill="#455a64"/>
            <path id="Trazado_874078" data-name="Trazado 874078" d="M71.822,297.049a.667.667,0,0,1-.05.151l-.168.421c-.15.364-.362.893-.614,1.549-.506,1.313-1.149,3.148-1.724,5.215s-.968,3.974-1.211,5.359c-.123.693-.214,1.255-.273,1.644l-.073.448a.675.675,0,0,1-.035.155.677.677,0,0,1,.007-.159l.047-.451c.042-.392.119-.957.229-1.653A49.2,49.2,0,0,1,70.9,299.134c.265-.653.49-1.177.656-1.534l.192-.411a.68.68,0,0,1,.076-.139" transform="translate(-37.945 -166.564)" fill="#263238"/>
            <path id="Trazado_874079" data-name="Trazado 874079" d="M57.44,325.9a10.468,10.468,0,0,1-5.288-8.789,19.186,19.186,0,0,1,1.558-7.49.966.966,0,0,1,.363-.544.923.923,0,0,1,.877.137,10.618,10.618,0,0,1,4.506,6.448,13.018,13.018,0,0,1,.529,5.3A8.812,8.812,0,0,1,57.44,325.9" transform="translate(-29.236 -173.27)" fill="#455a64"/>
            <path id="Trazado_874080" data-name="Trazado 874080" d="M61.294,328.3a.643.643,0,0,1-.013-.155c0-.117,0-.264-.008-.444,0-.385-.017-.942-.048-1.63a44.481,44.481,0,0,0-.6-5.34c-.357-2.07-.789-3.924-1.108-5.265l-.381-1.587-.1-.433a.681.681,0,0,1-.025-.153.651.651,0,0,1,.053.146c.033.112.074.253.125.426.105.371.252.909.424,1.577.344,1.335.793,3.189,1.151,5.265a39.063,39.063,0,0,1,.557,5.36c.019.69.019,1.248,0,1.634-.007.18-.013.327-.018.444a.652.652,0,0,1-.016.155" transform="translate(-33.091 -175.675)" fill="#263238"/>
            <g id="Grupo_1100946" data-name="Grupo 1100946" transform="translate(22.903 135.738)" opacity="0.3">
              <g id="Grupo_1100945" data-name="Grupo 1100945">
                <g id="Grupo_1100944" data-name="Grupo 1100944" clip-path="url(#clip-path-5)">
                  <path id="Trazado_874081" data-name="Trazado 874081" d="M57.44,325.9a10.468,10.468,0,0,1-5.288-8.789,19.186,19.186,0,0,1,1.558-7.49.966.966,0,0,1,.363-.544.923.923,0,0,1,.877.137,10.618,10.618,0,0,1,4.506,6.448,13.018,13.018,0,0,1,.529,5.3A8.812,8.812,0,0,1,57.44,325.9" transform="translate(-52.139 -309.007)"/>
                </g>
              </g>
            </g>
            <path id="Trazado_874082" data-name="Trazado 874082" d="M72.466,391.556c3.165.7,5.771,2.928,8.825,4.013,2.02.718,4.3.972,5.917,2.385a5.015,5.015,0,0,0-2.2-2.185,39.377,39.377,0,0,0-8-3.818,7.609,7.609,0,0,0-4.459-.5" transform="translate(-40.634 -219.404)" fill="#455a64"/>
            <path id="Trazado_874083" data-name="Trazado 874083" d="M46.626,392.985c-3.964-.064-8.137-3.438-12.082-3.64,4.129-1.333,10.04-.244,12.082,3.64" transform="translate(-19.37 -218.013)" fill="#455a64"/>
            <path id="Trazado_874084" data-name="Trazado 874084" d="M65.574,370.516a12.9,12.9,0,0,1,6.336-.431,38.5,38.5,0,0,1,6.186,1.682c-.2-1.375-1.317-2.409-2.363-3.325a16.547,16.547,0,0,0-2.484-1.909,5.533,5.533,0,0,0-2.979-.84,4.711,4.711,0,0,0-3.288,1.657,5.462,5.462,0,0,0-1.408,3.167" transform="translate(-36.769 -205.052)" fill="#455a64"/>
            <path id="Trazado_874085" data-name="Trazado 874085" d="M34.86,364.3c-2.5-2.13-6.275-1.922-9.554-1.848a77.818,77.818,0,0,1,14.817,9.233c.134-2.318-2.111-4.695-5.262-7.385" transform="translate(-14.19 -203.216)" fill="#455a64"/>
            <g id="Grupo_1100949" data-name="Grupo 1100949" transform="translate(11.116 159.197)" opacity="0.3">
              <g id="Grupo_1100948" data-name="Grupo 1100948">
                <g id="Grupo_1100947" data-name="Grupo 1100947" clip-path="url(#clip-path-6)">
                  <path id="Trazado_874086" data-name="Trazado 874086" d="M34.86,364.3c-2.5-2.13-6.275-1.922-9.554-1.848a77.818,77.818,0,0,1,14.817,9.233c.134-2.318-2.111-4.695-5.262-7.385" transform="translate(-25.306 -362.413)"/>
                </g>
              </g>
            </g>
            <path id="Trazado_874087" data-name="Trazado 874087" d="M68.112,346.938a27.751,27.751,0,0,1,3.837-2.23c1.313-.6,2.539-1.547,3.807-2.234a41.552,41.552,0,0,0,4.579-3.233,11.891,11.891,0,0,1,5.015-2.393,9.867,9.867,0,0,0-4.564.264,29.494,29.494,0,0,0-4.3,1.671,20.948,20.948,0,0,0-5.518,3.2c-1.591,1.424-3.029,2.828-2.861,4.956" transform="translate(-38.185 -188.791)" fill="#455a64"/>
            <path id="Trazado_874088" data-name="Trazado 874088" d="M77.037,394.507a.489.489,0,0,1-.126-.054l-.346-.179c-.3-.159-.727-.394-1.267-.665-.267-.141-.563-.288-.884-.439s-.663-.314-1.029-.472a15.1,15.1,0,0,0-2.441-.85,5.244,5.244,0,0,0-2.542-.064,7.268,7.268,0,0,0-1.077.322,5.5,5.5,0,0,0-.87.446,5.563,5.563,0,0,0-1.093.9c-.229.246-.341.4-.351.389a.492.492,0,0,1,.071-.117,3.647,3.647,0,0,1,.239-.309,5.1,5.1,0,0,1,1.08-.95,5.4,5.4,0,0,1,.879-.471,7.136,7.136,0,0,1,1.092-.34,5.281,5.281,0,0,1,2.6.053,14.466,14.466,0,0,1,2.46.869c.366.162.712.323,1.028.486s.615.308.879.456c.535.283.957.532,1.248.706l.333.2a.493.493,0,0,1,.111.079" transform="translate(-36.454 -219.535)" fill="#263238"/>
            <path id="Trazado_874089" data-name="Trazado 874089" d="M55.318,393.85a.909.909,0,0,1,.248.073,5.554,5.554,0,0,1,.646.281,7.84,7.84,0,0,1,3.312,3.181,5.547,5.547,0,0,1,.307.634.9.9,0,0,1,.082.245c-.022.01-.17-.326-.475-.829a8.777,8.777,0,0,0-3.272-3.143c-.515-.284-.857-.419-.847-.442" transform="translate(-31.018 -220.842)" fill="#263238"/>
            <path id="Trazado_874090" data-name="Trazado 874090" d="M35.354,366.262a.829.829,0,0,1,.169.05l.476.169.75.277c.292.109.61.269.969.427a22.891,22.891,0,0,1,5.16,3.288,25.179,25.179,0,0,1,2.406,2.369,26.658,26.658,0,0,1,1.708,2.164c.452.641.8,1.175,1.031,1.544l.271.425a.836.836,0,0,1,.088.153.786.786,0,0,1-.111-.137c-.069-.092-.17-.23-.294-.411-.25-.361-.6-.885-1.066-1.517s-1.041-1.361-1.724-2.136a26.333,26.333,0,0,0-2.4-2.348,24.152,24.152,0,0,0-5.111-3.305c-.355-.163-.669-.329-.957-.445l-.739-.3-.466-.194a.852.852,0,0,1-.159-.077" transform="translate(-19.824 -205.374)" fill="#263238"/>
            <path id="Trazado_874091" data-name="Trazado 874091" d="M70.849,371.244a1.408,1.408,0,0,1-.316-.041l-.364-.067c-.142-.027-.307-.028-.487-.047a4.983,4.983,0,0,0-2.724.538,4.922,4.922,0,0,0-1.24.919,5.63,5.63,0,0,0-.8.985,8.159,8.159,0,0,0-.545,1.04,1.148,1.148,0,0,1,.08-.309,4.443,4.443,0,0,1,.38-.784,5.263,5.263,0,0,1,.789-1.024,4.826,4.826,0,0,1,4.065-1.465c.182.025.35.033.492.069l.363.091a1.37,1.37,0,0,1,.3.094" transform="translate(-36.097 -208.008)" fill="#263238"/>
            <path id="Trazado_874092" data-name="Trazado 874092" d="M74.6,343.472a.827.827,0,0,1-.15.092l-.442.24c-.385.207-.938.513-1.61.909s-1.457.894-2.3,1.494a19.159,19.159,0,0,0-2.564,2.148,6.512,6.512,0,0,0-1.049,1.358c-.26.5-.508.98-.736,1.443a26.256,26.256,0,0,0-1.1,2.507,15.335,15.335,0,0,0-.535,1.765c-.1.424-.138.664-.152.662a.835.835,0,0,1,.016-.176c.014-.114.038-.282.082-.5a13.148,13.148,0,0,1,.5-1.787A24.189,24.189,0,0,1,65.64,351.1c.226-.466.472-.949.73-1.449a6.559,6.559,0,0,1,1.07-1.392,18.6,18.6,0,0,1,2.59-2.155c.847-.6,1.644-1.083,2.322-1.474s1.242-.679,1.635-.872l.455-.217a.833.833,0,0,1,.163-.067" transform="translate(-35.868 -192.595)" fill="#263238"/>
            <path id="Trazado_874093" data-name="Trazado 874093" d="M59.5,360.272a1.591,1.591,0,0,1-.079-.334c-.046-.245-.1-.551-.174-.916a23.425,23.425,0,0,0-1.881-5.826l-.387-.848a1.593,1.593,0,0,1-.127-.319,1.591,1.591,0,0,1,.177.294c.1.194.253.477.427.83A19.535,19.535,0,0,1,59.346,359c.062.39.107.706.13.926a1.607,1.607,0,0,1,.024.342" transform="translate(-31.878 -197.393)" fill="#263238"/>
            <path id="Trazado_874094" data-name="Trazado 874094" d="M48.361,335.689a10.756,10.756,0,0,0-1.289-4.279A14.126,14.126,0,0,0,37.5,324.27l8.864,13.211,1.145,2.358a6.779,6.779,0,0,0,.855-4.151" transform="translate(-21.026 -181.828)" fill="#455a64"/>
            <rect id="Rectángulo_401766" data-name="Rectángulo 401766" width="20.611" height="3.653" transform="translate(19.438 179.898)" fill="#6cdfd4"/>
            <path id="Trazado_874095" data-name="Trazado 874095" d="M47.755,416.2l1.755,11.335H63.194L65.288,416.2Z" transform="translate(-26.778 -233.378)" fill="#6cdfd4"/>
            <path id="Trazado_874096" data-name="Trazado 874096" d="M64.638,417.771c0,.04-4.649.072-10.383.072s-10.384-.033-10.384-.072,4.648-.072,10.384-.072,10.383.033,10.383.072" transform="translate(-24.6 -234.216)" fill="#263238"/>
          </g>
        </g>
        <g id="Grupo_1100953" data-name="Grupo 1100953">
          <g id="Grupo_1100952" data-name="Grupo 1100952" clip-path="url(#clip-path)">
            <path id="Trazado_874097" data-name="Trazado 874097" d="M212.174,376.9a24.068,24.068,0,1,1,16.953-14.04,23.945,23.945,0,0,1-16.953,14.04m-10.029-45.435a22.448,22.448,0,1,0,13.671,1.273,22.454,22.454,0,0,0-13.671-1.273" transform="translate(-102.554 -184.658)" fill="#455a64"/>
            <path id="Trazado_874098" data-name="Trazado 874098" d="M212.174,376.9a24.068,24.068,0,1,1,16.953-14.04,23.945,23.945,0,0,1-16.953,14.04m-10.029-45.435a22.448,22.448,0,1,0,13.671,1.273,22.454,22.454,0,0,0-13.671-1.273" transform="translate(-102.554 -184.658)" fill="#263238"/>
            <path id="Trazado_874099" data-name="Trazado 874099" d="M210.3,379.193a24.067,24.067,0,1,1,16.953-14.04,23.946,23.946,0,0,1-16.953,14.04m-10.029-45.435a22.448,22.448,0,1,0,13.671,1.273,22.455,22.455,0,0,0-13.671-1.273" transform="translate(-101.504 -185.944)" fill="#455a64"/>
            <path id="Trazado_874100" data-name="Trazado 874100" d="M323.7,414.907l-.387.994c-.345.886-1.887,1.118-2.842.741L284.42,402.607l1.816-4.664,36,14.014a2.408,2.408,0,0,1,1.467,2.95" transform="translate(-159.483 -223.138)" fill="#455a64"/>
            <path id="Trazado_874101" data-name="Trazado 874101" d="M233.828,365.646c.04.049-4.537,3.823-10.222,8.427s-10.327,8.3-10.367,8.25,4.536-3.822,10.223-8.428,10.326-8.3,10.366-8.25" transform="translate(-119.57 -205.028)" fill="#263238"/>
            <path id="Trazado_874102" data-name="Trazado 874102" d="M226.415,362.469c.04.049-3.344,2.929-7.559,6.432s-7.665,6.305-7.706,6.257,3.343-2.928,7.559-6.432,7.664-6.3,7.7-6.256" transform="translate(-118.398 -203.247)" fill="#263238"/>
            <path id="Trazado_874103" data-name="Trazado 874103" d="M245.562,382.381c.04.049-2.276,2.041-5.173,4.449s-5.28,4.322-5.32,4.274,2.275-2.04,5.174-4.449,5.279-4.322,5.32-4.273" transform="translate(-131.809 -214.412)" fill="#263238"/>
          </g>
        </g>
        <g id="Grupo_1100955" data-name="Grupo 1100955">
          <g id="Grupo_1100954" data-name="Grupo 1100954" clip-path="url(#clip-path)">
            <path id="Trazado_874104" data-name="Trazado 874104" d="M567.532,201.46a16.539,16.539,0,1,1-16.8-16.346,16.6,16.6,0,0,1,16.8,16.346m-24.443.394a7.908,7.908,0,1,0,7.779-8.071,7.934,7.934,0,0,0-7.779,8.071" transform="translate(-299.686 -103.798)" fill="#f5f5f5"/>
            <path id="Trazado_874105" data-name="Trazado 874105" d="M588.3,201.46a16.6,16.6,0,0,1-16.271,16.88l-.139-8.669a7.944,7.944,0,0,0-.254-15.886l-.138-8.669a16.593,16.593,0,0,1,16.8,16.345" transform="translate(-320.459 -103.798)" fill="#455a64"/>
            <path id="Trazado_874106" data-name="Trazado 874106" d="M554.1,212.807a.52.52,0,0,1-.007-.128c0-.1,0-.223,0-.378a3.673,3.673,0,0,1,.041-.613,5.58,5.58,0,0,1,.137-.829,7.539,7.539,0,0,1,.823-2.148,7.928,7.928,0,0,1,9.524-3.631,7.489,7.489,0,0,1,2.048,1.063,8.808,8.808,0,0,1,.922.762,8.987,8.987,0,0,1,.8.919,8.016,8.016,0,0,1,.153,9.5,7.4,7.4,0,0,1-1.668,1.736,7.508,7.508,0,0,1-2.013,1.128,7.952,7.952,0,0,1-9.636-3.321,7.533,7.533,0,0,1-.891-2.121,5.648,5.648,0,0,1-.164-.824,3.688,3.688,0,0,1-.061-.612c-.006-.155-.01-.279-.014-.377a.544.544,0,0,1,0-.129,12.363,12.363,0,0,0,.321,1.919,7.61,7.61,0,0,0,.914,2.077,7.884,7.884,0,0,0,2.032,2.2,7.752,7.752,0,0,0,7.419,1,7.31,7.31,0,0,0,1.956-1.1,7.23,7.23,0,0,0,1.619-1.693,7.812,7.812,0,0,0-.148-9.239,8.848,8.848,0,0,0-.777-.9,8.7,8.7,0,0,0-.9-.743,7.3,7.3,0,0,0-1.99-1.041,7.751,7.751,0,0,0-7.382,1.236,7.888,7.888,0,0,0-1.961,2.259,7.613,7.613,0,0,0-.847,2.105,12.449,12.449,0,0,0-.26,1.928" transform="translate(-310.696 -114.75)" fill="#263238"/>
            <path id="Trazado_874107" data-name="Trazado 874107" d="M567.389,201.343s-.014-.09-.03-.268-.036-.446-.064-.785q-.02-.26-.044-.579c-.025-.212-.075-.441-.116-.691a12.155,12.155,0,0,0-.372-1.7,15.9,15.9,0,0,0-1.9-4.368,16.508,16.508,0,0,0-4.257-4.624,16.33,16.33,0,0,0-6.976-2.987,15.328,15.328,0,0,0-2.086-.21c-.355-.007-.714-.036-1.074-.024l-1.089.074c-.182.016-.367.017-.549.046l-.548.094c-.365.068-.738.115-1.1.2A17.2,17.2,0,0,0,545,186.2a17.368,17.368,0,0,0-2.129.985c-.342.2-.673.422-1.012.633a8.554,8.554,0,0,0-.98.7,18.378,18.378,0,0,0-1.835,1.624l-.82.937-.206.235-.183.255-.368.511-.369.514-.321.548-.321.551-.161.276-.134.291-.539,1.17-.425,1.227a16.367,16.367,0,0,0,.165,10.387l.464,1.213.576,1.153.144.286.17.271.339.541.338.538.387.5.383.5.192.249.214.229.85.91a18.288,18.288,0,0,0,1.887,1.565,8.564,8.564,0,0,0,1,.673c.347.2.684.413,1.033.6a17.946,17.946,0,0,0,4.365,1.53c.369.073.743.109,1.11.164l.55.076c.183.022.368.018.551.028l1.091.039c.361,0,.718-.041,1.073-.059a15.362,15.362,0,0,0,2.079-.277,16.346,16.346,0,0,0,6.875-3.211,16.511,16.511,0,0,0,4.106-4.759,15.894,15.894,0,0,0,1.758-4.426,12.05,12.05,0,0,0,.317-1.715c.033-.251.075-.481.094-.694s.018-.406.025-.58c.017-.34.029-.6.038-.787s.022-.268.022-.268,0,.091,0,.268-.009.449-.016.789q-.007.262-.015.582c-.015.213-.054.445-.083.7a11.892,11.892,0,0,1-.3,1.727,15.812,15.812,0,0,1-1.734,4.47,16.664,16.664,0,0,1-11.054,8.093,15.424,15.424,0,0,1-2.1.286c-.359.019-.721.061-1.086.062l-1.1-.037c-.185-.01-.373,0-.558-.027l-.557-.076c-.372-.056-.751-.091-1.125-.164a18.148,18.148,0,0,1-4.423-1.542c-.354-.189-.7-.4-1.047-.606a8.781,8.781,0,0,1-1.016-.68,18.41,18.41,0,0,1-1.914-1.584l-.862-.922-.217-.232-.194-.252-.39-.505-.391-.508-.344-.545-.343-.548-.173-.275-.146-.29-.585-1.169-.471-1.229a16.577,16.577,0,0,1-.167-10.531l.432-1.244.547-1.186.137-.295.164-.28.326-.558.326-.555.375-.52.373-.518.186-.258.21-.239.831-.948a18.6,18.6,0,0,1,1.862-1.644,8.83,8.83,0,0,1,.993-.712c.345-.213.68-.439,1.027-.64a18.137,18.137,0,0,1,4.371-1.684c.372-.086.749-.133,1.119-.2l.555-.094c.184-.029.372-.029.556-.045l1.1-.072c.365-.011.727.019,1.087.027a15.443,15.443,0,0,1,2.11.218,16.655,16.655,0,0,1,11.31,7.731,15.8,15.8,0,0,1,1.876,4.412,11.881,11.881,0,0,1,.353,1.717c.038.251.083.481.105.694s.023.407.033.582l.041.788c.008.177.007.268.007.268" transform="translate(-299.543 -103.681)" fill="#263238"/>
            <path id="Trazado_874108" data-name="Trazado 874108" d="M551.394,239.553a18.9,18.9,0,0,1-19.349-18.824l10.1-.163c.082,5.124,3.981,8.35,9.081,8.268Z" transform="translate(-298.333 -123.678)" fill="#6cdfd4"/>
            <path id="Trazado_874109" data-name="Trazado 874109" d="M551.244,239.409a1.86,1.86,0,0,1-.012-.2c0-.139-.011-.326-.018-.565-.013-.506-.032-1.228-.056-2.149-.041-1.863-.1-4.53-.17-7.8l.087.083a11.266,11.266,0,0,1-3.038-.372,8.68,8.68,0,0,1-3.01-1.466,7.829,7.829,0,0,1-2.283-2.785,8.8,8.8,0,0,1-.863-3.728l.112.109-7.818.13-2.278.036.112-.116a21.15,21.15,0,0,0,1.028,5.971l.511,1.363c.19.44.416.86.618,1.284a9.892,9.892,0,0,0,.688,1.211,11.19,11.19,0,0,0,.748,1.136l.8,1.055c.282.332.586.638.871.951l.43.462.465.412.908.8a19.433,19.433,0,0,0,3.745,2.31l.894.414c.3.116.6.21.88.312l.833.291c.271.086.544.137.8.2l.75.181.354.086c.117.022.233.034.346.051l1.236.174a7.691,7.691,0,0,0,.984.079l.725.037.452.025a1.419,1.419,0,0,1,.16.013.973.973,0,0,1-.145,0l-.445,0-.735-.011a7.208,7.208,0,0,1-1.005-.058l-1.245-.156c-.113-.016-.231-.027-.348-.047l-.358-.082-.757-.174c-.26-.065-.536-.113-.81-.2l-.842-.284c-.288-.1-.589-.193-.89-.307l-.9-.41a19.384,19.384,0,0,1-3.794-2.308l-.922-.805-.471-.414-.436-.465c-.289-.315-.6-.623-.884-.958l-.817-1.063a11.441,11.441,0,0,1-.759-1.146,10.05,10.05,0,0,1-.7-1.223c-.206-.428-.435-.853-.628-1.3l-.52-1.377a21.3,21.3,0,0,1-1.047-6.038l0-.114.116,0,2.278-.037,7.818-.123.112,0v.111a8.6,8.6,0,0,0,.833,3.638,7.636,7.636,0,0,0,2.213,2.718,8.515,8.515,0,0,0,2.937,1.446,11.143,11.143,0,0,0,2.985.382h.086v.083c.034,3.3.061,5.982.08,7.857.005.914.01,1.63.013,2.131,0,.232,0,.415,0,.55a1.337,1.337,0,0,1-.006.182" transform="translate(-298.184 -123.534)" fill="#263238"/>
          </g>
        </g>
        <rect id="Rectángulo_401770" data-name="Rectángulo 401770" width="87.523" height="65.427" transform="translate(174.191 2.331)" fill="#fff"/>
        <rect id="Rectángulo_401771" data-name="Rectángulo 401771" width="87.523" height="8.087" transform="translate(174.191 2.331)" fill="#e0e0e0"/>
        <g id="Grupo_1100963" data-name="Grupo 1100963">
          <g id="Grupo_1100962" data-name="Grupo 1100962" clip-path="url(#clip-path)">
            <path id="Trazado_874110" data-name="Trazado 874110" d="M407.131,13.023a1.166,1.166,0,1,1-1.165-1.165,1.166,1.166,0,0,1,1.165,1.165" transform="translate(-226.983 -6.649)" fill="#fff"/>
            <path id="Trazado_874111" data-name="Trazado 874111" d="M416.077,13.023a1.166,1.166,0,1,1-1.165-1.165,1.166,1.166,0,0,1,1.165,1.165" transform="translate(-232 -6.649)" fill="#fff"/>
            <path id="Trazado_874112" data-name="Trazado 874112" d="M425.023,13.023a1.166,1.166,0,1,1-1.165-1.165,1.165,1.165,0,0,1,1.165,1.165" transform="translate(-237.016 -6.649)" fill="#fff"/>
            <path id="Trazado_874113" data-name="Trazado 874113" d="M483.924,70.587s-.007-.41-.01-1.2-.006-1.953-.011-3.474c-.006-3.044-.014-7.511-.024-13.216-.012-11.4-.029-27.746-.049-47.54l.094.094-87.516.021H396.4l.114-.114c0,23.514-.008,45.786-.011,65.427l-.1-.1,63.178.051,17.942.027,4.759.013,1.226.006c.276,0,.419.006.419.006s-.135,0-.407.006L482.3,70.6l-4.738.012-17.918.028L396.4,70.69h-.1v-.1c0-19.64-.007-41.913-.011-65.427V5.046h.122l87.516.021h.094V5.16c-.02,19.819-.037,36.184-.049,47.6-.01,5.7-.018,10.155-.024,13.195,0,1.513-.008,2.672-.011,3.457s-.01,1.176-.01,1.176" transform="translate(-222.209 -2.829)" fill="#263238"/>
            <path id="Trazado_874114" data-name="Trazado 874114" d="M485.5,94.922c0,.063-17.418.114-38.9.114s-38.9-.051-38.9-.114,17.414-.114,38.9-.114,38.9.051,38.9.114" transform="translate(-228.611 -53.162)" fill="#e0e0e0"/>
            <path id="Trazado_874115" data-name="Trazado 874115" d="M485.5,79.632c0,.063-17.418.114-38.9.114s-38.9-.051-38.9-.114,17.414-.114,38.9-.114,38.9.051,38.9.114" transform="translate(-228.611 -44.588)" fill="#e0e0e0"/>
            <path id="Trazado_874116" data-name="Trazado 874116" d="M485.5,64.341c0,.063-17.418.114-38.9.114s-38.9-.051-38.9-.114,17.414-.114,38.9-.114,38.9.051,38.9.114" transform="translate(-228.611 -36.014)" fill="#e0e0e0"/>
            <path id="Trazado_874117" data-name="Trazado 874117" d="M485.5,49.051c0,.063-17.418.114-38.9.114s-38.9-.051-38.9-.114,17.414-.114,38.9-.114,38.9.051,38.9.114" transform="translate(-228.611 -27.44)" fill="#e0e0e0"/>
            <path id="Trazado_874118" data-name="Trazado 874118" d="M479.9,64.731c-1.516-3.659-2.556-7.657-3.719-11.447-1.012-3.3-1.106-4.841-1.975-7.627-1.368-4.39-4.99-4.876-7.622-3.686-2.346,1.06-3.359,3.818-4.137,6.3l-2.793,8.9a15.771,15.771,0,0,1-1.7,4.059,5.211,5.211,0,0,1-3.49,2.432c-2.379.314-4.51-1.678-5.527-3.881s-1.3-4.686-2.208-6.937-2.781-4.41-5.179-4.454c-2.954-.054-4.961,2.961-6.189,5.685a64.974,64.974,0,0,0-3.724,10.647,14.476,14.476,0,0,1-1.237,3.63,4.171,4.171,0,0,1-2.939,2.219c-1.622.2-3.127-.957-4.071-2.309s-1.523-2.94-2.489-4.276-2.521-2.445-4.131-2.164c-1.446.253-2.481,1.519-3.335,2.728a63.881,63.881,0,0,0-5.975,10.4h80.474c-3.707-1.277-6.514-6.564-8.031-10.223" transform="translate(-228.471 -23.221)" fill="#6cdfd4"/>
            <rect id="Rectángulo_401772" data-name="Rectángulo 401772" width="3.8" height="3.8" transform="translate(197.793 57.003)" fill="#6cdfd4"/>
            <path id="Trazado_874119" data-name="Trazado 874119" d="M487.178,132.979H467.359a.437.437,0,1,1,0-.873h19.819a.437.437,0,0,1,0,.873" transform="translate(-261.817 -74.076)" fill="#263238"/>
            <path id="Trazado_874120" data-name="Trazado 874120" d="M484.3,72.885s-.1.008-.289.012l-.85.011-3.267.022-12.017.036L428.232,73l-20.913-.008h-.106v-.106c.017-10.311.031-19.1.041-25.318.013-3.1.023-5.559.03-7.252.007-.837.013-1.483.017-1.928,0-.213.007-.377.009-.5s.009-.168.009-.168.006.057.009.168,0,.283.008.5c0,.446.01,1.092.017,1.928.007,1.693.017,4.152.03,7.252.01,6.219.025,15.008.041,25.318l-.106-.106,20.913-.008,39.647.033,12.017.036,3.267.021.85.011c.191,0,.289.012.289.012" transform="translate(-228.336 -21.152)" fill="#263238"/>
            <g id="Grupo_1100958" data-name="Grupo 1100958" transform="translate(217.953 25.386)" opacity="0.3">
              <g id="Grupo_1100957" data-name="Grupo 1100957">
                <g id="Grupo_1100956" data-name="Grupo 1100956" clip-path="url(#clip-path-10)">
                  <path id="Trazado_874121" data-name="Trazado 874121" d="M524.732,57.791,496.17,84.138h14.281L527.646,68.22Z" transform="translate(-496.171 -57.791)" fill="#fff"/>
                </g>
              </g>
            </g>
            <g id="Grupo_1100961" data-name="Grupo 1100961" transform="translate(201.593 35.821)" opacity="0.3">
              <g id="Grupo_1100960" data-name="Grupo 1100960">
                <g id="Grupo_1100959" data-name="Grupo 1100959" clip-path="url(#clip-path-11)">
                  <path id="Trazado_874122" data-name="Trazado 874122" d="M478.686,83.781,462.973,97.459h-4.047l18.556-15.912,1.617,2.738" transform="translate(-458.926 -81.547)" fill="#fff"/>
                </g>
              </g>
            </g>
            <path id="Trazado_874123" data-name="Trazado 874123" d="M407.454,74.83a50.714,50.714,0,0,1,2.643-5.254,59.721,59.721,0,0,1,3.738-5.8,7.383,7.383,0,0,1,1.468-1.5,3.331,3.331,0,0,1,2.118-.681,4.032,4.032,0,0,1,2.2.857,6.8,6.8,0,0,1,1.667,1.852c.928,1.425,1.52,3.149,2.75,4.514a4.859,4.859,0,0,0,2.306,1.472,3.033,3.033,0,0,0,1.4.017,3.368,3.368,0,0,0,1.286-.622,5.467,5.467,0,0,0,1.712-2.4,25,25,0,0,0,.871-2.995,64.727,64.727,0,0,1,1.958-6.249q.582-1.577,1.264-3.16a22.518,22.518,0,0,1,1.561-3.121,9.261,9.261,0,0,1,2.367-2.673,4.9,4.9,0,0,1,1.651-.793,4.387,4.387,0,0,1,1.851-.054,5.523,5.523,0,0,1,3.108,1.985,9.878,9.878,0,0,1,1.777,3.318c.4,1.2.682,2.441,1.031,3.662a12.454,12.454,0,0,0,1.473,3.5,6.419,6.419,0,0,0,2.812,2.447,3.873,3.873,0,0,0,3.543-.289,6.493,6.493,0,0,0,2.38-2.743,23.421,23.421,0,0,0,1.264-3.439l2.15-6.843c.357-1.115.68-2.229,1.078-3.311a11.745,11.745,0,0,1,1.563-3.039,5.762,5.762,0,0,1,1.193-1.2,5.554,5.554,0,0,1,1.487-.763,6.559,6.559,0,0,1,1.615-.325,5.929,5.929,0,0,1,1.621.135A4.968,4.968,0,0,1,473,43.027a7.789,7.789,0,0,1,1.369,2.728c.589,1.911.91,3.814,1.384,5.595.23.893.5,1.756.753,2.605l.736,2.493a76.318,76.318,0,0,0,2.928,8.641A29.763,29.763,0,0,0,483.5,71.1a12.287,12.287,0,0,0,3.073,3.043,7.161,7.161,0,0,0,1,.527c.234.1.352.159.352.159s-.123-.043-.361-.138a6.572,6.572,0,0,1-1.014-.51,12.118,12.118,0,0,1-3.12-3.029,29.5,29.5,0,0,1-3.378-6.012,75.461,75.461,0,0,1-2.966-8.646L476.347,54c-.257-.846-.529-1.714-.762-2.61-.481-1.79-.806-3.688-1.4-5.584a7.608,7.608,0,0,0-1.338-2.658,4.768,4.768,0,0,0-2.544-1.622,5.7,5.7,0,0,0-1.561-.127,6.373,6.373,0,0,0-1.561.317,5.209,5.209,0,0,0-2.579,1.9,11.551,11.551,0,0,0-1.53,2.986c-.392,1.07-.715,2.186-1.071,3.3l-2.144,6.845a23.577,23.577,0,0,1-1.276,3.473,6.714,6.714,0,0,1-2.465,2.837,4.086,4.086,0,0,1-3.746.305,6.64,6.64,0,0,1-2.917-2.532,12.651,12.651,0,0,1-1.5-3.566c-.351-1.23-.629-2.467-1.027-3.653a9.643,9.643,0,0,0-1.735-3.245,5.3,5.3,0,0,0-2.977-1.91,4.171,4.171,0,0,0-1.754.05,4.69,4.69,0,0,0-1.577.757,9.061,9.061,0,0,0-2.31,2.609,22.345,22.345,0,0,0-1.549,3.09q-.681,1.575-1.263,3.148a64.687,64.687,0,0,0-1.961,6.226,25.23,25.23,0,0,1-.883,3.017,5.661,5.661,0,0,1-1.779,2.477,3.552,3.552,0,0,1-1.359.653,3.214,3.214,0,0,1-1.483-.021,5.033,5.033,0,0,1-2.392-1.53c-1.259-1.41-1.843-3.139-2.756-4.547a6.649,6.649,0,0,0-1.623-1.816,3.89,3.89,0,0,0-2.115-.835,3.193,3.193,0,0,0-2.031.647,7.276,7.276,0,0,0-1.447,1.466,61.144,61.144,0,0,0-3.761,5.771c-.945,1.639-1.609,2.952-2.052,3.844l-.495,1.02c-.111.23-.173.346-.173.346" transform="translate(-228.471 -23.096)" fill="#263238"/>
          </g>
        </g>
        <rect id="Rectángulo_401776" data-name="Rectángulo 401776" width="78.73" height="47.324" transform="translate(65.989 92.34)" fill="#fff"/>
        <rect id="Rectángulo_401777" data-name="Rectángulo 401777" width="78.73" height="7.275" transform="translate(65.989 92.34)" fill="#e0e0e0"/>
        <g id="Grupo_1100980" data-name="Grupo 1100980">
          <g id="Grupo_1100979" data-name="Grupo 1100979" clip-path="url(#clip-path)">
            <path id="Trazado_874124" data-name="Trazado 874124" d="M159.745,217.155a1.049,1.049,0,1,1-1.049-1.049,1.049,1.049,0,0,1,1.049,1.049" transform="translate(-88.398 -121.177)" fill="#fff"/>
            <path id="Trazado_874125" data-name="Trazado 874125" d="M167.792,217.155a1.049,1.049,0,1,1-1.049-1.049,1.049,1.049,0,0,1,1.049,1.049" transform="translate(-92.91 -121.177)" fill="#fff"/>
            <path id="Trazado_874126" data-name="Trazado 874126" d="M175.839,217.155a1.049,1.049,0,1,1-1.049-1.049,1.049,1.049,0,0,1,1.049,1.049" transform="translate(-97.422 -121.177)" fill="#fff"/>
            <path id="Trazado_874127" data-name="Trazado 874127" d="M228.808,257.391s-.006-.293-.01-.853-.005-1.394-.01-2.48c-.005-2.176-.013-5.375-.023-9.479-.011-8.2-.027-20.023-.047-34.512l.089.089-78.725.025h-.006l.114-.114c0,16.765-.006,32.764-.008,47.324l-.106-.106,56.657.051,16.246.029,4.327.013,1.117.007c.252,0,.383.006.383.006s-.123,0-.37.006l-1.105.007-4.306.013-16.222.029-56.727.051h-.106v-.106c0-14.56-.005-30.559-.008-47.324v-.114h.12l78.725.025h.089v.089c-.02,14.512-.036,26.351-.047,34.567-.01,4.1-.017,7.287-.022,9.459,0,1.079-.007,1.9-.01,2.463s-.01.835-.01.835" transform="translate(-84.089 -117.727)" fill="#263238"/>
            <rect id="Rectángulo_401778" data-name="Rectángulo 401778" width="3.346" height="24.503" transform="translate(74.613 107.584)" fill="#6cdfd4"/>
            <rect id="Rectángulo_401779" data-name="Rectángulo 401779" width="3.346" height="16.181" transform="translate(81.073 115.906)" fill="#6cdfd4"/>
            <rect id="Rectángulo_401780" data-name="Rectángulo 401780" width="3.346" height="21.581" transform="translate(87.532 110.63)" fill="#6cdfd4"/>
            <rect id="Rectángulo_401781" data-name="Rectángulo 401781" width="3.346" height="23.556" transform="translate(93.992 108.531)" fill="#6cdfd4"/>
            <rect id="Rectángulo_401782" data-name="Rectángulo 401782" width="3.346" height="15.682" transform="translate(100.451 116.404)" fill="#6cdfd4"/>
            <rect id="Rectángulo_401783" data-name="Rectángulo 401783" width="3.346" height="12.607" transform="translate(106.911 119.48)" fill="#6cdfd4"/>
            <rect id="Rectángulo_401784" data-name="Rectángulo 401784" width="3.346" height="21.987" transform="translate(113.371 110.1)" fill="#6cdfd4"/>
            <rect id="Rectángulo_401785" data-name="Rectángulo 401785" width="3.346" height="18.023" transform="translate(119.83 114.064)" fill="#6cdfd4"/>
            <rect id="Rectángulo_401786" data-name="Rectángulo 401786" width="3.346" height="21.191" transform="translate(126.29 110.896)" fill="#6cdfd4"/>
            <rect id="Rectángulo_401787" data-name="Rectángulo 401787" width="3.346" height="14.437" transform="translate(132.749 117.65)" fill="#6cdfd4"/>
            <g id="Grupo_1100966" data-name="Grupo 1100966" transform="translate(81.073 115.906)" opacity="0.3">
              <g id="Grupo_1100965" data-name="Grupo 1100965">
                <g id="Grupo_1100964" data-name="Grupo 1100964" clip-path="url(#clip-path-13)">
                  <rect id="Rectángulo_401788" data-name="Rectángulo 401788" width="3.346" height="16.181" transform="translate(0 0)" fill="#fff"/>
                </g>
              </g>
            </g>
            <g id="Grupo_1100969" data-name="Grupo 1100969" transform="translate(93.992 108.531)" opacity="0.3">
              <g id="Grupo_1100968" data-name="Grupo 1100968">
                <g id="Grupo_1100967" data-name="Grupo 1100967" clip-path="url(#clip-path-14)">
                  <rect id="Rectángulo_401790" data-name="Rectángulo 401790" width="3.346" height="23.556" fill="#fff"/>
                </g>
              </g>
            </g>
            <g id="Grupo_1100972" data-name="Grupo 1100972" transform="translate(106.911 119.48)" opacity="0.3">
              <g id="Grupo_1100971" data-name="Grupo 1100971">
                <g id="Grupo_1100970" data-name="Grupo 1100970" clip-path="url(#clip-path-15)">
                  <rect id="Rectángulo_401792" data-name="Rectángulo 401792" width="3.346" height="12.607" fill="#fff"/>
                </g>
              </g>
            </g>
            <g id="Grupo_1100975" data-name="Grupo 1100975" transform="translate(119.83 114.064)" opacity="0.3">
              <g id="Grupo_1100974" data-name="Grupo 1100974">
                <g id="Grupo_1100973" data-name="Grupo 1100973" clip-path="url(#clip-path-16)">
                  <rect id="Rectángulo_401794" data-name="Rectángulo 401794" width="3.346" height="18.023" fill="#fff"/>
                </g>
              </g>
            </g>
            <g id="Grupo_1100978" data-name="Grupo 1100978" transform="translate(132.749 117.65)" opacity="0.3">
              <g id="Grupo_1100977" data-name="Grupo 1100977">
                <g id="Grupo_1100976" data-name="Grupo 1100976" clip-path="url(#clip-path-17)">
                  <rect id="Rectángulo_401796" data-name="Rectángulo 401796" width="3.346" height="14.437" fill="#fff"/>
                </g>
              </g>
            </g>
            <path id="Trazado_874128" data-name="Trazado 874128" d="M231.972,300.55c0,.063-15.572.114-34.777.114s-34.78-.051-34.78-.114,15.569-.114,34.78-.114,34.777.051,34.777.114" transform="translate(-91.071 -168.463)" fill="#263238"/>
          </g>
        </g>
        <rect id="Rectángulo_401799" data-name="Rectángulo 401799" width="41.953" height="41.953" transform="translate(5.881 57.738)" fill="#fff"/>
        <g id="Grupo_1100982" data-name="Grupo 1100982">
          <g id="Grupo_1100981" data-name="Grupo 1100981" clip-path="url(#clip-path)">
            <path id="Trazado_874129" data-name="Trazado 874129" d="M63.093,186.63l11.569.159a11.519,11.519,0,0,1-11.569,11.19h-.069Z" transform="translate(-35.339 -104.649)" fill="#455a64"/>
            <path id="Trazado_874130" data-name="Trazado 874130" d="M44.245,168.394l-.163,11.348a11.353,11.353,0,1,1,11.732-11.348Z" transform="translate(-18.322 -88.06)" fill="#6cdfd4"/>
            <rect id="Rectángulo_401800" data-name="Rectángulo 401800" width="41.914" height="8.252" transform="translate(5.881 57.738)" fill="#e0e0e0"/>
            <path id="Trazado_874131" data-name="Trazado 874131" d="M24.188,139.314A1.189,1.189,0,1,1,23,138.125a1.189,1.189,0,0,1,1.189,1.189" transform="translate(-12.229 -77.451)" fill="#fff"/>
            <path id="Trazado_874132" data-name="Trazado 874132" d="M33.316,139.314a1.189,1.189,0,1,1-1.189-1.189,1.189,1.189,0,0,1,1.189,1.189" transform="translate(-17.347 -77.451)" fill="#fff"/>
            <path id="Trazado_874133" data-name="Trazado 874133" d="M42.443,139.314a1.189,1.189,0,1,1-1.189-1.189,1.189,1.189,0,0,1,1.189,1.189" transform="translate(-22.465 -77.451)" fill="#fff"/>
            <path id="Trazado_874134" data-name="Trazado 874134" d="M55.194,173.247s0-.069-.006-.2,0-.329-.005-.581c0-.516-.007-1.272-.011-2.255-.006-1.975-.015-4.862-.026-8.535-.012-7.34-.03-17.815-.051-30.381l.1.1-41.949.015h0l.114-.114c-.006,15.363-.011,29.759-.015,41.953l-.1-.1,30.383.051,8.534.026,2.255.011.581.005c.131,0,.2.006.2.006s-.062,0-.189.006l-.571.005-2.236.012-8.512.025-30.446.051h-.1v-.1c0-12.194-.01-26.59-.015-41.953v-.115h.119l41.949.016h.1v.1c-.021,12.592-.038,23.089-.051,30.445-.011,3.663-.02,6.543-.025,8.512-.005.976-.009,1.725-.012,2.237,0,.248,0,.437-.005.57s-.006.189-.006.189" transform="translate(-7.36 -73.556)" fill="#263238"/>
          </g>
        </g>
        <rect id="Rectángulo_401802" data-name="Rectángulo 401802" width="114.39" height="82.551" transform="translate(35.999 0.114)" fill="#fff"/>
        <g id="Grupo_1100984" data-name="Grupo 1100984">
          <g id="Grupo_1100983" data-name="Grupo 1100983" clip-path="url(#clip-path)">
            <path id="Trazado_874135" data-name="Trazado 874135" d="M250.429,61.9H223.324a8.162,8.162,0,0,1-8.163-8.162V51.025a8.162,8.162,0,0,1,8.163-8.162h27.105a8.162,8.162,0,0,1,8.162,8.162v2.709a8.162,8.162,0,0,1-8.162,8.162" transform="translate(-120.647 -24.035)" fill="#ebebeb"/>
            <path id="Trazado_874136" data-name="Trazado 874136" d="M100.608,68.18a17.7,17.7,0,1,1,17.979,17.49,17.762,17.762,0,0,1-17.979-17.49m26.155-.422a8.462,8.462,0,1,0-8.325,8.636,8.489,8.489,0,0,0,8.325-8.636" transform="translate(-56.413 -28.101)" fill="#f5f5f5"/>
            <path id="Trazado_874137" data-name="Trazado 874137" d="M100.608,68.183a17.761,17.761,0,0,1,17.41-18.062l.148,9.277a8.5,8.5,0,0,0,.272,17l.148,9.277a17.755,17.755,0,0,1-17.978-17.49" transform="translate(-56.413 -28.104)" fill="#455a64"/>
            <path id="Trazado_874138" data-name="Trazado 874138" d="M138.408,79.489a.62.62,0,0,1,.007.137c0,.1,0,.237,0,.4a3.952,3.952,0,0,1-.045.656,5.966,5.966,0,0,1-.148.886,8.057,8.057,0,0,1-.881,2.3,8.477,8.477,0,0,1-10.184,3.88,8.914,8.914,0,0,1-1.127-.475,9.043,9.043,0,0,1-1.063-.661,9.508,9.508,0,0,1-.985-.814,9.624,9.624,0,0,1-.857-.983,8.363,8.363,0,0,1-1.264-2.348,8.536,8.536,0,0,1-.087-5.423,8.375,8.375,0,0,1,1.188-2.388,7.913,7.913,0,0,1,1.783-1.856A7.84,7.84,0,0,1,126.9,71.6a8.5,8.5,0,0,1,10.3,3.549,8.078,8.078,0,0,1,.954,2.268,6.043,6.043,0,0,1,.176.881,3.945,3.945,0,0,1,.066.655c.006.167.011.3.015.4a.6.6,0,0,1,0,.137.618.618,0,0,1-.021-.137c-.01-.1-.022-.235-.038-.4a4.238,4.238,0,0,0-.087-.647,6.228,6.228,0,0,0-.195-.868,8.15,8.15,0,0,0-.977-2.224,8.438,8.438,0,0,0-2.175-2.351,8.3,8.3,0,0,0-7.945-1.069,7.621,7.621,0,0,0-2.094,1.183,9.261,9.261,0,0,0-.933.826,9.443,9.443,0,0,0-.8.986,8.168,8.168,0,0,0-1.154,2.327,9,9,0,0,0-.387,2.647,8.446,8.446,0,0,0,1.7,4.921,9.425,9.425,0,0,0,.832.959,9.287,9.287,0,0,0,.958.8,7.638,7.638,0,0,0,2.131,1.114,8.3,8.3,0,0,0,7.906-1.325,8.435,8.435,0,0,0,2.1-2.42,8.154,8.154,0,0,0,.906-2.254,6.172,6.172,0,0,0,.166-.875,4.2,4.2,0,0,0,.066-.65c.011-.166.019-.3.025-.4a.64.64,0,0,1,.016-.137" transform="translate(-68.057 -39.833)" fill="#263238"/>
            <path id="Trazado_874139" data-name="Trazado 874139" d="M100.608,68.062s.014.1.031.286.038.477.067.841q.021.278.047.619c.027.227.08.472.124.739s.1.554.151.861a9.453,9.453,0,0,0,.246.963,17.017,17.017,0,0,0,2.032,4.676A17.673,17.673,0,0,0,107.86,82l.771.558c.268.175.554.33.835.5s.561.35.867.488l.922.427.468.216.492.171,1,.348c.338.109.692.174,1.043.264a9.009,9.009,0,0,0,1.071.227,16.4,16.4,0,0,0,2.233.224c.38.007.764.038,1.15.025l1.166-.08c.2-.017.393-.018.588-.049l.586-.1c.391-.072.79-.123,1.182-.214a18.347,18.347,0,0,0,2.337-.734,18.548,18.548,0,0,0,2.279-1.054c.366-.212.72-.452,1.084-.678a9.144,9.144,0,0,0,1.049-.754,19.538,19.538,0,0,0,1.964-1.739l.878-1,.221-.252.2-.273.394-.547.4-.55.343-.587.344-.59.173-.3.144-.311.577-1.253q.227-.654.455-1.313a17.521,17.521,0,0,0-.177-11.12l-.5-1.3-.616-1.234-.154-.307-.182-.29-.363-.579-.362-.576-.413-.537-.411-.534-.2-.266-.229-.245-.91-.974a19.65,19.65,0,0,0-2.02-1.675,9.239,9.239,0,0,0-1.072-.72c-.371-.214-.733-.442-1.106-.642a19.2,19.2,0,0,0-4.672-1.638c-.4-.078-.8-.116-1.189-.176l-.589-.082c-.2-.024-.394-.018-.589-.029l-1.168-.042c-.387,0-.769.044-1.149.063a16.364,16.364,0,0,0-2.225.3,9.137,9.137,0,0,0-1.063.262c-.347.1-.7.177-1.034.3l-.986.38-.486.187-.461.231-.908.456c-.3.148-.569.347-.85.515s-.557.341-.819.526l-.752.582A17.684,17.684,0,0,0,103.015,59a17.007,17.007,0,0,0-1.88,4.738,9.383,9.383,0,0,0-.215.97l-.123.865c-.036.268-.08.515-.1.742s-.019.434-.027.62c-.018.365-.031.645-.04.843s-.022.287-.022.287,0-.1,0-.287.01-.479.018-.845q.007-.279.016-.622c.016-.228.058-.477.09-.746s.073-.56.113-.87a9.4,9.4,0,0,1,.206-.977,16.926,16.926,0,0,1,1.856-4.781,17.735,17.735,0,0,1,4.4-5.158l.757-.591c.264-.187.547-.354.825-.534s.553-.373.857-.524l.915-.464.465-.235.49-.191,1-.387c.337-.123.693-.2,1.044-.3a9.216,9.216,0,0,1,1.074-.268,16.56,16.56,0,0,1,2.249-.306c.384-.021.771-.065,1.161-.067l1.181.04c.2.011.4.005.6.029l.6.081c.4.059.8.1,1.2.176a19.4,19.4,0,0,1,4.731,1.649c.378.2.744.432,1.12.649a9.371,9.371,0,0,1,1.087.727A19.826,19.826,0,0,1,130.7,54.95l.922.986.232.248.208.269.417.541.418.543.367.583.368.586.184.294.156.311.625,1.25.5,1.315a17.725,17.725,0,0,1,.179,11.263l-.462,1.33-.585,1.269-.146.315-.175.3-.349.6-.348.594-.4.556-.4.553-.2.276-.224.255-.89,1.014a19.755,19.755,0,0,1-1.991,1.758,9.411,9.411,0,0,1-1.063.762c-.369.228-.727.47-1.1.684a18.728,18.728,0,0,1-2.308,1.063,18.524,18.524,0,0,1-2.367.738c-.4.092-.8.143-1.2.215l-.593.1c-.2.03-.4.031-.6.048l-1.179.078c-.391.012-.778-.021-1.163-.029a16.594,16.594,0,0,1-2.257-.233,9.122,9.122,0,0,1-1.082-.233c-.354-.092-.712-.159-1.053-.271l-1.007-.354-.5-.175-.473-.22-.93-.434c-.308-.14-.584-.334-.873-.5s-.571-.329-.841-.507l-.776-.566a17.727,17.727,0,0,1-4.568-5.013,16.915,16.915,0,0,1-2.009-4.72,9.416,9.416,0,0,1-.237-.97q-.076-.463-.141-.866c-.04-.269-.09-.515-.113-.743s-.025-.436-.036-.622c-.019-.365-.034-.646-.044-.844s-.007-.287-.007-.287" transform="translate(-56.412 -27.983)" fill="#263238"/>
            <path id="Trazado_874140" data-name="Trazado 874140" d="M136.629,46.87a20.22,20.22,0,0,1,20.7,20.142l-10.8.174c-.088-5.483-4.26-8.935-9.718-8.846Z" transform="translate(-76.612 -26.28)" fill="#6cdfd4"/>
            <path id="Trazado_874141" data-name="Trazado 874141" d="M136.622,46.87s.007.075.012.212.011.348.019.6c.014.539.033,1.312.058,2.3.043,1.992.1,4.846.179,8.352l-.087-.084a12.063,12.063,0,0,1,3.249.4,9.284,9.284,0,0,1,3.218,1.568,8.361,8.361,0,0,1,2.44,2.978,9.4,9.4,0,0,1,.922,3.986l-.112-.109,8.365-.138,2.438-.039-.112.116a22.66,22.66,0,0,0-1.1-6.391l-.547-1.458c-.2-.471-.445-.921-.662-1.374a10.626,10.626,0,0,0-.737-1.3,12.036,12.036,0,0,0-.8-1.216l-.861-1.129c-.3-.355-.627-.683-.932-1.018l-.46-.495-.5-.441-.972-.858a20.8,20.8,0,0,0-4.009-2.472l-.957-.443c-.319-.124-.637-.225-.943-.334l-.892-.311c-.291-.092-.582-.146-.859-.218l-.8-.194-.379-.092c-.125-.023-.25-.036-.37-.054l-1.323-.186a8.211,8.211,0,0,0-1.054-.083l-.776-.039-.484-.026a1.658,1.658,0,0,1-.171-.014,1.128,1.128,0,0,1,.156,0l.476.005.786.013a7.656,7.656,0,0,1,1.075.062l1.332.167c.122.017.247.028.373.05l.382.088.81.186c.279.069.573.121.866.211l.9.3c.308.107.629.207.952.329l.968.439a20.77,20.77,0,0,1,4.058,2.469l.986.862.5.443.467.5c.309.337.639.667.945,1.025l.874,1.138a12.152,12.152,0,0,1,.813,1.226,10.754,10.754,0,0,1,.748,1.308c.221.458.465.912.672,1.388l.556,1.473a22.791,22.791,0,0,1,1.12,6.459l0,.114-.116,0-2.438.04-8.365.131-.111,0,0-.111a9.2,9.2,0,0,0-.893-3.9,8.179,8.179,0,0,0-2.371-2.911A9.124,9.124,0,0,0,140,58.833a11.935,11.935,0,0,0-3.2-.409h-.086v-.083c-.037-3.527-.068-6.4-.089-8.405-.006-.979-.011-1.746-.015-2.281v-.59a1.518,1.518,0,0,1,.006-.2" transform="translate(-76.605 -26.28)" fill="#263238"/>
            <rect id="Rectángulo_401803" data-name="Rectángulo 401803" width="114.39" height="11.026" transform="translate(35.999 0.115)" fill="#e0e0e0"/>
            <path id="Trazado_874142" data-name="Trazado 874142" d="M260.492,55.646H228.343a.686.686,0,0,1,0-1.372h32.149a.686.686,0,1,1,0,1.372" transform="translate(-127.654 -30.433)" fill="#263238"/>
            <path id="Trazado_874143" data-name="Trazado 874143" d="M260.492,63.947H228.343a.686.686,0,0,1,0-1.372h32.149a.686.686,0,1,1,0,1.372" transform="translate(-127.654 -35.088)" fill="#263238"/>
            <path id="Trazado_874144" data-name="Trazado 874144" d="M242.953,72.248H228.343a.686.686,0,0,1,0-1.372h14.611a.686.686,0,1,1,0,1.372" transform="translate(-127.654 -39.742)" fill="#263238"/>
            <path id="Trazado_874145" data-name="Trazado 874145" d="M250.429,114.9H223.324a8.162,8.162,0,0,1-8.163-8.162v-2.709a8.162,8.162,0,0,1,8.163-8.162h27.105a8.162,8.162,0,0,1,8.162,8.162v2.709a8.162,8.162,0,0,1-8.162,8.162" transform="translate(-120.647 -53.755)" fill="#ebebeb"/>
            <path id="Trazado_874146" data-name="Trazado 874146" d="M253.79,156.615h-35.9a3.762,3.762,0,0,1,0-7.525h35.9a3.762,3.762,0,1,1,0,7.525" transform="translate(-120.065 -83.599)" fill="#ebebeb"/>
            <path id="Trazado_874147" data-name="Trazado 874147" d="M260.008,109.04H227.859a.686.686,0,0,1,0-1.372h32.149a.686.686,0,1,1,0,1.372" transform="translate(-127.383 -60.373)" fill="#263238"/>
            <path id="Trazado_874148" data-name="Trazado 874148" d="M256.892,157.653H224.743a.686.686,0,0,1,0-1.372h32.149a.686.686,0,1,1,0,1.372" transform="translate(-125.635 -87.631)" fill="#263238"/>
            <path id="Trazado_874149" data-name="Trazado 874149" d="M260.008,117.341H227.859a.686.686,0,0,1,0-1.372h32.149a.686.686,0,1,1,0,1.372" transform="translate(-127.383 -65.027)" fill="#263238"/>
            <path id="Trazado_874150" data-name="Trazado 874150" d="M242.469,125.642H227.859a.686.686,0,0,1,0-1.372h14.611a.686.686,0,1,1,0,1.372" transform="translate(-127.383 -69.682)" fill="#263238"/>
            <path id="Trazado_874151" data-name="Trazado 874151" d="M192.465,51.97a3.044,3.044,0,0,1-.6.044l-1.639.036c-1.384.021-3.3.033-5.407.033l-2.462-.006.076-.032c-1.074,1.063-2,1.97-2.664,2.606l-.781.738a1.587,1.587,0,0,1-.3.247,1.587,1.587,0,0,1,.247-.3l.738-.781c.636-.663,1.543-1.59,2.606-2.664l.031-.032h.045l2.462-.006c2.112,0,4.023.013,5.407.033l1.639.036a3.044,3.044,0,0,1,.6.044" transform="translate(-100.196 -29.077)" fill="#263238"/>
            <path id="Trazado_874152" data-name="Trazado 874152" d="M208.721,51.029a.913.913,0,1,1-.913-.913.913.913,0,0,1,.913.913" transform="translate(-116.012 -28.102)" fill="#263238"/>
            <path id="Trazado_874153" data-name="Trazado 874153" d="M208.721,113.546a.913.913,0,1,1-.913-.913.913.913,0,0,1,.913.913" transform="translate(-116.012 -63.157)" fill="#263238"/>
            <path id="Trazado_874154" data-name="Trazado 874154" d="M194.229,114.885a10.307,10.307,0,0,1-1.534.069c-.947.014-2.256.018-3.7.011l-3.7-.036-1.121-.023a3.09,3.09,0,0,1-.412-.021,6.44,6.44,0,0,1,1.532-.118c.947-.026,2.257-.036,3.7-.031s2.754.028,3.7.056a10.128,10.128,0,0,1,1.533.093" transform="translate(-103.04 -64.335)" fill="#263238"/>
            <rect id="Rectángulo_401804" data-name="Rectángulo 401804" width="2.994" height="2.994" transform="translate(49.919 70.625)" fill="#455a64"/>
            <rect id="Rectángulo_401805" data-name="Rectángulo 401805" width="2.994" height="2.994" transform="translate(59.965 70.625)" fill="#e0e0e0"/>
            <rect id="Rectángulo_401806" data-name="Rectángulo 401806" width="2.994" height="2.994" transform="translate(70.867 70.625)" fill="#6cdfd4"/>
            <path id="Trazado_874155" data-name="Trazado 874155" d="M95.785,10.783a1.525,1.525,0,1,1-1.523-1.589,1.558,1.558,0,0,1,1.523,1.589" transform="translate(-52.001 -5.155)" fill="#fff"/>
            <path id="Trazado_874156" data-name="Trazado 874156" d="M107.477,10.783a1.525,1.525,0,1,1-1.523-1.589,1.558,1.558,0,0,1,1.523,1.589" transform="translate(-58.557 -5.155)" fill="#fff"/>
            <path id="Trazado_874157" data-name="Trazado 874157" d="M119.169,10.783a1.525,1.525,0,1,1-1.523-1.589,1.558,1.558,0,0,1,1.523,1.589" transform="translate(-65.113 -5.155)" fill="#fff"/>
            <path id="Trazado_874158" data-name="Trazado 874158" d="M196.2,82.665c0-.766-.036-32.48-.093-82.551l.093.093L81.814.229H81.8l.114-.115c0,29.589-.007,57.651-.011,82.551l-.1-.1,114.39.1-114.39.1h-.1v-.1c0-24.9-.007-52.962-.011-82.551V0h.124L196.2.022h.093V.114c-.057,50.071-.092,81.786-.093,82.551" transform="translate(-45.806)" fill="#263238"/>
          </g>
        </g>
        <rect id="Rectángulo_401808" data-name="Rectángulo 401808" width="81.479" height="60.909" transform="translate(116.021 54.513)" fill="#fff"/>
        <rect id="Rectángulo_401809" data-name="Rectángulo 401809" width="81.479" height="7.529" transform="translate(115.764 54.513)" fill="#e0e0e0"/>
        <g id="Grupo_1100986" data-name="Grupo 1100986">
          <g id="Grupo_1100985" data-name="Grupo 1100985" clip-path="url(#clip-path)">
            <path id="Trazado_874159" data-name="Trazado 874159" d="M273.391,131.283a1.085,1.085,0,1,1-1.085-1.085,1.085,1.085,0,0,1,1.085,1.085" transform="translate(-152.082 -73.006)" fill="#fff"/>
            <path id="Trazado_874160" data-name="Trazado 874160" d="M281.719,131.283a1.085,1.085,0,1,1-1.085-1.085,1.085,1.085,0,0,1,1.085,1.085" transform="translate(-156.751 -73.006)" fill="#fff"/>
            <path id="Trazado_874161" data-name="Trazado 874161" d="M290.047,131.283a1.085,1.085,0,1,1-1.085-1.085,1.085,1.085,0,0,1,1.085,1.085" transform="translate(-161.421 -73.006)" fill="#fff"/>
            <path id="Trazado_874162" data-name="Trazado 874162" d="M344.87,184.861s-.007-.382-.01-1.114-.006-1.819-.011-3.235c-.005-2.835-.014-6.993-.024-12.3-.012-10.613-.029-25.829-.049-44.255l.094.094-81.473.021h-.007l.114-.115c0,21.89-.008,42.625-.011,60.909l-.1-.1,58.812.051,16.7.028,4.431.012,1.142.006c.257,0,.391.006.391.006s-.126,0-.379.006l-1.13.006-4.41.012-16.68.028-58.88.051h-.1v-.1c0-18.284-.007-39.019-.011-60.909v-.114h.121l81.473.021h.094v.094c-.02,18.451-.037,33.687-.049,44.314-.01,5.3-.018,9.453-.024,12.283,0,1.408-.008,2.487-.011,3.217s-.01,1.095-.01,1.095" transform="translate(-147.627 -69.44)" fill="#263238"/>
            <path id="Trazado_874163" data-name="Trazado 874163" d="M346.352,207.516c0,.063-16.215.114-36.213.114s-36.216-.051-36.216-.114,16.212-.114,36.216-.114,36.213.051,36.213.114" transform="translate(-153.597 -116.296)" fill="#e0e0e0"/>
            <path id="Trazado_874164" data-name="Trazado 874164" d="M346.352,193.281c0,.063-16.215.114-36.213.114s-36.216-.051-36.216-.114,16.212-.114,36.216-.114,36.213.051,36.213.114" transform="translate(-153.597 -108.314)" fill="#e0e0e0"/>
            <path id="Trazado_874165" data-name="Trazado 874165" d="M346.352,179.047c0,.063-16.215.114-36.213.114s-36.216-.051-36.216-.114,16.212-.114,36.216-.114,36.213.051,36.213.114" transform="translate(-153.597 -100.333)" fill="#e0e0e0"/>
            <path id="Trazado_874166" data-name="Trazado 874166" d="M346.352,164.812c0,.063-16.215.114-36.213.114s-36.216-.051-36.216-.114,16.212-.114,36.216-.114,36.213.051,36.213.114" transform="translate(-153.597 -92.351)" fill="#e0e0e0"/>
            <rect id="Rectángulo_401810" data-name="Rectángulo 401810" width="6.025" height="12.118" transform="translate(126.456 88.386)" fill="#6cdfd4"/>
            <rect id="Rectángulo_401811" data-name="Rectángulo 401811" width="6.025" height="12.118" transform="translate(148.082 88.386)" fill="#455a64"/>
            <rect id="Rectángulo_401812" data-name="Rectángulo 401812" width="6.025" height="7.987" transform="translate(180.887 92.517)" fill="#455a64"/>
            <rect id="Rectángulo_401813" data-name="Rectángulo 401813" width="6.025" height="17.857" transform="translate(169.709 82.647)" fill="#e0e0e0"/>
            <rect id="Rectángulo_401814" data-name="Rectángulo 401814" width="6.025" height="24.809" transform="translate(158.653 75.695)" fill="#6cdfd4"/>
            <rect id="Rectángulo_401815" data-name="Rectángulo 401815" width="6.025" height="17.857" transform="translate(136.838 82.647)" fill="#e0e0e0"/>
            <path id="Trazado_874167" data-name="Trazado 874167" d="M345.222,187.011s-.091.008-.27.012l-.791.011-3.042.022-11.187.036-36.909.033-19.468-.008h-.107v-.106c.017-9.6.031-17.779.041-23.57.013-2.885.023-5.174.03-6.751.007-.777.013-1.379.017-1.8,0-.2.007-.351.009-.462s.009-.156.009-.156.006.053.009.156,0,.264.009.462c0,.416.009,1.018.017,1.8.007,1.577.017,3.866.03,6.751.01,5.791.025,13.972.041,23.57l-.106-.106,19.468-.008,36.909.033,11.187.036,3.042.021.791.011c.178,0,.27.012.27.012" transform="translate(-153.33 -86.507)" fill="#263238"/>
            <rect id="Rectángulo_401816" data-name="Rectángulo 401816" width="2.647" height="2.647" transform="translate(132.889 106.651)" fill="#6cdfd4"/>
            <rect id="Rectángulo_401817" data-name="Rectángulo 401817" width="2.647" height="2.647" transform="translate(149.073 106.567)" fill="#e0e0e0"/>
            <rect id="Rectángulo_401818" data-name="Rectángulo 401818" width="2.647" height="2.647" transform="translate(166.58 106.651)" fill="#455a64"/>
            <path id="Trazado_874168" data-name="Trazado 874168" d="M319.308,245.468a56.961,56.961,0,0,1-7.211,0,56.969,56.969,0,0,1,7.211,0" transform="translate(-175.002 -137.577)" fill="#263238"/>
            <path id="Trazado_874169" data-name="Trazado 874169" d="M355.869,245.468a56.961,56.961,0,0,1-7.211,0,56.969,56.969,0,0,1,7.211,0" transform="translate(-195.503 -137.577)" fill="#263238"/>
            <path id="Trazado_874170" data-name="Trazado 874170" d="M394.794,245.468a56.961,56.961,0,0,1-7.211,0,56.969,56.969,0,0,1,7.211,0" transform="translate(-217.329 -137.577)" fill="#263238"/>
          </g>
        </g>
        <rect id="Rectángulo_401820" data-name="Rectángulo 401820" width="28.154" height="28.154" transform="translate(158.089 35.479)" fill="#fff"/>
        <g id="Grupo_1100988" data-name="Grupo 1100988">
          <g id="Grupo_1100987" data-name="Grupo 1100987" clip-path="url(#clip-path)">
            <path id="Trazado_874171" data-name="Trazado 874171" d="M387.9,108.777s0-.048-.006-.136,0-.224-.005-.392c0-.351-.007-.858-.012-1.517-.006-1.331-.014-3.269-.026-5.731-.012-4.927-.029-11.953-.05-20.378l.1.1-28.151.015h0l.115-.114c-.006,10.309-.011,19.969-.015,28.154l-.1-.1,20.379.051,5.731.025,1.516.012.392.005c.088,0,.136.006.136.006a.975.975,0,0,1-.125.006l-.381.005-1.5.012-5.708.025-20.442.051h-.1v-.1c0-8.184-.01-17.845-.015-28.154v-.115h.117l28.151.015h.1v.1c-.021,8.451-.038,15.5-.051,20.441-.011,2.453-.02,4.383-.026,5.709,0,.651-.009,1.151-.011,1.5,0,.163,0,.289-.005.381a1.1,1.1,0,0,1-.006.125" transform="translate(-201.656 -45.144)" fill="#263238"/>
            <path id="Trazado_874172" data-name="Trazado 874172" d="M383.654,101.74a4.538,4.538,0,0,0,2.7-4.2,4.265,4.265,0,1,0-8.512-.04,4.53,4.53,0,0,0,2.712,4.238c-6.549.987-6.252,8.1-6.252,8.1l15.487.071s.353-7.2-6.139-8.176" transform="translate(-209.883 -52.138)" fill="#6cdfd4"/>
          </g>
        </g>
        <g id="Grupo_1100996" data-name="Grupo 1100996">
          <g id="Grupo_1100995" data-name="Grupo 1100995" clip-path="url(#clip-path)">
            <path id="Trazado_874173" data-name="Trazado 874173" d="M515.522,73.8a1.1,1.1,0,0,0-.752-.325,3.987,3.987,0,0,0-2.339.452,3.417,3.417,0,0,0,.473-4.09,3.859,3.859,0,0,0-3.816-1.729,4.442,4.442,0,0,0-3.321,2.657,5.241,5.241,0,0,0,.188,4.3l2.441.64a6.839,6.839,0,0,0,3.841,1.181,2.012,2.012,0,0,0,1.513-.5c.369-.4.307-1.2-.214-1.362a2.538,2.538,0,0,0,1.521.021c.475-.2.789-.849.465-1.251" transform="translate(-283.388 -38.169)" fill="#263238"/>
            <path id="Trazado_874174" data-name="Trazado 874174" d="M473.035,72.687a5.96,5.96,0,0,0-4.591.474,3.544,3.544,0,0,0-6.116.936,3,3,0,0,0-3.011,5.109,3.851,3.851,0,0,0-1.611,5.858c-1.154.56-1.352,2.122-1.181,3.393s.536,2.633-.034,3.782c-.44.887-1.348,1.436-1.969,2.208s-.838,2.1,0,2.624a2.679,2.679,0,1,0,.969,5.264,3.284,3.284,0,0,0,.349,3.15,5.291,5.291,0,0,0,2.634,1.92,7.872,7.872,0,0,0,8.6-2.425l9.479-29.31a5.961,5.961,0,0,0-3.522-2.983" transform="translate(-253.567 -40.258)" fill="#263238"/>
            <path id="Trazado_874175" data-name="Trazado 874175" d="M488.821,87.181l.126-1.581-9.4-2.381c-2.913-.487-6.26,2.261-6.623,5.193a52.475,52.475,0,0,0-.525,9.711c.484,4.952,4.206,5.8,4.206,5.8l-.272,4.87,10.839.789Z" transform="translate(-264.844 -46.632)" fill="#ae7461"/>
            <path id="Trazado_874176" data-name="Trazado 874176" d="M476.306,104.308a.63.63,0,0,0,.568.671.6.6,0,0,0,.683-.528.631.631,0,0,0-.568-.672.6.6,0,0,0-.684.528" transform="translate(-267.077 -58.19)" fill="#263238"/>
            <path id="Trazado_874177" data-name="Trazado 874177" d="M475.758,99.244c.073.087.571-.237,1.247-.2s1.153.411,1.231.333c.039-.034-.032-.187-.239-.358a1.727,1.727,0,0,0-.979-.367,1.659,1.659,0,0,0-1,.257c-.218.147-.3.291-.261.33" transform="translate(-266.767 -55.318)" fill="#263238"/>
            <path id="Trazado_874178" data-name="Trazado 874178" d="M490.295,105.066a.631.631,0,0,0,.568.671.6.6,0,0,0,.683-.528.631.631,0,0,0-.568-.672.6.6,0,0,0-.683.528" transform="translate(-274.921 -58.615)" fill="#263238"/>
            <path id="Trazado_874179" data-name="Trazado 874179" d="M490.887,100.443c.073.087.572-.237,1.248-.2s1.153.411,1.231.333c.038-.035-.032-.187-.239-.358a1.724,1.724,0,0,0-.979-.368,1.659,1.659,0,0,0-1,.257c-.217.147-.3.291-.261.33" transform="translate(-275.25 -55.991)" fill="#263238"/>
            <path id="Trazado_874180" data-name="Trazado 874180" d="M482.454,105.112a4.5,4.5,0,0,0-1.088-.264c-.172-.028-.333-.072-.355-.192a.885.885,0,0,1,.146-.506l.59-1.285a22.638,22.638,0,0,0,1.355-3.374,22.642,22.642,0,0,0-1.624,3.257l-.569,1.295a1,1,0,0,0-.13.673.434.434,0,0,0,.269.27,1.166,1.166,0,0,0,.291.058,4.419,4.419,0,0,0,1.114.069" transform="translate(-269.575 -55.787)" fill="#263238"/>
            <path id="Trazado_874181" data-name="Trazado 874181" d="M481.984,128.727a13.014,13.014,0,0,0,6.842-1.357s-1.863,3.334-6.913,2.58Z" transform="translate(-270.223 -71.42)" fill="#6f4439"/>
            <path id="Trazado_874182" data-name="Trazado 874182" d="M491.25,95.229c.067.184.744.1,1.54.193.8.08,1.439.313,1.544.148.047-.079-.065-.253-.324-.431a2.7,2.7,0,0,0-2.35-.259c-.292.118-.439.263-.41.35" transform="translate(-275.456 -53.113)" fill="#263238"/>
            <path id="Trazado_874183" data-name="Trazado 874183" d="M476.124,95.385c.108.162.586.034,1.147.065.562.011,1.028.175,1.148.022.053-.075-.011-.234-.208-.394a1.664,1.664,0,0,0-1.849-.07c-.209.145-.285.3-.238.377" transform="translate(-266.969 -53.135)" fill="#263238"/>
            <path id="Trazado_874184" data-name="Trazado 874184" d="M471.6,83.156a8.231,8.231,0,0,1,4.478-2.956l7.942,1,.676-.012c.149-.5.993-.763.993-.763.746-.572,3.331-.6,5.133,1.28a6.133,6.133,0,0,1,1.127,3.328c.006.356-.376.843-.078,1.039a9.1,9.1,0,0,0,1.084.076c2.02.443,3.282,2.234,2.916,4.911a1.362,1.362,0,0,0-.043.4,1.1,1.1,0,0,0,.354.526,3.506,3.506,0,0,1,.557,3.9,4.149,4.149,0,0,0-.54,1.171c-.123.763.435,1.445.868,2.086,1.3,1.924,1.574,4.719.053,6.47a3.659,3.659,0,0,0-.985,1.352,3.24,3.24,0,0,0-.043.823c.01,1.4-.727,2.961-2.093,3.255-.759.164-1.679-.05-2.219.507a3.282,3.282,0,0,0-.484.885,2.835,2.835,0,0,1-3.266,1.406c-1.232-.38-1.641-5.38-1.462-6.657-1.493-.542-2.6-.638-2.528-2.225a13.97,13.97,0,0,0-.211-4.061c-.442-1.33.445-4.16.95-5.535s-.1-4.575-.232-5.848a4.636,4.636,0,0,1,.105-1.089v0c.055-.309.127-.658.213-1.031.031-.347.318-2.2.313-2.53-.019-1.2-1.513-.56-2.653-.177a2.909,2.909,0,0,1-.855.154,3.043,3.043,0,0,1-2.452-1.162,4.382,4.382,0,0,1-4.328,1.183,11.934,11.934,0,0,1-2.053,2.388,4.021,4.021,0,0,1-2.908,1,8.233,8.233,0,0,1,1.674-5.1" transform="translate(-263.499 -44.903)" fill="#263238"/>
            <path id="Trazado_874185" data-name="Trazado 874185" d="M485.658,115.387a1.2,1.2,0,0,1,1.05-.5,1.093,1.093,0,0,1,.774.367.692.692,0,0,1,.092.788.8.8,0,0,1-.859.264,2.52,2.52,0,0,1-.874-.464.737.737,0,0,1-.2-.187.222.222,0,0,1-.011-.247" transform="translate(-272.289 -64.42)" fill="#6f4439"/>
            <path id="Trazado_874186" data-name="Trazado 874186" d="M486.824,113.238c-.108,0-.073.72-.665,1.262s-1.362.5-1.363.6c-.008.046.178.131.5.124a1.8,1.8,0,0,0,1.139-.462,1.565,1.565,0,0,0,.511-1.056c.012-.3-.077-.477-.126-.47" transform="translate(-271.84 -63.496)" fill="#263238"/>
            <path id="Trazado_874187" data-name="Trazado 874187" d="M443.158,406.77l.893,9.308s-10.145,3.79-10.255,5.665l19.18.052-.011-1.4-.8-4.788-1.186-9.3Z" transform="translate(-243.242 -227.826)" fill="#455a64"/>
            <path id="Trazado_874188" data-name="Trazado 874188" d="M469.065,425.224a.8.8,0,0,1,.557.913.77.77,0,0,1-.9.56.845.845,0,0,1-.584-.97.8.8,0,0,1,1-.478" transform="translate(-262.482 -238.417)" fill="#e0e0e0"/>
            <path id="Trazado_874189" data-name="Trazado 874189" d="M452.966,439.78l-.011-1.4-18.4.353s-.873.383-.773,1Z" transform="translate(-243.232 -245.811)" fill="#263238"/>
            <path id="Trazado_874190" data-name="Trazado 874190" d="M456.417,428.215c0,.1.483.138.955.445s.725.709.813.671c.088-.019-.056-.592-.634-.953s-1.154-.251-1.133-.163" transform="translate(-255.926 -240.063)" fill="#263238"/>
            <path id="Trazado_874191" data-name="Trazado 874191" d="M451.735,430.229c-.022.093.394.255.72.659s.422.833.517.828c.09.015.155-.546-.26-1.042s-.975-.538-.977-.446" transform="translate(-253.301 -241.22)" fill="#263238"/>
            <path id="Trazado_874192" data-name="Trazado 874192" d="M448.1,433.786c.087.02.219-.459-.028-.983s-.7-.732-.737-.652.238.36.434.793.235.833.33.842" transform="translate(-250.832 -242.31)" fill="#263238"/>
            <path id="Trazado_874193" data-name="Trazado 874193" d="M454.865,422.791c.04.087.48-.046,1.022-.011s.965.205,1.014.123-.357-.423-1-.456-1.087.268-1.04.344" transform="translate(-255.054 -236.877)" fill="#263238"/>
            <path id="Trazado_874194" data-name="Trazado 874194" d="M496.909,407.439l.822,9.149s-9.989,3.662-10.109,5.5l18.843.167,0-1.378-.761-4.709-1.109-9.144Z" transform="translate(-273.424 -228.233)" fill="#455a64"/>
            <path id="Trazado_874195" data-name="Trazado 874195" d="M522.363,425.6a.787.787,0,0,1,.541.9.757.757,0,0,1-.888.544.831.831,0,0,1-.568-.957.786.786,0,0,1,.987-.464" transform="translate(-292.375 -238.627)" fill="#e0e0e0"/>
            <path id="Trazado_874196" data-name="Trazado 874196" d="M506.456,439.943l0-1.378-18.075.235s-.86.371-.765.976Z" transform="translate(-273.415 -245.916)" fill="#263238"/>
            <path id="Trazado_874197" data-name="Trazado 874197" d="M509.924,428.457c0,.094.474.138.936.443s.707.7.794.664c.087-.018-.051-.581-.618-.94s-1.132-.253-1.112-.167" transform="translate(-285.929 -240.2)" fill="#263238"/>
            <path id="Trazado_874198" data-name="Trazado 874198" d="M505.313,430.407c-.022.091.385.253.7.652s.409.821.5.817c.088.015.156-.536-.25-1.025s-.955-.534-.957-.444" transform="translate(-283.343 -241.321)" fill="#263238"/>
            <path id="Trazado_874199" data-name="Trazado 874199" d="M501.724,433.879c.085.02.218-.449-.022-.966s-.68-.724-.72-.645.232.355.422.782.226.82.319.829" transform="translate(-280.912 -242.376)" fill="#263238"/>
            <path id="Trazado_874200" data-name="Trazado 874200" d="M508.43,423.124c.039.086.472-.043,1,0s.946.208,1,.127-.348-.418-.976-.454-1.07.257-1.024.331" transform="translate(-285.09 -237.07)" fill="#263238"/>
            <path id="Trazado_874201" data-name="Trazado 874201" d="M448.054,223.091s-4.546,13.167-4.7,22.962a314.062,314.062,0,0,0,1.724,42.551c2.038,17.181,2.979,24.086,2.979,24.086H458.4a202.6,202.6,0,0,0,.94-20.393c-.156-9.634-.91-12.685.015-23.283s2.39-16.963,3.931-20.174a22.115,22.115,0,0,0,4.584-12.041,33.962,33.962,0,0,0-2.151-12.949Z" transform="translate(-248.553 -125.094)" fill="#263238"/>
            <path id="Trazado_874202" data-name="Trazado 874202" d="M475.1,242.328c.172.529,3.242,22.116,5.482,31.637s4.732,12.041,5.169,19.786a143.232,143.232,0,0,0,2.948,19.7h11.017s-1.549-16.466-3.1-29.338-3.787-28.741-3.443-33.5,1.2-10.64,0-17.31-3.81-8.429-3.81-8.429l-9.347-.423Z" transform="translate(-266.4 -125.858)" fill="#263238"/>
            <path id="Trazado_874203" data-name="Trazado 874203" d="M488.982,237.036a2.285,2.285,0,0,1,.171.335,6.639,6.639,0,0,1,.374,1.013,13.423,13.423,0,0,1,.363,3.946,26.03,26.03,0,0,1-.906,5.809,18.672,18.672,0,0,1-1.2,3.268,23.277,23.277,0,0,1-1.991,3.159,19.173,19.173,0,0,0-2.8,6.535,46.564,46.564,0,0,0-1.045,5.76c-.2,1.657-.326,3-.417,3.934q-.067.673-.108,1.071a2.283,2.283,0,0,1-.053.372,2.308,2.308,0,0,1,.007-.376q.024-.4.065-1.074c.064-.933.161-2.282.344-3.945a44.293,44.293,0,0,1,1-5.794,28.181,28.181,0,0,1,1.042-3.319,16.416,16.416,0,0,1,.769-1.679,17.457,17.457,0,0,1,1-1.614,23.384,23.384,0,0,0,1.978-3.128,18.684,18.684,0,0,0,1.2-3.225,26.675,26.675,0,0,0,.948-5.759,14.031,14.031,0,0,0-.287-3.917,7.864,7.864,0,0,0-.33-1.017,2.337,2.337,0,0,1-.128-.354" transform="translate(-269.917 -132.913)" fill="#455a64"/>
            <path id="Trazado_874204" data-name="Trazado 874204" d="M394.545,148.387a31.328,31.328,0,0,0,5.331,2.2l3.847-3.074s-2.752-5.029-3.638-6.454a7.616,7.616,0,0,1-.717-1.521c-.3-1.07-1.083-.615-1.228.228a4.587,4.587,0,0,0,.239,1.357,3.977,3.977,0,0,1,.268,1.631s-.28-.239-.972-.7c-.753-.507-3.3-2.629-4.374-3.518-1.606-1.328-2.416-.5-2.206.008.26.638,4.249,3.431,4.106,3.909,0,0-.768.436-.876.933a2.522,2.522,0,0,0,.007.989s-.72.07-.912.532a1.8,1.8,0,0,0,.054,1.113s-.667.062-.744.425.385,1.092,1.814,1.947" transform="translate(-219.28 -77.275)" fill="#ae7461"/>
            <path id="Trazado_874205" data-name="Trazado 874205" d="M411.163,145.168c.058.174,8.248,8.559,8.248,8.559s6.835-7.7,8.915-10.532,5.237-6.306,7.953-6.956,6.492,1.1,6.492,1.1l-4.812,9.894-6.075,8.352s-6.564,8.245-9.685,9.516-6.179-.554-7.508-1.942-9.216-13.374-9.216-13.374Z" transform="translate(-227.362 -76.313)" fill="#6cdfd4"/>
            <path id="Trazado_874206" data-name="Trazado 874206" d="M483.718,139.691l-18.847-3.266a73.784,73.784,0,0,0-7.191,18.894c-1.958,9.681-4.189,19.353-4.189,19.353l17.409,2.145a20.064,20.064,0,0,0,5.453-.075l1.814-.274-1.491-6.147a124.392,124.392,0,0,0,5.382-15.9c2.34-9.511,1.66-14.725,1.66-14.725" transform="translate(-254.286 -76.498)" fill="#6cdfd4"/>
            <path id="Trazado_874207" data-name="Trazado 874207" d="M467.781,164.816a2.207,2.207,0,0,1-.306.412l-.884,1.08c-.747.911-1.758,2.185-2.879,3.593s-2.155,2.668-2.935,3.555c-.389.444-.711.8-.941,1.034a2.215,2.215,0,0,1-.374.353,2.189,2.189,0,0,1,.306-.412l.884-1.08c.747-.911,1.759-2.185,2.879-3.593s2.155-2.668,2.935-3.554c.389-.444.711-.8.941-1.034a2.2,2.2,0,0,1,.373-.353" transform="translate(-257.633 -92.417)" fill="#263238"/>
            <path id="Trazado_874208" data-name="Trazado 874208" d="M495.023,214.217a5.091,5.091,0,0,1-1.182.34,17.527,17.527,0,0,1-5.915.228,5.118,5.118,0,0,1-1.2-.248,9.094,9.094,0,0,1,1.222.087,23.684,23.684,0,0,0,5.867-.226,9.123,9.123,0,0,1,1.212-.181" transform="translate(-272.919 -120.114)" fill="#263238"/>
            <path id="Trazado_874209" data-name="Trazado 874209" d="M436.673,181.51a24.949,24.949,0,0,1,.068-4.773,24.947,24.947,0,0,1-.068,4.773" transform="translate(-244.808 -99.102)" fill="#263238"/>
            <g id="Grupo_1100991" data-name="Grupo 1100991" transform="translate(216.914 64.282)" opacity="0.3">
              <g id="Grupo_1100990" data-name="Grupo 1100990">
                <g id="Grupo_1100989" data-name="Grupo 1100989" clip-path="url(#clip-path-23)">
                  <path id="Trazado_874210" data-name="Trazado 874210" d="M505.716,147.387l-11.776-1.05a1.965,1.965,0,0,0,1.247,2.566,3.812,3.812,0,0,0,3.025,5.685,3.524,3.524,0,0,1,.939.117c.653.235.965.952,1.357,1.524a3.565,3.565,0,0,0,2.2,1.523,2.6,2.6,0,0,0,2.477-.822,4.315,4.315,0,0,0,.718-2.579,45.963,45.963,0,0,0-.183-6.964" transform="translate(-493.804 -146.337)"/>
                </g>
              </g>
            </g>
            <g id="Grupo_1100994" data-name="Grupo 1100994" transform="translate(202.682 73.084)" opacity="0.3">
              <g id="Grupo_1100993" data-name="Grupo 1100993">
                <g id="Grupo_1100992" data-name="Grupo 1100992" clip-path="url(#clip-path-24)">
                  <path id="Trazado_874211" data-name="Trazado 874211" d="M461.406,174.882a8.317,8.317,0,0,0,6.658-8.506c-2.465,2.673-4.544,6.1-6.658,8.506" transform="translate(-461.406 -166.376)"/>
                </g>
              </g>
            </g>
            <path id="Trazado_874212" data-name="Trazado 874212" d="M508.139,117.928,498.09,106.744c.368,2.838-.7,5.662-1.987,8.219-.731,1.455-1.548,3.186-.779,4.623a9.537,9.537,0,0,0-1.66,2.267,3.221,3.221,0,0,0-.108,2.726,1.972,1.972,0,0,0,2.34,1.061,3.065,3.065,0,0,0,4.228,3.8A4.861,4.861,0,0,0,502,132.371a3.225,3.225,0,0,0,3.366.22,2.432,2.432,0,0,0,.992-3.071c2.211-.489,3.592-2.872,3.658-5.136a14.129,14.129,0,0,0-1.88-6.456" transform="translate(-276.608 -59.855)" fill="#263238"/>
            <path id="Trazado_874213" data-name="Trazado 874213" d="M476.653,81.925c0,.007-.054.03-.166.066a1.4,1.4,0,0,1-.512.036,2.032,2.032,0,0,1-1.521-1.047,1.965,1.965,0,0,1-.21-1.3,2.632,2.632,0,0,1,.691-1.34,2.861,2.861,0,0,1,1.443-.828,3.877,3.877,0,0,1,1.781.018,5.006,5.006,0,0,1,.979.348l-.155.06a4.116,4.116,0,0,1,2.1-2.169,3.967,3.967,0,0,1,3.918.4,2.681,2.681,0,0,1,.337.283c.071.072.1.111.1.116s-.167-.128-.484-.331a4.148,4.148,0,0,0-1.474-.577,3.8,3.8,0,0,0-2.313.287,3.958,3.958,0,0,0-1.978,2.07l-.045.112-.109-.052a4.824,4.824,0,0,0-.933-.329,3.692,3.692,0,0,0-1.677-.023,2.669,2.669,0,0,0-1.342.756,2.463,2.463,0,0,0-.656,1.229A1.809,1.809,0,0,0,474.6,80.9a1.975,1.975,0,0,0,1.39,1.035,2.341,2.341,0,0,0,.666-.014" transform="translate(-265.906 -42.295)" fill="#455a64"/>
            <path id="Trazado_874214" data-name="Trazado 874214" d="M515.673,91.552c-.018-.009.084-.207.192-.593a3.976,3.976,0,0,0,.089-1.678,3.623,3.623,0,0,0-1.177-2.167,3.814,3.814,0,0,0-2.878-.937l-.168.018.047-.163A4.516,4.516,0,0,0,511.951,85a4.685,4.685,0,0,0-1.091-3.24,4.5,4.5,0,0,0-2.417-1.446,4.845,4.845,0,0,0-1.932-.06c-.454.082-.7.176-.7.155a.591.591,0,0,1,.17-.082,3.366,3.366,0,0,1,.516-.16,4.714,4.714,0,0,1,4.527,1.456,4.844,4.844,0,0,1,1.16,3.388A4.717,4.717,0,0,1,512,86.1l-.121-.145a3.981,3.981,0,0,1,3.037,1.012,3.731,3.731,0,0,1,1.193,2.3,3.811,3.811,0,0,1-.16,1.725,2.63,2.63,0,0,1-.184.431c-.051.094-.081.141-.087.137" transform="translate(-283.621 -44.888)" fill="#455a64"/>
            <path id="Trazado_874215" data-name="Trazado 874215" d="M491.248,83.863c-.006.01-.116-.03-.281-.161a1.96,1.96,0,0,1-.537-.7,2.3,2.3,0,0,1-.181-1.306,2.451,2.451,0,0,1,.788-1.409,2.785,2.785,0,0,1,1.456-.693,3.2,3.2,0,0,1,2.116.435c.176.11.26.189.252.2a8.4,8.4,0,0,0-1.1-.394,3.225,3.225,0,0,0-1.237-.034,2.678,2.678,0,0,0-1.336.655,2.315,2.315,0,0,0-.734,1.275,2.236,2.236,0,0,0,.122,1.207,2.807,2.807,0,0,0,.669.93" transform="translate(-274.882 -44.609)" fill="#455a64"/>
            <path id="Trazado_874216" data-name="Trazado 874216" d="M504.285,134.232c0,.006-.053-.023-.14-.086a2.863,2.863,0,0,1-.357-.307,4.123,4.123,0,0,1-1.012-4.022,4.231,4.231,0,0,1,1.975-2.42,4,4,0,0,1,1.234-.451l-.063.187a3.2,3.2,0,0,1-.767-2.556A2.981,2.981,0,0,1,506.2,122.7a3.028,3.028,0,0,1,1.278-.643,2.024,2.024,0,0,1,.381-.055c.088,0,.134,0,.134.006s-.181.033-.5.127a3.186,3.186,0,0,0-1.2.677,2.87,2.87,0,0,0-.95,1.787,3.022,3.022,0,0,0,.737,2.377l.136.15-.2.037a3.818,3.818,0,0,0-1.163.428,4.071,4.071,0,0,0-1.885,2.283,3.977,3.977,0,0,0,.042,2.443,4.316,4.316,0,0,0,.834,1.456c.267.3.446.436.432.453" transform="translate(-281.829 -68.412)" fill="#455a64"/>
            <path id="Trazado_874217" data-name="Trazado 874217" d="M500.636,92.012l-.314-1.418a10.36,10.36,0,0,0-1.009,6.655c.194,1.045.542,2.166.09,3.128-.309.657-.943,1.107-1.305,1.735-.459.8-.12,2.891-.239,3.3-.268.94-1.179,1.54-1.393,2.676a2.815,2.815,0,0,0,1.078,3.05c1.921-3.168,3.886-6.459,4.338-10.136a21.307,21.307,0,0,0-1.246-8.994" transform="translate(-278.345 -50.799)" fill="#263238"/>
            <path id="Trazado_874218" data-name="Trazado 874218" d="M514.069,100.363a.432.432,0,0,1-.164.009,3.526,3.526,0,0,1-.467-.049,3.207,3.207,0,0,1-1.573-.708,2.438,2.438,0,0,1-.687-1,1.862,1.862,0,0,1,.024-1.4,1.707,1.707,0,0,1,1.186-.988,1.245,1.245,0,0,1,.846.121.792.792,0,0,1,.41.8.646.646,0,0,1-.258.415.853.853,0,0,1-.442.14,1.644,1.644,0,0,1-.819-.2,3.932,3.932,0,0,1-1.2-.949,3.887,3.887,0,0,1-.648-4.065,3.214,3.214,0,0,1,.217-.416c.059-.09.093-.134.1-.13s-.1.2-.233.579a4.076,4.076,0,0,0-.224,1.656,3.85,3.85,0,0,0,2.091,3.126,1.438,1.438,0,0,0,.706.168.467.467,0,0,0,.486-.364.565.565,0,0,0-.3-.564,1.027,1.027,0,0,0-.691-.1,1.5,1.5,0,0,0-1.036.855,1.675,1.675,0,0,0-.036,1.247,2.306,2.306,0,0,0,.617.942,3.307,3.307,0,0,0,1.483.741c.39.09.614.107.612.127" transform="translate(-285.955 -51.558)" fill="#455a64"/>
          </g>
        </g>
      </g>
    </g>
  </g>
</svg>
