<svg xmlns="http://www.w3.org/2000/svg" width="1029.5" height="500" viewBox="0 0 1029.5 500">
  <g id="img11" transform="translate(-285 -5792)">
    <rect id="Rectángulo_401679" data-name="Rectángulo 401679" width="1029.5" height="500" transform="translate(285 5792)" fill="#e3fffc"/>
    <g id="Grupo_1100865" data-name="Grupo 1100865" transform="translate(20 -63)">
      <path id="Trazado_874488" data-name="Trazado 874488" d="M6.367,16H4.358V6.291L1.395,7.3V5.607L6.109,3.873h.257ZM17.39,11.692h1.5v1.619h-1.5V16H15.373V13.311H10.152l-.058-1.229,5.213-8.168H17.39Zm-5.18,0h3.163V6.645l-.149.266Z" transform="translate(350 5925)" fill="#12263f"/>
      <path id="Trazado_874496" data-name="Trazado 874496" d="M3.329,11.518V16h-2.1V3.914H5.852A4.675,4.675,0,0,1,9.069,4.969,3.549,3.549,0,0,1,10.26,7.761a3.431,3.431,0,0,1-1.166,2.767,4.9,4.9,0,0,1-3.266.989Zm0-1.693H5.852A2.485,2.485,0,0,0,7.562,9.3a1.937,1.937,0,0,0,.589-1.523,2.09,2.09,0,0,0-.6-1.565,2.3,2.3,0,0,0-1.644-.6H3.329Zm11.837,3.287,1.826-6.093h2.15L15.572,17.361a2.9,2.9,0,0,1-2.789,2.266,3.6,3.6,0,0,1-.971-.15V17.909l.382.025a1.964,1.964,0,0,0,1.15-.278,1.842,1.842,0,0,0,.61-.933l.291-.771L11.09,7.019h2.175Zm7.662-8.276V7.019h1.585V8.513H22.827v5.014a1.1,1.1,0,0,0,.2.743.943.943,0,0,0,.726.228,3.107,3.107,0,0,0,.706-.083v1.561a4.968,4.968,0,0,1-1.328.191q-2.324,0-2.324-2.565V8.513H19.333V7.019H20.81V4.835ZM27.94,8a3.157,3.157,0,0,1,2.5-1.146q2.872,0,2.914,3.279V16H31.335V10.206a1.773,1.773,0,0,0-.4-1.316A1.646,1.646,0,0,0,29.75,8.5a1.943,1.943,0,0,0-1.81,1.079V16H25.923V3.25H27.94Zm7.072,3.428a5.3,5.3,0,0,1,.523-2.378A3.819,3.819,0,0,1,37,7.421a4.14,4.14,0,0,1,2.175-.569,3.923,3.923,0,0,1,2.951,1.17,4.6,4.6,0,0,1,1.224,3.1l.008.473a5.343,5.343,0,0,1-.51,2.374,3.773,3.773,0,0,1-1.461,1.619,4.17,4.17,0,0,1-2.2.573A3.9,3.9,0,0,1,36.154,14.9a4.848,4.848,0,0,1-1.141-3.374Zm2.017.174a3.619,3.619,0,0,0,.573,2.171,1.862,1.862,0,0,0,1.594.784,1.842,1.842,0,0,0,1.59-.8,4,4,0,0,0,.569-2.333,3.572,3.572,0,0,0-.585-2.158,1.973,1.973,0,0,0-3.158-.012A3.922,3.922,0,0,0,37.03,11.6Zm9.911-4.582L47,8.056a3.229,3.229,0,0,1,2.615-1.2q2.806,0,2.855,3.212V16H50.452V10.181a1.85,1.85,0,0,0-.369-1.266A1.554,1.554,0,0,0,48.875,8.5a1.944,1.944,0,0,0-1.818,1.1V16H45.04V7.019Z" transform="translate(485 6250)" fill="#12263f"/>
      <path id="Trazado_874497" data-name="Trazado 874497" d="M6.176,3.914H8.268v8.475a3.606,3.606,0,0,1-1.083,2.756,4,4,0,0,1-2.86,1.021A4.139,4.139,0,0,1,1.4,15.211,3.444,3.444,0,0,1,.374,12.555H2.465A1.987,1.987,0,0,0,2.943,14a1.852,1.852,0,0,0,1.382.486,1.721,1.721,0,0,0,1.349-.56,2.237,2.237,0,0,0,.5-1.548ZM15.838,16a3.113,3.113,0,0,1-.232-.838,3.14,3.14,0,0,1-2.357,1,3.169,3.169,0,0,1-2.208-.772,2.47,2.47,0,0,1-.855-1.909,2.55,2.55,0,0,1,1.067-2.2,5.169,5.169,0,0,1,3.051-.768h1.237V9.924a1.573,1.573,0,0,0-.39-1.116,1.547,1.547,0,0,0-1.187-.419,1.777,1.777,0,0,0-1.129.344,1.066,1.066,0,0,0-.44.876H10.376a2.239,2.239,0,0,1,.49-1.382A3.263,3.263,0,0,1,12.2,7.218a4.68,4.68,0,0,1,1.88-.365,3.769,3.769,0,0,1,2.515.793,2.827,2.827,0,0,1,.963,2.229v4.051a4.591,4.591,0,0,0,.34,1.934V16Zm-2.216-1.453a2.294,2.294,0,0,0,1.125-.291,1.941,1.941,0,0,0,.793-.78V11.783H14.452a2.973,2.973,0,0,0-1.685.39,1.264,1.264,0,0,0-.564,1.1,1.179,1.179,0,0,0,.386.926A1.5,1.5,0,0,0,13.622,14.547Zm9.089-1.1,1.9-6.425H26.7L23.583,16H21.831L18.693,7.019h2.092ZM33.195,16a3.113,3.113,0,0,1-.232-.838,3.393,3.393,0,0,1-4.565.232,2.47,2.47,0,0,1-.855-1.909,2.55,2.55,0,0,1,1.067-2.2,5.169,5.169,0,0,1,3.051-.768H32.9V9.924a1.573,1.573,0,0,0-.39-1.116,1.547,1.547,0,0,0-1.187-.419,1.777,1.777,0,0,0-1.129.344,1.066,1.066,0,0,0-.44.876H27.733a2.239,2.239,0,0,1,.49-1.382,3.263,3.263,0,0,1,1.332-1.009,4.68,4.68,0,0,1,1.88-.365,3.769,3.769,0,0,1,2.515.793,2.827,2.827,0,0,1,.963,2.229v4.051a4.591,4.591,0,0,0,.34,1.934V16Zm-2.216-1.453a2.294,2.294,0,0,0,1.125-.291,1.941,1.941,0,0,0,.793-.78V11.783H31.809a2.973,2.973,0,0,0-1.685.39,1.264,1.264,0,0,0-.564,1.1,1.179,1.179,0,0,0,.386.926A1.5,1.5,0,0,0,30.979,14.547Z" transform="translate(692 6250)" fill="#12263f"/>
      <path id="Trazado_874498" data-name="Trazado 874498" d="M10.451,12.065a4.364,4.364,0,0,1-1.428,3.017,4.867,4.867,0,0,1-3.312,1.083,4.713,4.713,0,0,1-2.544-.685,4.5,4.5,0,0,1-1.7-1.947A7.024,7.024,0,0,1,.847,10.6V9.476a7.075,7.075,0,0,1,.606-3.013A4.567,4.567,0,0,1,3.192,4.454a4.851,4.851,0,0,1,2.619-.706A4.672,4.672,0,0,1,9.031,4.831,4.527,4.527,0,0,1,10.451,7.9H8.359a2.985,2.985,0,0,0-.76-1.88,2.51,2.51,0,0,0-1.789-.577,2.452,2.452,0,0,0-2.1,1A5,5,0,0,0,2.955,9.38v1.072a5.308,5.308,0,0,0,.7,2.991,2.328,2.328,0,0,0,2.054,1.03,2.715,2.715,0,0,0,1.859-.556,2.9,2.9,0,0,0,.789-1.851Zm6.342-2.714h3.154v1.843H16.792v3.594H14.833V11.194H11.663V9.351h3.171V5.989h1.959Zm9.471,0h3.154v1.843H26.264v3.594H24.3V11.194H21.134V9.351H24.3V5.989h1.959Z" transform="translate(895 6250)" fill="#12263f"/>
      <path id="Trazado_874499" data-name="Trazado 874499" d="M6.176,3.914H8.268v8.475a3.606,3.606,0,0,1-1.083,2.756,4,4,0,0,1-2.86,1.021A4.139,4.139,0,0,1,1.4,15.211,3.444,3.444,0,0,1,.374,12.555H2.465A1.987,1.987,0,0,0,2.943,14a1.852,1.852,0,0,0,1.382.486,1.721,1.721,0,0,0,1.349-.56,2.237,2.237,0,0,0,.5-1.548ZM15.838,16a3.113,3.113,0,0,1-.232-.838,3.14,3.14,0,0,1-2.357,1,3.169,3.169,0,0,1-2.208-.772,2.47,2.47,0,0,1-.855-1.909,2.55,2.55,0,0,1,1.067-2.2,5.169,5.169,0,0,1,3.051-.768h1.237V9.924a1.573,1.573,0,0,0-.39-1.116,1.547,1.547,0,0,0-1.187-.419,1.777,1.777,0,0,0-1.129.344,1.066,1.066,0,0,0-.44.876H10.376a2.239,2.239,0,0,1,.49-1.382A3.263,3.263,0,0,1,12.2,7.218a4.68,4.68,0,0,1,1.88-.365,3.769,3.769,0,0,1,2.515.793,2.827,2.827,0,0,1,.963,2.229v4.051a4.591,4.591,0,0,0,.34,1.934V16Zm-2.216-1.453a2.294,2.294,0,0,0,1.125-.291,1.941,1.941,0,0,0,.793-.78V11.783H14.452a2.973,2.973,0,0,0-1.685.39,1.264,1.264,0,0,0-.564,1.1,1.179,1.179,0,0,0,.386.926A1.5,1.5,0,0,0,13.622,14.547Zm9.089-1.1,1.9-6.425H26.7L23.583,16H21.831L18.693,7.019h2.092ZM33.195,16a3.113,3.113,0,0,1-.232-.838,3.393,3.393,0,0,1-4.565.232,2.47,2.47,0,0,1-.855-1.909,2.55,2.55,0,0,1,1.067-2.2,5.169,5.169,0,0,1,3.051-.768H32.9V9.924a1.573,1.573,0,0,0-.39-1.116,1.547,1.547,0,0,0-1.187-.419,1.777,1.777,0,0,0-1.129.344,1.066,1.066,0,0,0-.44.876H27.733a2.239,2.239,0,0,1,.49-1.382,3.263,3.263,0,0,1,1.332-1.009,4.68,4.68,0,0,1,1.88-.365,3.769,3.769,0,0,1,2.515.793,2.827,2.827,0,0,1,.963,2.229v4.051a4.591,4.591,0,0,0,.34,1.934V16Zm-2.216-1.453a2.294,2.294,0,0,0,1.125-.291,1.941,1.941,0,0,0,.793-.78V11.783H31.809a2.973,2.973,0,0,0-1.685.39,1.264,1.264,0,0,0-.564,1.1,1.179,1.179,0,0,0,.386.926A1.5,1.5,0,0,0,30.979,14.547Zm12.559-1.66a1.459,1.459,0,0,0-.56-1.229,6.741,6.741,0,0,0-2.021-.872,9.76,9.76,0,0,1-2.324-.979A3.1,3.1,0,0,1,36.98,7.1a2.945,2.945,0,0,1,1.191-2.407,4.821,4.821,0,0,1,3.092-.946,5.223,5.223,0,0,1,2.25.465,3.692,3.692,0,0,1,1.552,1.324,3.4,3.4,0,0,1,.564,1.905H43.538a1.894,1.894,0,0,0-.594-1.482,2.45,2.45,0,0,0-1.7-.535,2.558,2.558,0,0,0-1.6.44,1.465,1.465,0,0,0-.569,1.229A1.325,1.325,0,0,0,39.694,8.2a7.076,7.076,0,0,0,2.025.863,9.317,9.317,0,0,1,2.266.955,3.6,3.6,0,0,1,1.253,1.229,3.2,3.2,0,0,1,.4,1.623,2.876,2.876,0,0,1-1.158,2.4,5.023,5.023,0,0,1-3.142.892,5.9,5.9,0,0,1-2.411-.486,4.051,4.051,0,0,1-1.71-1.341,3.341,3.341,0,0,1-.61-1.992h2.1a1.955,1.955,0,0,0,.681,1.594,2.981,2.981,0,0,0,1.951.564,2.59,2.59,0,0,0,1.648-.444A1.433,1.433,0,0,0,43.538,12.887Zm7.438,1.668a1.824,1.824,0,0,0,1.253-.44,1.5,1.5,0,0,0,.531-1.087h1.9a2.963,2.963,0,0,1-.523,1.565,3.43,3.43,0,0,1-1.328,1.15,3.958,3.958,0,0,1-1.81.423,3.829,3.829,0,0,1-2.988-1.22,4.84,4.84,0,0,1-1.1-3.37v-.208A4.759,4.759,0,0,1,48,8.085a3.8,3.8,0,0,1,2.988-1.233,3.69,3.69,0,0,1,2.611.934,3.345,3.345,0,0,1,1.058,2.453h-1.9a1.847,1.847,0,0,0-.527-1.27,1.7,1.7,0,0,0-1.258-.5,1.775,1.775,0,0,0-1.511.71,3.621,3.621,0,0,0-.54,2.154v.324a3.682,3.682,0,0,0,.527,2.179A1.773,1.773,0,0,0,50.975,14.556Zm9.911-5.694a4.991,4.991,0,0,0-.822-.066A1.85,1.85,0,0,0,58.2,9.857V16H56.18V7.019h1.926l.05,1a2.273,2.273,0,0,1,2.025-1.17,1.888,1.888,0,0,1,.714.116ZM64.306,16H62.289V7.019h2.017ZM62.165,4.686a1.071,1.071,0,0,1,.295-.772,1.113,1.113,0,0,1,.843-.307,1.127,1.127,0,0,1,.847.307,1.062,1.062,0,0,1,.3.772,1.038,1.038,0,0,1-.3.76,1.136,1.136,0,0,1-.847.3,1.122,1.122,0,0,1-.843-.3A1.046,1.046,0,0,1,62.165,4.686Zm12.2,6.915a5.348,5.348,0,0,1-.946,3.324,3.287,3.287,0,0,1-4.906.27v4.258H66.5V7.019h1.859l.083.913a2.963,2.963,0,0,1,2.416-1.079,3.062,3.062,0,0,1,2.577,1.224,5.49,5.49,0,0,1,.934,3.4Zm-2.009-.174a3.746,3.746,0,0,0-.535-2.133A1.741,1.741,0,0,0,70.291,8.5a1.856,1.856,0,0,0-1.776,1.021V13.51a1.873,1.873,0,0,0,1.793,1.046,1.739,1.739,0,0,0,1.507-.776A4.124,4.124,0,0,0,72.358,11.426ZM78.6,4.835V7.019h1.585V8.513H78.6v5.014a1.1,1.1,0,0,0,.2.743.943.943,0,0,0,.726.228,3.107,3.107,0,0,0,.706-.083v1.561a4.968,4.968,0,0,1-1.328.191q-2.324,0-2.324-2.565V8.513H75.105V7.019h1.478V4.835Z" transform="translate(1066 6250)" fill="#12263f"/>
      <path id="Trazado_874489" data-name="Trazado 874489" d="M6.367,16H4.358V6.291L1.395,7.3V5.607L6.109,3.873h.257Zm12.327,0H10.567V14.614l4.026-4.391A10.025,10.025,0,0,0,15.834,8.6,2.629,2.629,0,0,0,16.2,7.292,1.986,1.986,0,0,0,15.718,5.9a1.684,1.684,0,0,0-1.307-.531,1.942,1.942,0,0,0-1.519.6,2.35,2.35,0,0,0-.54,1.635H10.334a3.953,3.953,0,0,1,.5-1.988,3.458,3.458,0,0,1,1.436-1.374,4.571,4.571,0,0,1,2.154-.49,4.088,4.088,0,0,1,2.777.884A3.069,3.069,0,0,1,18.22,7.077a4.148,4.148,0,0,1-.51,1.9,10.785,10.785,0,0,1-1.673,2.254L13.082,14.39h5.611Z" transform="translate(350 5967)" fill="#12263f"/>
      <path id="Trazado_874490" data-name="Trazado 874490" d="M6.367,16H4.358V6.291L1.395,7.3V5.607L6.109,3.873h.257Zm12.078-5.088a6.591,6.591,0,0,1-.975,3.93A3.445,3.445,0,0,1,14.5,16.166a3.49,3.49,0,0,1-2.951-1.291,6.311,6.311,0,0,1-1.017-3.823V8.961a6.492,6.492,0,0,1,.975-3.91,3.477,3.477,0,0,1,2.976-1.3,3.5,3.5,0,0,1,2.959,1.27,6.294,6.294,0,0,1,1,3.8ZM16.427,8.654a5.114,5.114,0,0,0-.465-2.494,1.586,1.586,0,0,0-1.478-.793,1.585,1.585,0,0,0-1.453.751,4.726,4.726,0,0,0-.49,2.345V11.2a5.246,5.246,0,0,0,.473,2.523,1.589,1.589,0,0,0,1.486.83,1.561,1.561,0,0,0,1.436-.768,4.936,4.936,0,0,0,.49-2.4Z" transform="translate(350 6009)" fill="#12263f"/>
      <path id="Trazado_874491" data-name="Trazado 874491" d="M8.517,7.1A2.81,2.81,0,0,1,8.06,8.683,3.167,3.167,0,0,1,6.815,9.774a3.449,3.449,0,0,1,1.457,1.2,3.036,3.036,0,0,1,.51,1.727A3.171,3.171,0,0,1,7.7,15.232a4.235,4.235,0,0,1-2.872.934,4.252,4.252,0,0,1-2.885-.938A3.168,3.168,0,0,1,.863,12.7a3.071,3.071,0,0,1,.515-1.743A3.306,3.306,0,0,1,2.822,9.774,3.149,3.149,0,0,1,1.59,8.683,2.828,2.828,0,0,1,1.137,7.1a3.144,3.144,0,0,1,1-2.449,3.848,3.848,0,0,1,2.689-.9,3.86,3.86,0,0,1,2.7.9A3.144,3.144,0,0,1,8.517,7.1ZM6.765,12.6a1.992,1.992,0,0,0-.535-1.448A1.882,1.882,0,0,0,4.814,10.6a1.862,1.862,0,0,0-1.407.548A2.007,2.007,0,0,0,2.88,12.6,1.944,1.944,0,0,0,3.4,14.024a1.909,1.909,0,0,0,1.432.531,1.915,1.915,0,0,0,1.424-.515A1.95,1.95,0,0,0,6.765,12.6ZM6.508,7.176a1.876,1.876,0,0,0-.457-1.3,1.566,1.566,0,0,0-1.229-.51,1.579,1.579,0,0,0-1.22.486,1.876,1.876,0,0,0-.448,1.324A1.869,1.869,0,0,0,3.607,8.5a1.585,1.585,0,0,0,1.224.49A1.585,1.585,0,0,0,6.055,8.5,1.869,1.869,0,0,0,6.508,7.176Z" transform="translate(360 6051)" fill="#12263f"/>
      <path id="Trazado_874492" data-name="Trazado 874492" d="M7.18,3.856V5.524H6.931a4,4,0,0,0-2.706.93,3.89,3.89,0,0,0-1.2,2.565A3.275,3.275,0,0,1,5.5,8,3.094,3.094,0,0,1,8.031,9.127a4.446,4.446,0,0,1,.926,2.914,4.157,4.157,0,0,1-1.083,2.984A3.739,3.739,0,0,1,5.03,16.166,3.652,3.652,0,0,1,2.1,14.83a5.257,5.257,0,0,1-1.125-3.5v-.689a7.4,7.4,0,0,1,1.548-4.98,5.551,5.551,0,0,1,4.453-1.8ZM5.014,9.625A2.124,2.124,0,0,0,3.8,10a2.183,2.183,0,0,0-.809,1v.614a3.618,3.618,0,0,0,.564,2.137,1.721,1.721,0,0,0,1.461.793,1.7,1.7,0,0,0,1.419-.672A2.8,2.8,0,0,0,6.956,12.1a2.84,2.84,0,0,0-.531-1.785A1.693,1.693,0,0,0,5.014,9.625Z" transform="translate(360 6093)" fill="#12263f"/>
      <path id="Trazado_874493" data-name="Trazado 874493" d="M7.728,11.692h1.5v1.619h-1.5V16H5.711V13.311H.49L.432,12.082,5.645,3.914H7.728Zm-5.18,0H5.711V6.645l-.149.266Z" transform="translate(360 6135)" fill="#12263f"/>
      <path id="Trazado_874494" data-name="Trazado 874494" d="M9.031,16H.9V14.614l4.026-4.391A10.025,10.025,0,0,0,6.172,8.6a2.629,2.629,0,0,0,.369-1.307A1.986,1.986,0,0,0,6.055,5.9a1.684,1.684,0,0,0-1.307-.531,1.942,1.942,0,0,0-1.519.6A2.35,2.35,0,0,0,2.689,7.6H.672a3.953,3.953,0,0,1,.5-1.988A3.458,3.458,0,0,1,2.611,4.238a4.571,4.571,0,0,1,2.154-.49,4.088,4.088,0,0,1,2.777.884A3.069,3.069,0,0,1,8.558,7.077a4.148,4.148,0,0,1-.51,1.9,10.785,10.785,0,0,1-1.673,2.254L3.42,14.39H9.031Z" transform="translate(360 6177)" fill="#12263f"/>
      <path id="Trazado_874495" data-name="Trazado 874495" d="M8.782,10.912a6.591,6.591,0,0,1-.975,3.93,3.445,3.445,0,0,1-2.968,1.324,3.49,3.49,0,0,1-2.951-1.291A6.311,6.311,0,0,1,.872,11.053V8.961a6.492,6.492,0,0,1,.975-3.91,3.477,3.477,0,0,1,2.976-1.3,3.5,3.5,0,0,1,2.959,1.27,6.294,6.294,0,0,1,1,3.8ZM6.765,8.654A5.114,5.114,0,0,0,6.3,6.159a1.586,1.586,0,0,0-1.478-.793,1.585,1.585,0,0,0-1.453.751,4.726,4.726,0,0,0-.49,2.345V11.2a5.246,5.246,0,0,0,.473,2.523,1.589,1.589,0,0,0,1.486.83,1.561,1.561,0,0,0,1.436-.768,4.936,4.936,0,0,0,.49-2.4Z" transform="translate(360 6219)" fill="#12263f"/>
      <path id="Trazado_873922" data-name="Trazado 873922" d="M-6065-5745.773h820" transform="translate(6455 11681)" fill="none" stroke="#123e3a" stroke-width="1"/>
      <path id="Trazado_873929" data-name="Trazado 873929" d="M-6065-5745.773h820" transform="translate(6455 11849)" fill="none" stroke="#123e3a" stroke-width="1"/>
      <path id="Trazado_873923" data-name="Trazado 873923" d="M-6065-5745.773h820" transform="translate(6455 11723)" fill="none" stroke="#123e3a" stroke-width="1"/>
      <path id="Trazado_873928" data-name="Trazado 873928" d="M-6065-5745.773h820" transform="translate(6455 11891)" fill="none" stroke="#123e3a" stroke-width="1"/>
      <path id="Trazado_873924" data-name="Trazado 873924" d="M-6065-5745.773h820" transform="translate(6455 11765)" fill="none" stroke="#123e3a" stroke-width="1"/>
      <path id="Trazado_873927" data-name="Trazado 873927" d="M-6065-5745.773h820" transform="translate(6455 11933)" fill="none" stroke="#123e3a" stroke-width="1"/>
      <path id="Trazado_873925" data-name="Trazado 873925" d="M-6065-5745.773h820" transform="translate(6455 11807)" fill="none" stroke="#123e3a" stroke-width="1"/>
      <path id="Trazado_873926" data-name="Trazado 873926" d="M-6065-5745.773h820" transform="translate(6455 11975)" fill="none" stroke="#123e3a" stroke-width="1"/>
      <rect id="Rectángulo_401680" data-name="Rectángulo 401680" width="74" height="252" transform="translate(475 5977)" fill="#6cdfd4"/>
      <rect id="Rectángulo_401681" data-name="Rectángulo 401681" width="74" height="168" transform="translate(673 6061)" fill="#6cdfd4"/>
      <rect id="Rectángulo_401682" data-name="Rectángulo 401682" width="74" height="126" transform="translate(872 6103)" fill="#6cdfd4"/>
      <rect id="Rectángulo_401683" data-name="Rectángulo 401683" width="74" height="84" transform="translate(1070 6145)" fill="#6cdfd4"/>
      <rect id="Rectángulo_401684" data-name="Rectángulo 401684" width="444" height="37" rx="18.5" transform="translate(556 5877)" fill="#cbc4f8"/>
      <path id="Trazado_874487" data-name="Trazado 874487" d="M1.3,17V4.2H5.08a5.928,5.928,0,0,1,3.01.756A5.154,5.154,0,0,1,10.125,7.1a6.807,6.807,0,0,1,.721,3.182v.642a6.779,6.779,0,0,1-.725,3.2,5.092,5.092,0,0,1-2.065,2.127A6.2,6.2,0,0,1,4.983,17ZM3.524,6v9.229h1.45A3.339,3.339,0,0,0,7.66,14.13a4.766,4.766,0,0,0,.954-3.142v-.712a4.891,4.891,0,0,0-.905-3.182A3.209,3.209,0,0,0,5.08,6Zm11.6,11H12.99V7.49h2.136ZM12.858,5.021A1.133,1.133,0,0,1,13.17,4.2a1.179,1.179,0,0,1,.892-.325,1.193,1.193,0,0,1,.9.325,1.125,1.125,0,0,1,.316.817,1.1,1.1,0,0,1-.316.8,1.2,1.2,0,0,1-.9.321,1.188,1.188,0,0,1-.892-.321A1.107,1.107,0,0,1,12.858,5.021Zm9.923,9.4a.968.968,0,0,0-.47-.87,5,5,0,0,0-1.56-.527,8.02,8.02,0,0,1-1.819-.58,2.428,2.428,0,0,1-1.6-2.241,2.531,2.531,0,0,1,1.037-2.057,4.1,4.1,0,0,1,2.637-.826,4.266,4.266,0,0,1,2.755.844,2.677,2.677,0,0,1,1.05,2.188H22.676a1.316,1.316,0,0,0-.457-1.024,1.752,1.752,0,0,0-1.213-.409,1.893,1.893,0,0,0-1.147.325,1.025,1.025,0,0,0-.444.87.866.866,0,0,0,.413.765,5.68,5.68,0,0,0,1.67.549,7.9,7.9,0,0,1,1.973.659A2.794,2.794,0,0,1,24.535,13a2.342,2.342,0,0,1,.347,1.3,2.478,2.478,0,0,1-1.063,2.079,4.535,4.535,0,0,1-2.786.8,4.917,4.917,0,0,1-2.083-.422,3.428,3.428,0,0,1-1.424-1.16A2.746,2.746,0,0,1,17.016,14H19.09a1.5,1.5,0,0,0,.571,1.165,2.22,2.22,0,0,0,1.4.409,2.16,2.16,0,0,0,1.283-.321A.993.993,0,0,0,22.781,14.416Zm6.636-9.237V7.49H31.1V9.072H29.417v5.309a1.169,1.169,0,0,0,.215.787,1,1,0,0,0,.769.242,3.29,3.29,0,0,0,.747-.088v1.652a5.26,5.26,0,0,1-1.406.2q-2.461,0-2.461-2.716V9.072H25.717V7.49h1.564V5.179Zm8.288,4.263a5.285,5.285,0,0,0-.87-.07A1.959,1.959,0,0,0,34.857,10.5V17H32.722V7.49h2.039l.053,1.063a2.406,2.406,0,0,1,2.145-1.239,2,2,0,0,1,.756.123ZM41.326,17H39.19V7.49h2.136ZM39.059,5.021a1.133,1.133,0,0,1,.312-.817,1.179,1.179,0,0,1,.892-.325,1.193,1.193,0,0,1,.9.325,1.125,1.125,0,0,1,.316.817,1.1,1.1,0,0,1-.316.8,1.2,1.2,0,0,1-.9.321,1.188,1.188,0,0,1-.892-.321A1.107,1.107,0,0,1,39.059,5.021ZM52,12.342a5.712,5.712,0,0,1-.989,3.524,3.221,3.221,0,0,1-2.72,1.31,3.1,3.1,0,0,1-2.6-1.2L45.58,17H43.646V3.5h2.136V8.4a3.091,3.091,0,0,1,2.487-1.09A3.258,3.258,0,0,1,51,8.606,5.807,5.807,0,0,1,52,12.219Zm-2.136-.185a4.037,4.037,0,0,0-.545-2.32,1.815,1.815,0,0,0-1.582-.773,1.983,1.983,0,0,0-1.951,1.213V14.2a2,2,0,0,0,1.969,1.239,1.8,1.8,0,0,0,1.547-.747,3.912,3.912,0,0,0,.563-2.259Zm9.686,3.911a3.312,3.312,0,0,1-2.672,1.107,2.952,2.952,0,0,1-2.342-.905,3.851,3.851,0,0,1-.8-2.619V7.49h2.136v6.135q0,1.811,1.5,1.811a2.111,2.111,0,0,0,2.1-1.116V7.49h2.136V17H59.6Zm8.147-.6A1.931,1.931,0,0,0,69.021,15a1.591,1.591,0,0,0,.563-1.151H71.6a3.137,3.137,0,0,1-.554,1.657,3.632,3.632,0,0,1-1.406,1.217,4.191,4.191,0,0,1-1.916.448,4.055,4.055,0,0,1-3.164-1.292,5.124,5.124,0,0,1-1.169-3.568V12.1a5.039,5.039,0,0,1,1.16-3.476,4.018,4.018,0,0,1,3.164-1.305,3.907,3.907,0,0,1,2.764.989A3.542,3.542,0,0,1,71.6,10.9H69.583a1.956,1.956,0,0,0-.558-1.345,1.8,1.8,0,0,0-1.332-.527,1.879,1.879,0,0,0-1.6.751,3.834,3.834,0,0,0-.571,2.281V12.4a3.9,3.9,0,0,0,.558,2.307A1.878,1.878,0,0,0,67.693,15.471ZM75.48,17H73.345V7.49H75.48ZM73.213,5.021a1.133,1.133,0,0,1,.312-.817,1.179,1.179,0,0,1,.892-.325,1.193,1.193,0,0,1,.9.325,1.125,1.125,0,0,1,.316.817,1.1,1.1,0,0,1-.316.8,1.2,1.2,0,0,1-.9.321,1.188,1.188,0,0,1-.892-.321A1.107,1.107,0,0,1,73.213,5.021Zm4.192,7.137a5.607,5.607,0,0,1,.554-2.518,4.044,4.044,0,0,1,1.556-1.723,4.383,4.383,0,0,1,2.3-.6,4.154,4.154,0,0,1,3.125,1.239,4.874,4.874,0,0,1,1.3,3.287l.009.5a5.658,5.658,0,0,1-.541,2.514,4,4,0,0,1-1.547,1.714,4.415,4.415,0,0,1-2.325.606,4.125,4.125,0,0,1-3.221-1.34,5.133,5.133,0,0,1-1.208-3.573Zm2.136.185a3.832,3.832,0,0,0,.606,2.3,1.971,1.971,0,0,0,1.688.831,1.95,1.95,0,0,0,1.683-.844,4.232,4.232,0,0,0,.6-2.47,3.782,3.782,0,0,0-.62-2.285,2.089,2.089,0,0,0-3.344-.013A4.152,4.152,0,0,0,79.541,12.342ZM82.406,3.5h2.435L82.406,6.163l-1.714,0Zm7.629,3.99.062,1.1a3.419,3.419,0,0,1,2.769-1.274q2.971,0,3.023,3.4V17H93.753V10.839a1.958,1.958,0,0,0-.391-1.34,1.645,1.645,0,0,0-1.279-.435,2.058,2.058,0,0,0-1.925,1.169V17H88.022V7.49Zm12.111,4.685a5.654,5.654,0,0,1,1.02-3.529A3.267,3.267,0,0,1,105.9,7.314a3.1,3.1,0,0,1,2.443,1.055V3.5h2.136V17h-1.934l-.105-.984a3.148,3.148,0,0,1-2.558,1.16,3.248,3.248,0,0,1-2.7-1.345A5.861,5.861,0,0,1,102.146,12.175Zm2.136.185a3.958,3.958,0,0,0,.558,2.263,1.811,1.811,0,0,0,1.586.813,2.017,2.017,0,0,0,1.916-1.169V10.206a1.986,1.986,0,0,0-1.9-1.143,1.824,1.824,0,0,0-1.6.822A4.408,4.408,0,0,0,104.282,12.359Zm12.612,4.816A4.419,4.419,0,0,1,113.6,15.9a4.639,4.639,0,0,1-1.261-3.406v-.264a5.706,5.706,0,0,1,.549-2.544,4.181,4.181,0,0,1,1.542-1.745,4.078,4.078,0,0,1,2.215-.624,3.733,3.733,0,0,1,3,1.239,5.24,5.24,0,0,1,1.059,3.507v.861H114.5a2.856,2.856,0,0,0,.787,1.863,2.362,2.362,0,0,0,1.736.686,2.892,2.892,0,0,0,2.391-1.187l1.151,1.1a3.845,3.845,0,0,1-1.525,1.323A4.774,4.774,0,0,1,116.895,17.176Zm-.255-8.147a1.8,1.8,0,0,0-1.419.615,3.189,3.189,0,0,0-.69,1.714H118.6V11.2a2.6,2.6,0,0,0-.571-1.622A1.785,1.785,0,0,0,116.64,9.028ZM127.6,17V9.072h-1.45V7.49h1.45V6.62a3.266,3.266,0,0,1,.879-2.443,3.367,3.367,0,0,1,2.461-.861,4.936,4.936,0,0,1,1.2.158l-.053,1.67a4.207,4.207,0,0,0-.817-.07,1.371,1.371,0,0,0-1.529,1.573V7.49h1.934V9.072h-1.934V17Zm10.608-7.559a5.285,5.285,0,0,0-.87-.07A1.959,1.959,0,0,0,135.36,10.5V17h-2.136V7.49h2.039l.053,1.063a2.406,2.406,0,0,1,2.145-1.239,2,2,0,0,1,.756.123Zm5.37,7.734a4.419,4.419,0,0,1-3.292-1.279,4.639,4.639,0,0,1-1.261-3.406v-.264a5.706,5.706,0,0,1,.549-2.544,4.181,4.181,0,0,1,1.542-1.745,4.078,4.078,0,0,1,2.215-.624,3.733,3.733,0,0,1,3,1.239,5.24,5.24,0,0,1,1.059,3.507v.861h-6.214a2.856,2.856,0,0,0,.787,1.863,2.362,2.362,0,0,0,1.736.686,2.892,2.892,0,0,0,2.391-1.187l1.151,1.1a3.845,3.845,0,0,1-1.525,1.323A4.774,4.774,0,0,1,143.578,17.176Zm-.255-8.147a1.8,1.8,0,0,0-1.419.615,3.189,3.189,0,0,0-.69,1.714h4.069V11.2a2.6,2.6,0,0,0-.571-1.622A1.785,1.785,0,0,0,143.323,9.028Zm9.633,6.442A1.931,1.931,0,0,0,154.283,15a1.591,1.591,0,0,0,.563-1.151h2.013a3.137,3.137,0,0,1-.554,1.657,3.632,3.632,0,0,1-1.406,1.217,4.191,4.191,0,0,1-1.916.448,4.055,4.055,0,0,1-3.164-1.292,5.124,5.124,0,0,1-1.169-3.568V12.1a5.039,5.039,0,0,1,1.16-3.476,4.018,4.018,0,0,1,3.164-1.305,3.907,3.907,0,0,1,2.764.989,3.542,3.542,0,0,1,1.121,2.6h-2.013a1.956,1.956,0,0,0-.558-1.345,1.8,1.8,0,0,0-1.332-.527,1.879,1.879,0,0,0-1.6.751,3.834,3.834,0,0,0-.571,2.281V12.4a3.9,3.9,0,0,0,.558,2.307A1.878,1.878,0,0,0,152.956,15.471Zm11.276.6a3.312,3.312,0,0,1-2.672,1.107,2.952,2.952,0,0,1-2.342-.905,3.851,3.851,0,0,1-.8-2.619V7.49h2.136v6.135q0,1.811,1.5,1.811a2.111,2.111,0,0,0,2.1-1.116V7.49H166.3V17h-2.013Zm8.429,1.107A4.419,4.419,0,0,1,169.37,15.9a4.639,4.639,0,0,1-1.261-3.406v-.264a5.706,5.706,0,0,1,.549-2.544A4.181,4.181,0,0,1,170.2,7.938a4.078,4.078,0,0,1,2.215-.624,3.733,3.733,0,0,1,3,1.239,5.24,5.24,0,0,1,1.059,3.507v.861h-6.214a2.856,2.856,0,0,0,.787,1.863,2.362,2.362,0,0,0,1.736.686,2.892,2.892,0,0,0,2.391-1.187l1.151,1.1a3.845,3.845,0,0,1-1.525,1.323A4.774,4.774,0,0,1,172.661,17.176Zm-.255-8.147a1.8,1.8,0,0,0-1.419.615,3.189,3.189,0,0,0-.69,1.714h4.069V11.2a2.6,2.6,0,0,0-.571-1.622A1.785,1.785,0,0,0,172.406,9.028Zm7.708-1.538.062,1.1a3.419,3.419,0,0,1,2.769-1.274q2.971,0,3.023,3.4V17h-2.136V10.839a1.958,1.958,0,0,0-.391-1.34,1.645,1.645,0,0,0-1.279-.435,2.058,2.058,0,0,0-1.925,1.169V17H178.1V7.49Zm11.936,7.98A1.931,1.931,0,0,0,193.377,15a1.591,1.591,0,0,0,.563-1.151h2.013a3.137,3.137,0,0,1-.554,1.657,3.632,3.632,0,0,1-1.406,1.217,4.191,4.191,0,0,1-1.916.448,4.055,4.055,0,0,1-3.164-1.292,5.124,5.124,0,0,1-1.169-3.568V12.1A5.039,5.039,0,0,1,188.9,8.62a4.018,4.018,0,0,1,3.164-1.305,3.907,3.907,0,0,1,2.764.989,3.542,3.542,0,0,1,1.121,2.6h-2.013a1.956,1.956,0,0,0-.558-1.345,1.8,1.8,0,0,0-1.332-.527,1.879,1.879,0,0,0-1.6.751,3.834,3.834,0,0,0-.571,2.281V12.4a3.9,3.9,0,0,0,.558,2.307A1.878,1.878,0,0,0,192.05,15.471ZM199.837,17H197.7V7.49h2.136ZM197.569,5.021a1.133,1.133,0,0,1,.312-.817,1.179,1.179,0,0,1,.892-.325,1.193,1.193,0,0,1,.9.325,1.125,1.125,0,0,1,.316.817,1.1,1.1,0,0,1-.316.8,1.2,1.2,0,0,1-.9.321,1.188,1.188,0,0,1-.892-.321A1.107,1.107,0,0,1,197.569,5.021ZM207.844,17a3.3,3.3,0,0,1-.246-.888,3.593,3.593,0,0,1-4.834.246,2.615,2.615,0,0,1-.905-2.021A2.7,2.7,0,0,1,202.988,12a5.473,5.473,0,0,1,3.23-.813h1.31v-.624a1.666,1.666,0,0,0-.413-1.182,1.638,1.638,0,0,0-1.257-.444,1.881,1.881,0,0,0-1.2.365,1.129,1.129,0,0,0-.466.927h-2.136a2.37,2.37,0,0,1,.519-1.463A3.455,3.455,0,0,1,203.99,7.7a4.955,4.955,0,0,1,1.991-.387,3.99,3.99,0,0,1,2.663.839,2.993,2.993,0,0,1,1.02,2.36V14.8a4.861,4.861,0,0,0,.36,2.048V17ZM205.5,15.462a2.429,2.429,0,0,0,1.191-.308,2.055,2.055,0,0,0,.839-.826V12.535h-1.151a3.148,3.148,0,0,0-1.784.413,1.338,1.338,0,0,0-.6,1.169,1.248,1.248,0,0,0,.409.98A1.583,1.583,0,0,0,205.5,15.462Zm11.733-1.046a.968.968,0,0,0-.47-.87,5,5,0,0,0-1.56-.527,8.02,8.02,0,0,1-1.819-.58,2.428,2.428,0,0,1-1.6-2.241,2.531,2.531,0,0,1,1.037-2.057,4.1,4.1,0,0,1,2.637-.826,4.266,4.266,0,0,1,2.755.844,2.677,2.677,0,0,1,1.05,2.188h-2.136a1.316,1.316,0,0,0-.457-1.024,1.752,1.752,0,0,0-1.213-.409,1.893,1.893,0,0,0-1.147.325,1.025,1.025,0,0,0-.444.87.866.866,0,0,0,.413.765,5.68,5.68,0,0,0,1.67.549,7.9,7.9,0,0,1,1.973.659,2.794,2.794,0,0,1,1.063.918,2.342,2.342,0,0,1,.347,1.3,2.478,2.478,0,0,1-1.063,2.079,4.535,4.535,0,0,1-2.786.8,4.917,4.917,0,0,1-2.083-.422,3.428,3.428,0,0,1-1.424-1.16,2.746,2.746,0,0,1-.51-1.591h2.074a1.5,1.5,0,0,0,.571,1.165,2.22,2.22,0,0,0,1.4.409,2.16,2.16,0,0,0,1.283-.321A.993.993,0,0,0,217.23,14.416Zm8.042-2.241a5.654,5.654,0,0,1,1.02-3.529,3.267,3.267,0,0,1,2.733-1.332,3.1,3.1,0,0,1,2.443,1.055V3.5H233.6V17h-1.934l-.105-.984a3.148,3.148,0,0,1-2.558,1.16,3.248,3.248,0,0,1-2.7-1.345A5.861,5.861,0,0,1,225.272,12.175Zm2.136.185a3.958,3.958,0,0,0,.558,2.263,1.811,1.811,0,0,0,1.586.813,2.017,2.017,0,0,0,1.916-1.169V10.206a1.986,1.986,0,0,0-1.9-1.143,1.824,1.824,0,0,0-1.6.822A4.408,4.408,0,0,0,227.408,12.359Zm12.612,4.816a4.419,4.419,0,0,1-3.292-1.279,4.639,4.639,0,0,1-1.261-3.406v-.264a5.706,5.706,0,0,1,.549-2.544,4.181,4.181,0,0,1,1.542-1.745,4.078,4.078,0,0,1,2.215-.624,3.733,3.733,0,0,1,3,1.239,5.24,5.24,0,0,1,1.059,3.507v.861h-6.214a2.856,2.856,0,0,0,.787,1.863,2.362,2.362,0,0,0,1.736.686,2.892,2.892,0,0,0,2.391-1.187l1.151,1.1a3.845,3.845,0,0,1-1.525,1.323A4.774,4.774,0,0,1,240.021,17.176Zm-.255-8.147a1.8,1.8,0,0,0-1.419.615,3.189,3.189,0,0,0-.69,1.714h4.069V11.2a2.6,2.6,0,0,0-.571-1.622A1.785,1.785,0,0,0,239.766,9.028Zm8,7.972h-2.136V3.5h2.136Zm8.789-9.51.062,1.1a3.419,3.419,0,0,1,2.769-1.274q2.971,0,3.023,3.4V17h-2.136V10.839a1.958,1.958,0,0,0-.391-1.34,1.645,1.645,0,0,0-1.279-.435,2.058,2.058,0,0,0-1.925,1.169V17H254.54V7.49Zm10.3,9.51h-2.136V7.49h2.136ZM264.586,5.021A1.133,1.133,0,0,1,264.9,4.2a1.179,1.179,0,0,1,.892-.325,1.193,1.193,0,0,1,.9.325,1.125,1.125,0,0,1,.316.817,1.1,1.1,0,0,1-.316.8,1.2,1.2,0,0,1-.9.321,1.188,1.188,0,0,1-.892-.321A1.107,1.107,0,0,1,264.586,5.021Zm7.945,9.272,2.013-6.8h2.206l-3.3,9.51H271.6l-3.322-9.51h2.215Zm9.624,2.883a4.419,4.419,0,0,1-3.292-1.279,4.639,4.639,0,0,1-1.261-3.406v-.264a5.706,5.706,0,0,1,.549-2.544,4.181,4.181,0,0,1,1.542-1.745,4.078,4.078,0,0,1,2.215-.624,3.733,3.733,0,0,1,3,1.239,5.24,5.24,0,0,1,1.059,3.507v.861h-6.214a2.856,2.856,0,0,0,.787,1.863,2.362,2.362,0,0,0,1.736.686,2.892,2.892,0,0,0,2.391-1.187l1.151,1.1a3.845,3.845,0,0,1-1.525,1.323A4.774,4.774,0,0,1,282.155,17.176ZM281.9,9.028a1.8,1.8,0,0,0-1.419.615,3.189,3.189,0,0,0-.69,1.714h4.069V11.2a2.6,2.6,0,0,0-.571-1.622A1.785,1.785,0,0,0,281.9,9.028Zm8,7.972h-2.136V3.5H289.9Zm6.407-4.825a5.654,5.654,0,0,1,1.02-3.529,3.267,3.267,0,0,1,2.733-1.332A3.1,3.1,0,0,1,302.5,8.369V3.5h2.136V17H302.7l-.105-.984a3.148,3.148,0,0,1-2.558,1.16,3.248,3.248,0,0,1-2.7-1.345A5.861,5.861,0,0,1,296.306,12.175Zm2.136.185A3.958,3.958,0,0,0,299,14.623a1.811,1.811,0,0,0,1.586.813,2.017,2.017,0,0,0,1.916-1.169V10.206a1.986,1.986,0,0,0-1.9-1.143,1.824,1.824,0,0,0-1.6.822A4.408,4.408,0,0,0,298.441,12.359Zm12.612,4.816a4.419,4.419,0,0,1-3.292-1.279,4.639,4.639,0,0,1-1.261-3.406v-.264a5.706,5.706,0,0,1,.549-2.544,4.181,4.181,0,0,1,1.542-1.745,4.078,4.078,0,0,1,2.215-.624,3.733,3.733,0,0,1,3,1.239,5.24,5.24,0,0,1,1.059,3.507v.861h-6.214a2.856,2.856,0,0,0,.787,1.863,2.362,2.362,0,0,0,1.736.686,2.892,2.892,0,0,0,2.391-1.187l1.151,1.1a3.845,3.845,0,0,1-1.525,1.323A4.774,4.774,0,0,1,311.054,17.176ZM310.8,9.028a1.8,1.8,0,0,0-1.419.615,3.189,3.189,0,0,0-.69,1.714h4.069V11.2a2.6,2.6,0,0,0-.571-1.622A1.785,1.785,0,0,0,310.8,9.028Zm15.539,5.388a.968.968,0,0,0-.47-.87,5,5,0,0,0-1.56-.527,8.02,8.02,0,0,1-1.819-.58,2.428,2.428,0,0,1-1.6-2.241,2.531,2.531,0,0,1,1.037-2.057,4.1,4.1,0,0,1,2.637-.826,4.266,4.266,0,0,1,2.755.844,2.677,2.677,0,0,1,1.05,2.188h-2.136a1.316,1.316,0,0,0-.457-1.024,1.752,1.752,0,0,0-1.213-.409,1.893,1.893,0,0,0-1.147.325,1.025,1.025,0,0,0-.444.87.866.866,0,0,0,.413.765,5.68,5.68,0,0,0,1.67.549,7.9,7.9,0,0,1,1.973.659,2.794,2.794,0,0,1,1.063.918,2.342,2.342,0,0,1,.347,1.3,2.478,2.478,0,0,1-1.063,2.079,4.535,4.535,0,0,1-2.786.8,4.917,4.917,0,0,1-2.083-.422,3.428,3.428,0,0,1-1.424-1.16,2.746,2.746,0,0,1-.51-1.591h2.074a1.5,1.5,0,0,0,.571,1.165,2.22,2.22,0,0,0,1.4.409,2.16,2.16,0,0,0,1.283-.321A.993.993,0,0,0,326.338,14.416ZM335.979,17a3.3,3.3,0,0,1-.246-.888,3.593,3.593,0,0,1-4.834.246,2.615,2.615,0,0,1-.905-2.021A2.7,2.7,0,0,1,331.124,12a5.473,5.473,0,0,1,3.23-.813h1.31v-.624a1.666,1.666,0,0,0-.413-1.182,1.638,1.638,0,0,0-1.257-.444,1.881,1.881,0,0,0-1.2.365,1.129,1.129,0,0,0-.466.927H330.2a2.37,2.37,0,0,1,.519-1.463A3.455,3.455,0,0,1,332.125,7.7a4.955,4.955,0,0,1,1.991-.387,3.99,3.99,0,0,1,2.663.839,2.993,2.993,0,0,1,1.02,2.36V14.8a4.861,4.861,0,0,0,.36,2.048V17Zm-2.347-1.538a2.429,2.429,0,0,0,1.191-.308,2.055,2.055,0,0,0,.839-.826V12.535h-1.151a3.148,3.148,0,0,0-1.784.413,1.338,1.338,0,0,0-.6,1.169,1.248,1.248,0,0,0,.409.98A1.583,1.583,0,0,0,333.633,15.462Zm9.079-10.283V7.49h1.679V9.072h-1.679v5.309a1.169,1.169,0,0,0,.215.787,1,1,0,0,0,.769.242,3.29,3.29,0,0,0,.747-.088v1.652a5.26,5.26,0,0,1-1.406.2q-2.461,0-2.461-2.716V9.072h-1.564V7.49h1.564V5.179ZM348.293,17h-2.136V7.49h2.136ZM346.025,5.021a1.133,1.133,0,0,1,.312-.817,1.179,1.179,0,0,1,.892-.325,1.193,1.193,0,0,1,.9.325,1.125,1.125,0,0,1,.316.817,1.1,1.1,0,0,1-.316.8,1.2,1.2,0,0,1-.9.321,1.188,1.188,0,0,1-.892-.321A1.107,1.107,0,0,1,346.025,5.021Zm9.923,9.4a.968.968,0,0,0-.47-.87,5,5,0,0,0-1.56-.527,8.02,8.02,0,0,1-1.819-.58,2.428,2.428,0,0,1-1.6-2.241,2.531,2.531,0,0,1,1.037-2.057,4.1,4.1,0,0,1,2.637-.826,4.266,4.266,0,0,1,2.755.844,2.677,2.677,0,0,1,1.05,2.188h-2.136a1.316,1.316,0,0,0-.457-1.024,1.752,1.752,0,0,0-1.213-.409,1.893,1.893,0,0,0-1.147.325,1.025,1.025,0,0,0-.444.87.866.866,0,0,0,.413.765,5.68,5.68,0,0,0,1.67.549,7.9,7.9,0,0,1,1.973.659A2.794,2.794,0,0,1,357.7,13a2.342,2.342,0,0,1,.347,1.3,2.478,2.478,0,0,1-1.063,2.079,4.535,4.535,0,0,1-2.786.8,4.917,4.917,0,0,1-2.083-.422,3.428,3.428,0,0,1-1.424-1.16,2.746,2.746,0,0,1-.51-1.591h2.074a1.5,1.5,0,0,0,.571,1.165,2.22,2.22,0,0,0,1.4.409,2.16,2.16,0,0,0,1.283-.321A.993.993,0,0,0,355.948,14.416ZM360.659,17V9.072h-1.45V7.49h1.45V6.62a3.266,3.266,0,0,1,.879-2.443A3.367,3.367,0,0,1,364,3.315a4.936,4.936,0,0,1,1.2.158l-.053,1.67a4.207,4.207,0,0,0-.817-.07,1.371,1.371,0,0,0-1.529,1.573V7.49h1.934V9.072h-1.934V17Zm11.312,0a3.3,3.3,0,0,1-.246-.888,3.593,3.593,0,0,1-4.834.246,2.615,2.615,0,0,1-.905-2.021A2.7,2.7,0,0,1,367.115,12a5.473,5.473,0,0,1,3.23-.813h1.31v-.624a1.666,1.666,0,0,0-.413-1.182,1.638,1.638,0,0,0-1.257-.444,1.881,1.881,0,0,0-1.2.365,1.129,1.129,0,0,0-.466.927h-2.136a2.37,2.37,0,0,1,.519-1.463A3.455,3.455,0,0,1,368.117,7.7a4.955,4.955,0,0,1,1.991-.387,3.99,3.99,0,0,1,2.663.839,2.993,2.993,0,0,1,1.02,2.36V14.8a4.861,4.861,0,0,0,.36,2.048V17Zm-2.347-1.538a2.429,2.429,0,0,0,1.191-.308,2.055,2.055,0,0,0,.839-.826V12.535H370.5a3.148,3.148,0,0,0-1.784.413,1.338,1.338,0,0,0-.6,1.169,1.248,1.248,0,0,0,.409.98A1.583,1.583,0,0,0,369.624,15.462Zm10.31.009A1.931,1.931,0,0,0,381.261,15a1.591,1.591,0,0,0,.563-1.151h2.013a3.137,3.137,0,0,1-.554,1.657,3.632,3.632,0,0,1-1.406,1.217,4.191,4.191,0,0,1-1.916.448,4.055,4.055,0,0,1-3.164-1.292,5.124,5.124,0,0,1-1.169-3.568V12.1a5.039,5.039,0,0,1,1.16-3.476,4.018,4.018,0,0,1,3.164-1.305,3.907,3.907,0,0,1,2.764.989,3.542,3.542,0,0,1,1.121,2.6h-2.013a1.956,1.956,0,0,0-.558-1.345,1.8,1.8,0,0,0-1.332-.527,1.879,1.879,0,0,0-1.6.751,3.834,3.834,0,0,0-.571,2.281V12.4a3.9,3.9,0,0,0,.558,2.307A1.878,1.878,0,0,0,379.934,15.471Zm9.422,0A1.931,1.931,0,0,0,390.683,15a1.591,1.591,0,0,0,.563-1.151h2.013a3.137,3.137,0,0,1-.554,1.657,3.632,3.632,0,0,1-1.406,1.217,4.191,4.191,0,0,1-1.916.448,4.055,4.055,0,0,1-3.164-1.292,5.124,5.124,0,0,1-1.169-3.568V12.1a5.039,5.039,0,0,1,1.16-3.476,4.018,4.018,0,0,1,3.164-1.305,3.907,3.907,0,0,1,2.764.989,3.542,3.542,0,0,1,1.121,2.6h-2.013a1.956,1.956,0,0,0-.558-1.345,1.8,1.8,0,0,0-1.332-.527,1.879,1.879,0,0,0-1.6.751,3.834,3.834,0,0,0-.571,2.281V12.4a3.9,3.9,0,0,0,.558,2.307A1.878,1.878,0,0,0,389.355,15.471ZM397.143,17h-2.136V7.49h2.136ZM394.875,5.021a1.133,1.133,0,0,1,.312-.817,1.179,1.179,0,0,1,.892-.325,1.193,1.193,0,0,1,.9.325,1.125,1.125,0,0,1,.316.817,1.1,1.1,0,0,1-.316.8,1.2,1.2,0,0,1-.9.321,1.188,1.188,0,0,1-.892-.321A1.107,1.107,0,0,1,394.875,5.021Zm4.192,7.137a5.607,5.607,0,0,1,.554-2.518,4.044,4.044,0,0,1,1.556-1.723,4.383,4.383,0,0,1,2.3-.6A4.154,4.154,0,0,1,406.6,8.554a4.874,4.874,0,0,1,1.3,3.287l.009.5a5.658,5.658,0,0,1-.541,2.514,4,4,0,0,1-1.547,1.714,4.415,4.415,0,0,1-2.325.606,4.125,4.125,0,0,1-3.221-1.34,5.133,5.133,0,0,1-1.208-3.573Zm2.136.185a3.832,3.832,0,0,0,.606,2.3,1.971,1.971,0,0,0,1.688.831,1.95,1.95,0,0,0,1.683-.844,4.232,4.232,0,0,0,.6-2.47,3.782,3.782,0,0,0-.62-2.285,2.089,2.089,0,0,0-3.344-.013A4.152,4.152,0,0,0,401.2,12.342ZM404.068,3.5H406.5l-2.435,2.663-1.714,0ZM411.7,7.49l.062,1.1a3.419,3.419,0,0,1,2.769-1.274q2.971,0,3.023,3.4V17h-2.136V10.839a1.958,1.958,0,0,0-.391-1.34,1.645,1.645,0,0,0-1.279-.435,2.058,2.058,0,0,0-1.925,1.169V17h-2.136V7.49Z" transform="translate(568 5885)" fill="#12263f"/>
      <g id="Grupo_1100864" data-name="Grupo 1100864" transform="translate(-11 -27)">
        <g id="Rectángulo_401685" data-name="Rectángulo 401685" transform="translate(685 6310)" fill="none" stroke="#6cdfd4" stroke-width="3">
          <rect width="253" height="51" rx="25.5" stroke="none"/>
          <rect x="1.5" y="1.5" width="250" height="48" rx="24" fill="none"/>
        </g>
        <path id="Trazado_874500" data-name="Trazado 874500" d="M8.193,10.878H3.329V16h-2.1V3.914H8.907V5.607H3.329V9.2H8.193Zm6.666-2.017a4.991,4.991,0,0,0-.822-.066,1.85,1.85,0,0,0-1.868,1.063V16H10.152V7.019h1.926l.05,1a2.273,2.273,0,0,1,2.025-1.17,1.888,1.888,0,0,1,.714.116Zm5.072,7.3a4.173,4.173,0,0,1-3.109-1.208,4.381,4.381,0,0,1-1.191-3.217v-.249a5.389,5.389,0,0,1,.519-2.4,3.949,3.949,0,0,1,1.457-1.648A3.851,3.851,0,0,1,19.7,6.853a3.525,3.525,0,0,1,2.835,1.17,4.949,4.949,0,0,1,1,3.312v.813H17.664a2.7,2.7,0,0,0,.743,1.76,2.23,2.23,0,0,0,1.639.647A2.731,2.731,0,0,0,22.3,13.435l1.087,1.038a3.631,3.631,0,0,1-1.44,1.249A4.509,4.509,0,0,1,19.93,16.166Zm-.241-7.695a1.7,1.7,0,0,0-1.341.581,3.012,3.012,0,0,0-.652,1.619h3.843v-.149A2.452,2.452,0,0,0,21,8.99,1.686,1.686,0,0,0,19.689,8.471Zm9.1,6.084a1.824,1.824,0,0,0,1.253-.44,1.5,1.5,0,0,0,.531-1.087h1.9a2.963,2.963,0,0,1-.523,1.565,3.43,3.43,0,0,1-1.328,1.15,3.958,3.958,0,0,1-1.81.423,3.829,3.829,0,0,1-2.988-1.22,4.84,4.84,0,0,1-1.1-3.37v-.208a4.759,4.759,0,0,1,1.1-3.283A3.8,3.8,0,0,1,28.8,6.853a3.69,3.69,0,0,1,2.611.934,3.345,3.345,0,0,1,1.058,2.453h-1.9a1.847,1.847,0,0,0-.527-1.27,1.7,1.7,0,0,0-1.258-.5,1.775,1.775,0,0,0-1.511.71,3.621,3.621,0,0,0-.54,2.154v.324a3.682,3.682,0,0,0,.527,2.179A1.773,1.773,0,0,0,28.787,14.556Zm10.65.564a3.128,3.128,0,0,1-2.523,1.046,2.788,2.788,0,0,1-2.212-.855,3.637,3.637,0,0,1-.751-2.474V7.019h2.017v5.794q0,1.71,1.419,1.71a1.993,1.993,0,0,0,1.984-1.054V7.019h2.017V16h-1.9Zm7.96,1.046a4.173,4.173,0,0,1-3.109-1.208A4.381,4.381,0,0,1,43.1,11.742v-.249a5.389,5.389,0,0,1,.519-2.4,3.949,3.949,0,0,1,1.457-1.648,3.851,3.851,0,0,1,2.092-.589A3.525,3.525,0,0,1,50,8.023a4.949,4.949,0,0,1,1,3.312v.813H45.131a2.7,2.7,0,0,0,.743,1.76,2.23,2.23,0,0,0,1.639.647,2.731,2.731,0,0,0,2.258-1.121l1.087,1.038a3.631,3.631,0,0,1-1.44,1.249A4.509,4.509,0,0,1,47.4,16.166Zm-.241-7.695a1.7,1.7,0,0,0-1.341.581,3.012,3.012,0,0,0-.652,1.619h3.843v-.149a2.452,2.452,0,0,0-.54-1.531A1.686,1.686,0,0,0,47.157,8.471Zm7.28-1.453.058,1.038a3.229,3.229,0,0,1,2.615-1.2q2.806,0,2.855,3.212V16H57.948V10.181a1.85,1.85,0,0,0-.369-1.266A1.554,1.554,0,0,0,56.371,8.5a1.944,1.944,0,0,0-1.818,1.1V16H52.536V7.019Zm11.272,7.537a1.824,1.824,0,0,0,1.253-.44,1.5,1.5,0,0,0,.531-1.087h1.9a2.963,2.963,0,0,1-.523,1.565,3.43,3.43,0,0,1-1.328,1.15,3.958,3.958,0,0,1-1.81.423,3.829,3.829,0,0,1-2.988-1.22,4.84,4.84,0,0,1-1.1-3.37v-.208a4.759,4.759,0,0,1,1.1-3.283,3.8,3.8,0,0,1,2.988-1.233,3.69,3.69,0,0,1,2.611.934,3.345,3.345,0,0,1,1.058,2.453h-1.9a1.847,1.847,0,0,0-.527-1.27,1.7,1.7,0,0,0-1.258-.5,1.775,1.775,0,0,0-1.511.71,3.621,3.621,0,0,0-.54,2.154v.324a3.682,3.682,0,0,0,.527,2.179A1.773,1.773,0,0,0,65.709,14.556ZM73.063,16H71.046V7.019h2.017ZM70.922,4.686a1.071,1.071,0,0,1,.295-.772,1.113,1.113,0,0,1,.843-.307,1.127,1.127,0,0,1,.847.307,1.062,1.062,0,0,1,.3.772,1.038,1.038,0,0,1-.3.76,1.136,1.136,0,0,1-.847.3,1.122,1.122,0,0,1-.843-.3A1.046,1.046,0,0,1,70.922,4.686ZM80.625,16a3.113,3.113,0,0,1-.232-.838,3.393,3.393,0,0,1-4.565.232,2.47,2.47,0,0,1-.855-1.909,2.55,2.55,0,0,1,1.067-2.2,5.169,5.169,0,0,1,3.051-.768h1.237V9.924a1.573,1.573,0,0,0-.39-1.116,1.547,1.547,0,0,0-1.187-.419,1.777,1.777,0,0,0-1.129.344,1.066,1.066,0,0,0-.44.876H75.164a2.239,2.239,0,0,1,.49-1.382,3.263,3.263,0,0,1,1.332-1.009,4.68,4.68,0,0,1,1.88-.365,3.769,3.769,0,0,1,2.515.793,2.827,2.827,0,0,1,.963,2.229v4.051a4.591,4.591,0,0,0,.34,1.934V16Zm-2.216-1.453a2.294,2.294,0,0,0,1.125-.291,1.941,1.941,0,0,0,.793-.78V11.783H79.239a2.973,2.973,0,0,0-1.685.39,1.264,1.264,0,0,0-.564,1.1,1.179,1.179,0,0,0,.386.926A1.5,1.5,0,0,0,78.409,14.547ZM94.056,16a3.113,3.113,0,0,1-.232-.838,3.393,3.393,0,0,1-4.565.232,2.47,2.47,0,0,1-.855-1.909,2.55,2.55,0,0,1,1.067-2.2,5.169,5.169,0,0,1,3.051-.768h1.237V9.924a1.573,1.573,0,0,0-.39-1.116,1.547,1.547,0,0,0-1.187-.419,1.777,1.777,0,0,0-1.129.344,1.066,1.066,0,0,0-.44.876H88.594a2.239,2.239,0,0,1,.49-1.382,3.263,3.263,0,0,1,1.332-1.009,4.68,4.68,0,0,1,1.88-.365,3.769,3.769,0,0,1,2.515.793,2.827,2.827,0,0,1,.963,2.229v4.051a4.591,4.591,0,0,0,.34,1.934V16ZM91.84,14.547a2.294,2.294,0,0,0,1.125-.291,1.941,1.941,0,0,0,.793-.78V11.783H92.67a2.973,2.973,0,0,0-1.685.39,1.264,1.264,0,0,0-.564,1.1,1.179,1.179,0,0,0,.386.926A1.5,1.5,0,0,0,91.84,14.547ZM105.769,11.6a5.4,5.4,0,0,1-.934,3.329,3.042,3.042,0,0,1-2.569,1.237,2.93,2.93,0,0,1-2.457-1.137l-.1.971H97.883V3.25H99.9V7.882a2.92,2.92,0,0,1,2.349-1.029,3.077,3.077,0,0,1,2.582,1.22,5.484,5.484,0,0,1,.938,3.412Zm-2.017-.174a3.813,3.813,0,0,0-.515-2.191,1.714,1.714,0,0,0-1.494-.73A1.873,1.873,0,0,0,99.9,9.65v3.7a1.892,1.892,0,0,0,1.859,1.17,1.7,1.7,0,0,0,1.461-.706,3.7,3.7,0,0,0,.531-2.133Zm8.741,2.133a.914.914,0,0,0-.444-.822,4.723,4.723,0,0,0-1.473-.5,7.574,7.574,0,0,1-1.718-.548,2.293,2.293,0,0,1-1.511-2.117,2.391,2.391,0,0,1,.979-1.942,3.872,3.872,0,0,1,2.49-.78,4.029,4.029,0,0,1,2.6.8,2.529,2.529,0,0,1,.992,2.067h-2.017a1.243,1.243,0,0,0-.432-.967,1.654,1.654,0,0,0-1.146-.386,1.787,1.787,0,0,0-1.083.307.968.968,0,0,0-.419.822.818.818,0,0,0,.39.722,5.365,5.365,0,0,0,1.577.519,7.466,7.466,0,0,1,1.864.623,2.639,2.639,0,0,1,1,.867,2.212,2.212,0,0,1,.328,1.229,2.34,2.34,0,0,1-1,1.963,4.283,4.283,0,0,1-2.631.751,4.644,4.644,0,0,1-1.967-.4,3.238,3.238,0,0,1-1.345-1.1,2.594,2.594,0,0,1-.481-1.5h1.959a1.421,1.421,0,0,0,.54,1.1,2.1,2.1,0,0,0,1.32.386,2.04,2.04,0,0,0,1.212-.3A.938.938,0,0,0,112.492,13.56Zm3.362-2.133a5.3,5.3,0,0,1,.523-2.378,3.819,3.819,0,0,1,1.469-1.627,4.14,4.14,0,0,1,2.175-.569,3.923,3.923,0,0,1,2.951,1.17,4.6,4.6,0,0,1,1.224,3.1l.008.473a5.343,5.343,0,0,1-.51,2.374,3.773,3.773,0,0,1-1.461,1.619,4.17,4.17,0,0,1-2.2.573A3.9,3.9,0,0,1,117,14.9a4.848,4.848,0,0,1-1.141-3.374Zm2.017.174a3.619,3.619,0,0,0,.573,2.171,1.862,1.862,0,0,0,1.594.784,1.842,1.842,0,0,0,1.59-.8,4,4,0,0,0,.569-2.333,3.572,3.572,0,0,0-.585-2.158,1.973,1.973,0,0,0-3.158-.012A3.922,3.922,0,0,0,117.871,11.6ZM128.056,16h-2.017V3.25h2.017Zm7.637-.88a3.128,3.128,0,0,1-2.523,1.046,2.788,2.788,0,0,1-2.212-.855,3.637,3.637,0,0,1-.751-2.474V7.019h2.017v5.794q0,1.71,1.419,1.71a1.993,1.993,0,0,0,1.984-1.054V7.019h2.017V16h-1.9Zm6.533-10.285V7.019h1.585V8.513h-1.585v5.014a1.1,1.1,0,0,0,.2.743.943.943,0,0,0,.726.228,3.107,3.107,0,0,0,.706-.083v1.561a4.968,4.968,0,0,1-1.328.191q-2.324,0-2.324-2.565V8.513h-1.478V7.019h1.478V4.835ZM150.717,16a3.113,3.113,0,0,1-.232-.838,3.393,3.393,0,0,1-4.565.232,2.47,2.47,0,0,1-.855-1.909,2.55,2.55,0,0,1,1.067-2.2,5.169,5.169,0,0,1,3.051-.768h1.237V9.924a1.573,1.573,0,0,0-.39-1.116,1.547,1.547,0,0,0-1.187-.419,1.777,1.777,0,0,0-1.129.344,1.066,1.066,0,0,0-.44.876h-2.017a2.239,2.239,0,0,1,.49-1.382,3.263,3.263,0,0,1,1.332-1.009,4.68,4.68,0,0,1,1.88-.365,3.769,3.769,0,0,1,2.515.793,2.827,2.827,0,0,1,.963,2.229v4.051a4.591,4.591,0,0,0,.34,1.934V16ZM148.5,14.547a2.294,2.294,0,0,0,1.125-.291,1.941,1.941,0,0,0,.793-.78V11.783h-1.087a2.973,2.973,0,0,0-1.685.39,1.264,1.264,0,0,0-.564,1.1,1.179,1.179,0,0,0,.386.926A1.5,1.5,0,0,0,148.5,14.547Zm10.31-3.461a12.649,12.649,0,0,1,.515-3.64,9.991,9.991,0,0,1,1.511-3.08,6,6,0,0,1,2.108-1.905l.4,1.179a6.162,6.162,0,0,0-1.9,2.71,12.138,12.138,0,0,0-.793,4.171l-.008.714a13.2,13.2,0,0,0,.71,4.487,6.612,6.612,0,0,0,1.988,3l-.4,1.121a6.009,6.009,0,0,1-2.113-1.913,9.989,9.989,0,0,1-1.511-3.08A13.148,13.148,0,0,1,158.811,11.086ZM165.418,16V8.513h-1.37V7.019h1.37V6.2a3.085,3.085,0,0,1,.83-2.308,3.18,3.18,0,0,1,2.324-.813,4.662,4.662,0,0,1,1.129.149l-.05,1.577a3.973,3.973,0,0,0-.772-.066,1.3,1.3,0,0,0-1.444,1.486v.8h1.826V8.513h-1.826V16Zm9.372-4.781a12.489,12.489,0,0,1-.506,3.557,10.078,10.078,0,0,1-1.536,3.121,6.014,6.014,0,0,1-2.15,1.947l-.4-1.121a6.379,6.379,0,0,0,1.971-2.943,13.071,13.071,0,0,0,.726-4.52v-.191a13.264,13.264,0,0,0-.631-4.2,7.416,7.416,0,0,0-1.81-3.042L170.2,3.59l.4-1.129a5.951,5.951,0,0,1,2.059,1.826,9.909,9.909,0,0,1,1.527,2.934,12.222,12.222,0,0,1,.6,3.349Z" transform="translate(741 6326)" fill="#12263f"/>
        <circle id="Elipse_11539" data-name="Elipse 11539" cx="18.5" cy="18.5" r="18.5" transform="translate(696 6317)" fill="#6cdfd4"/>
      </g>
    </g>
  </g>
</svg>
