<svg xmlns="http://www.w3.org/2000/svg" xmlns:xlink="http://www.w3.org/1999/xlink" width="139" height="139.361" viewBox="0 0 139 139.361">
  <defs>
    <clipPath id="clip-path">
      <rect id="Rectángulo_401124" data-name="Rectángulo 401124" width="79.045" height="79.046" fill="#075214"/>
    </clipPath>
    <clipPath id="clip-path-2">
      <rect id="Rectángulo_400938" data-name="Rectángulo 400938" width="139" height="139" transform="translate(-0.043 -0.043)" fill="none"/>
    </clipPath>
    <clipPath id="clip-path-3">
      <rect id="Rectángulo_401755" data-name="Rectángulo 401755" width="74.462" height="75.106" fill="#123e3a"/>
    </clipPath>
  </defs>
  <g id="img13" transform="translate(-421 -7427.902)">
    <g id="Grupo_1100885" data-name="Grupo 1100885" transform="translate(156.043 2144.306)">
      <g id="Grupo_1099379" data-name="Grupo 1099379" transform="translate(265 5284)">
        <g id="Grupo_1099472" data-name="Grupo 1099472" transform="translate(0 -0.404)" clip-path="url(#clip-path)">
          <path id="Trazado_873498" data-name="Trazado 873498" d="M23.156,78.743q.49.4.991.773L79.516,24.147q-.378-.5-.773-.991Z" transform="translate(-8.429 -8.429)" fill="#075214"/>
          <path id="Trazado_873499" data-name="Trazado 873499" d="M44.424,93.595c.459.136.921.261,1.383.38L93.974,45.808c-.12-.462-.244-.924-.38-1.383Z" transform="translate(-16.17 -16.171)" fill="#075214"/>
          <path id="Trazado_873500" data-name="Trazado 873500" d="M29.485,83.9q.549.339,1.106.658L84.559,30.591q-.32-.557-.658-1.106Z" transform="translate(-10.733 -10.733)" fill="#075214"/>
          <path id="Trazado_873501" data-name="Trazado 873501" d="M36.544,88.859q.612.277,1.231.532L89.39,37.776q-.255-.619-.532-1.231Z" transform="translate(-13.302 -13.302)" fill="#075214"/>
          <path id="Trazado_873502" data-name="Trazado 873502" d="M53.3,98.058q.784.112,1.572.191L98.248,54.874c-.054-.525-.116-1.049-.191-1.572Z" transform="translate(-19.402 -19.402)" fill="#075214"/>
          <path id="Trazado_873503" data-name="Trazado 873503" d="M17.941,73.849c.148.148.3.291.446.436l55.9-55.9c-.145-.149-.288-.3-.436-.446s-.3-.291-.446-.435l-55.9,55.9c.144.149.287.3.435.446" transform="translate(-6.372 -6.372)" fill="#075214"/>
          <path id="Trazado_873504" data-name="Trazado 873504" d="M63.5,102.161q.924-.02,1.848-.084l36.726-36.726q.063-.923.083-1.847Z" transform="translate(-23.115 -23.116)" fill="#075214"/>
          <path id="Trazado_873505" data-name="Trazado 873505" d="M105.688,75.821,75.82,105.689q1.2-.268,2.375-.611L105.077,78.2q.343-1.179.611-2.375" transform="translate(-27.599 -27.599)" fill="#075214"/>
          <path id="Trazado_873506" data-name="Trazado 873506" d="M.084,36.81Q.021,37.733,0,38.658L38.657,0q-.924.02-1.848.084Z" transform="translate(0 0)" fill="#075214"/>
          <path id="Trazado_873507" data-name="Trazado 873507" d="M.313,43.687c.054.525.116,1.049.191,1.573L45.26.5Q44.475.392,43.687.313Z" transform="translate(-0.114 -0.114)" fill="#075214"/>
          <path id="Trazado_873508" data-name="Trazado 873508" d="M93.715,107.7A39.84,39.84,0,0,0,107.7,93.715Z" transform="translate(-34.112 -34.113)" fill="#075214"/>
          <path id="Trazado_873509" data-name="Trazado 873509" d="M2.113,29q-.342,1.179-.611,2.375L31.37,1.5q-1.194.268-2.375.611Z" transform="translate(-0.547 -0.547)" fill="#075214"/>
          <path id="Trazado_873510" data-name="Trazado 873510" d="M22.567,8.582A39.821,39.821,0,0,0,8.581,22.568Z" transform="translate(-3.124 -3.124)" fill="#075214"/>
          <path id="Trazado_873511" data-name="Trazado 873511" d="M8.207,62.176q.32.557.658,1.106L63.281,8.866q-.549-.339-1.106-.658Z" transform="translate(-2.987 -2.988)" fill="#075214"/>
          <path id="Trazado_873512" data-name="Trazado 873512" d="M12.512,67.882q.378.5.773.991L68.872,13.286q-.49-.4-.991-.773Z" transform="translate(-4.554 -4.555)" fill="#075214"/>
          <path id="Trazado_873513" data-name="Trazado 873513" d="M1.953,50.12c.119.463.244.925.38,1.384L51.5,2.334c-.459-.137-.921-.261-1.384-.38Z" transform="translate(-0.711 -0.711)" fill="#075214"/>
          <path id="Trazado_873514" data-name="Trazado 873514" d="M4.649,56.264q.255.619.532,1.231L57.5,5.181q-.612-.277-1.231-.532Z" transform="translate(-1.692 -1.692)" fill="#075214"/>
        </g>
        <rect id="Rectángulo_401103" data-name="Rectángulo 401103" width="139" height="139" transform="translate(-0.043 -0.043)" fill="none"/>
        <path id="Trazado_873425" data-name="Trazado 873425" d="M57.977,0A57.977,57.977,0,1,1,0,57.977,57.977,57.977,0,0,1,57.977,0Z" transform="translate(17.221 20.665)" fill="#6cdfd4"/>
        <circle id="Elipse_11503" data-name="Elipse 11503" cx="60.5" cy="60.5" r="60.5" transform="translate(8.957 8.957)" fill="#fff"/>
      </g>
    </g>
    <g id="Grupo_1100931" data-name="Grupo 1100931" transform="translate(453.269 7457.029)">
      <g id="Grupo_1100930" data-name="Grupo 1100930" clip-path="url(#clip-path-3)">
        <path id="Trazado_873994" data-name="Trazado 873994" d="M54.9,210.6H84.04a4.536,4.536,0,0,1,.857.582c.366.508.366,5.761,0,6.271a1.337,1.337,0,0,1-2.177-.257v-3.958H54.9V217.2c0,.9-2.4.9-2.4,0v-3.958H23.953v3.718c0,.938-1.957,1.506-2.353.194-.191-.632-.123-5.553.176-5.968a4.544,4.544,0,0,1,.857-.582H52.5v-3.958c0-.9,2.4-.9,2.4,0Z" transform="translate(-16.338 -156.562)" fill="#123e3a"/>
        <path id="Trazado_873995" data-name="Trazado 873995" d="M1.556,259.83a57.9,57.9,0,0,1,9.3-.064c.9.1,1.443.391,1.565,1.313a68.17,68.17,0,0,1,0,9.859,1.359,1.359,0,0,1-1.319,1.319,63.049,63.049,0,0,1-9.139,0c-1.158-.106-1.646-.317-1.793-1.566a62.759,62.759,0,0,1,0-9.363c.115-.988.393-1.316,1.381-1.5m8.457,2.58H2.577v7.076a2.409,2.409,0,0,0,.36.36h7.076Z" transform="translate(0 -197.338)" fill="#123e3a"/>
        <path id="Trazado_873996" data-name="Trazado 873996" d="M259.211,261.2a1.468,1.468,0,0,1,1.525.3c1.609,3.252,4.121,6.47,5.633,9.718.677,1.455.06,2.042-1.438,2.179a73.418,73.418,0,0,1-10.57-.006c-.858-.1-1.413-.41-1.536-1.324l5.865-10.427a.964.964,0,0,1,.52-.443m3.911,9.79A18.159,18.159,0,0,0,261,266.75c-.243-.4-.942-1.856-1.358-1.757a40.665,40.665,0,0,0-3.053,5.1,1.452,1.452,0,0,0-.188.891Z" transform="translate(-192.18 -198.481)" fill="#123e3a"/>
        <path id="Trazado_873997" data-name="Trazado 873997" d="M142.445,266.921a6.133,6.133,0,1,1-6.133-6.133,6.133,6.133,0,0,1,6.133,6.133m-2.453.005a3.68,3.68,0,1,0-3.68,3.68,3.68,3.68,0,0,0,3.68-3.68" transform="translate(-98.953 -198.232)" fill="#123e3a"/>
        <path id="Trazado_873998" data-name="Trazado 873998" d="M99.462,29.627c.057,1.261-1.842,4-1.876,4.859-.045,1.148,1.737,2.565,1.3,4.029a57.476,57.476,0,0,1-5,5.1c-.845.379-2.494-.951-3.4-1.167-1.547-.37-3.691,1.434-5.36,1.748-.734.642-1.184,3.548-1.948,3.809-.348.119-7.009.119-7.359,0-.7-.238-1.35-3.115-1.753-3.82-1.337-.006-3.791-1.826-4.777-1.891-1.172-.077-3.111,1.626-4.014,1.4a55.561,55.561,0,0,1-5.085-5.007c-.641-1.387,1.385-3.238,1.2-4.336-.194-1.131-1.834-3.267-1.852-4.718-.884-.548-3.434-.9-3.846-1.792a39.782,39.782,0,0,1-.172-7.014c.252-1.325,3.2-1.356,3.937-2.3.711-.915,1.081-3.56,1.956-4.66-.228-1.322-1.664-2.873-1.238-4.211.194-.61,4.529-4.877,5.111-4.99,1.1-.213,3.185,1.619,4.2,1.361.986-.958,3.637-1.242,4.5-2s.8-3.267,1.985-3.772A31.471,31.471,0,0,1,82.684.119c1.445.32,1.389,2.413,2.038,3.479.666,1.094,3.852,1.537,4.983,2.469,1.254-.113,3.032-1.7,4.193-1.344a37.317,37.317,0,0,1,4.847,4.76c.715,1.641-1.405,3.381-1.077,4.664.07.272,1.728,4.188,1.87,4.378.592.791,3.437,1.114,3.827,1.93a34.658,34.658,0,0,1-.058,7.38c-.412.891-2.962,1.245-3.846,1.792m1.584-3.214a23.712,23.712,0,0,0-.07-4.528c-.253-.379-2.814-.8-3.364-1.433-.277-.32-1.22-3.4-1.56-4.2-.324-.756-1.22-1.74-1.107-2.522.109-.758,1.5-2.807,1.237-3.344a30.148,30.148,0,0,0-3.128-3.059c-.441-.036-2.522,1.524-3.582,1.376-.431-.06-1.886-1.049-2.546-1.315-.851-.343-3.107-.895-3.582-1.215-.984-.664-.951-3.509-2.047-3.71a18.986,18.986,0,0,0-3.962.116c-.54.325-.863,2.9-1.541,3.5-.314.274-3.12,1.066-3.894,1.384-.982.4-2.008,1.386-3.015,1.195-.6-.113-2.8-1.4-3.065-1.28a31.951,31.951,0,0,0-3.076,3.161c-.116.618,1.477,2.734,1.361,3.506a27.017,27.017,0,0,1-1.441,2.894c-.42,1.023-.947,3.353-1.7,3.812-.63.382-2.439.711-2.815,1.023-.515.427-.141,3.766-.2,4.642.853.544,2.8.755,3.429,1.487.482.561.862,2.506,1.212,3.345.421,1.009,1.607,2.579,1.4,3.545-.193.9-1.586,2.513-1.067,3.3a30.769,30.769,0,0,0,2.834,2.72c.929.254,2.421-1.293,3.762-1.161.745.073,1.4.793,2.065,1.072,1.133.474,3.984,1.143,4.5,1.979.272.443,1,2.912,1.163,2.957l4.617-.049c.2-.126.749-2.822,1.338-3.339.41-.36,3.5-1.254,4.377-1.62,1.144-.481,1.244-1.188,2.725-.9,1.118.215,2.154,1.514,3.239.872a28.29,28.29,0,0,0,2.7-2.8c.15-.759-1.414-2.6-1.328-3.531A28.457,28.457,0,0,1,96.4,31.246a24.652,24.652,0,0,1,1.111-3.206c.594-.86,2.626-1.065,3.53-1.626" transform="translate(-42.138 0)" fill="#123e3a"/>
        <path id="Trazado_873999" data-name="Trazado 873999" d="M129.8,62.7a11.969,11.969,0,1,1-11.969-11.968A11.969,11.969,0,0,1,129.8,62.7m-2.431.024a9.539,9.539,0,1,0-9.539,9.539,9.539,9.539,0,0,0,9.539-9.539" transform="translate(-80.466 -38.562)" fill="#123e3a"/>
        <path id="Trazado_874000" data-name="Trazado 874000" d="M142.078,75.3c2.4-2.651-1.56-5-3.379-3.019-.944,1.03-.138,2.92-1.917,2.85-1.887-.074-.961-3.006-.24-4.047,2.67-3.857,9.177-1.682,8.742,3.221-.2,2.254-2.1,2.756-2.992,4.208-.514.835-.189,1.859-1.448,1.932-2.422.141-.918-3.021,0-4.1.393-.463.935-.711,1.236-1.044" transform="translate(-103.125 -52.535)" fill="#123e3a"/>
        <path id="Trazado_874001" data-name="Trazado 874001" d="M153.49,121.653a1.507,1.507,0,1,1-1.507-1.507,1.507,1.507,0,0,1,1.507,1.507" transform="translate(-114.382 -91.326)" fill="#123e3a"/>
      </g>
    </g>
  </g>
</svg>
