<svg xmlns="http://www.w3.org/2000/svg" xmlns:xlink="http://www.w3.org/1999/xlink" width="139" height="139" viewBox="0 0 139 139">
  <defs>
    <clipPath id="clip-path">
      <rect id="Rectángulo_401124" data-name="Rectángulo 401124" width="79.045" height="79.046" fill="#075214"/>
    </clipPath>
    <clipPath id="clip-path-2">
      <rect id="Rectángulo_400938" data-name="Rectángulo 400938" width="139" height="139" transform="translate(-0.043 -0.043)" fill="none"/>
    </clipPath>
    <clipPath id="clip-path-3">
      <rect id="Rectángulo_401756" data-name="Rectángulo 401756" width="77.982" height="73.43" fill="#075214"/>
    </clipPath>
  </defs>
  <g id="img14" transform="translate(-1041 -7428.263)">
    <g id="Grupo_1100887" data-name="Grupo 1100887" transform="translate(776.043 2144.306)">
      <g id="Grupo_1099379" data-name="Grupo 1099379" transform="translate(265 5284)">
        <g id="Grupo_1099472" data-name="Grupo 1099472" clip-path="url(#clip-path)">
          <path id="Trazado_873498" data-name="Trazado 873498" d="M23.156,78.743q.49.4.991.773L79.516,24.147q-.378-.5-.773-.991Z" transform="translate(-8.429 -8.429)" fill="#075214"/>
          <path id="Trazado_873499" data-name="Trazado 873499" d="M44.424,93.595c.459.136.921.261,1.383.38L93.974,45.808c-.12-.462-.244-.924-.38-1.383Z" transform="translate(-16.17 -16.171)" fill="#075214"/>
          <path id="Trazado_873500" data-name="Trazado 873500" d="M29.485,83.9q.549.339,1.106.658L84.559,30.591q-.32-.557-.658-1.106Z" transform="translate(-10.733 -10.733)" fill="#075214"/>
          <path id="Trazado_873501" data-name="Trazado 873501" d="M36.544,88.859q.612.277,1.231.532L89.39,37.776q-.255-.619-.532-1.231Z" transform="translate(-13.302 -13.302)" fill="#075214"/>
          <path id="Trazado_873502" data-name="Trazado 873502" d="M53.3,98.058q.784.112,1.572.191L98.248,54.874c-.054-.525-.116-1.049-.191-1.572Z" transform="translate(-19.402 -19.402)" fill="#075214"/>
          <path id="Trazado_873503" data-name="Trazado 873503" d="M17.941,73.849c.148.148.3.291.446.436l55.9-55.9c-.145-.149-.288-.3-.436-.446s-.3-.291-.446-.435l-55.9,55.9c.144.149.287.3.435.446" transform="translate(-6.372 -6.372)" fill="#075214"/>
          <path id="Trazado_873504" data-name="Trazado 873504" d="M63.5,102.161q.924-.02,1.848-.084l36.726-36.726q.063-.923.083-1.847Z" transform="translate(-23.115 -23.116)" fill="#075214"/>
          <path id="Trazado_873505" data-name="Trazado 873505" d="M105.688,75.821,75.82,105.689q1.2-.268,2.375-.611L105.077,78.2q.343-1.179.611-2.375" transform="translate(-27.599 -27.599)" fill="#075214"/>
          <path id="Trazado_873506" data-name="Trazado 873506" d="M.084,36.81Q.021,37.733,0,38.658L38.657,0q-.924.02-1.848.084Z" transform="translate(0 0)" fill="#075214"/>
          <path id="Trazado_873507" data-name="Trazado 873507" d="M.313,43.687c.054.525.116,1.049.191,1.573L45.26.5Q44.475.392,43.687.313Z" transform="translate(-0.114 -0.114)" fill="#075214"/>
          <path id="Trazado_873508" data-name="Trazado 873508" d="M93.715,107.7A39.84,39.84,0,0,0,107.7,93.715Z" transform="translate(-34.112 -34.113)" fill="#075214"/>
          <path id="Trazado_873509" data-name="Trazado 873509" d="M2.113,29q-.342,1.179-.611,2.375L31.37,1.5q-1.194.268-2.375.611Z" transform="translate(-0.547 -0.547)" fill="#075214"/>
          <path id="Trazado_873510" data-name="Trazado 873510" d="M22.567,8.582A39.821,39.821,0,0,0,8.581,22.568Z" transform="translate(-3.124 -3.124)" fill="#075214"/>
          <path id="Trazado_873511" data-name="Trazado 873511" d="M8.207,62.176q.32.557.658,1.106L63.281,8.866q-.549-.339-1.106-.658Z" transform="translate(-2.987 -2.988)" fill="#075214"/>
          <path id="Trazado_873512" data-name="Trazado 873512" d="M12.512,67.882q.378.5.773.991L68.872,13.286q-.49-.4-.991-.773Z" transform="translate(-4.554 -4.555)" fill="#075214"/>
          <path id="Trazado_873513" data-name="Trazado 873513" d="M1.953,50.12c.119.463.244.925.38,1.384L51.5,2.334c-.459-.137-.921-.261-1.384-.38Z" transform="translate(-0.711 -0.711)" fill="#075214"/>
          <path id="Trazado_873514" data-name="Trazado 873514" d="M4.649,56.264q.255.619.532,1.231L57.5,5.181q-.612-.277-1.231-.532Z" transform="translate(-1.692 -1.692)" fill="#075214"/>
        </g>
        <rect id="Rectángulo_401103" data-name="Rectángulo 401103" width="139" height="139" transform="translate(-0.043 -0.043)" fill="none"/>
        <path id="Trazado_873425" data-name="Trazado 873425" d="M57.977,0A57.977,57.977,0,1,1,0,57.977,57.977,57.977,0,0,1,57.977,0Z" transform="translate(17.221 20.665)" fill="#99eca7"/>
        <circle id="Elipse_11503" data-name="Elipse 11503" cx="60.5" cy="60.5" r="60.5" transform="translate(8.957 8.957)" fill="#fff"/>
      </g>
    </g>
    <g id="Grupo_1100888" data-name="Grupo 1100888" transform="translate(724 1034.263)">
      <g id="Grupo_1099389" data-name="Grupo 1099389" transform="translate(347.893 6422.744)">
        <rect id="Rectángulo_401104" data-name="Rectángulo 401104" width="78" height="79" transform="translate(0.107 0.256)" fill="none"/>
      </g>
    </g>
    <g id="Grupo_1100933" data-name="Grupo 1100933" transform="translate(1071.509 7460.047)">
      <g id="Grupo_1100932" data-name="Grupo 1100932" clip-path="url(#clip-path-3)">
        <path id="Trazado_874002" data-name="Trazado 874002" d="M16.572,9.1c.6-5.31,5.322-8.7,10.4-8.955,8.538-.424,17.249.2,25.785.161A10.429,10.429,0,0,1,61.377,9.47l.014,21.963A21.468,21.468,0,0,1,77.659,48.588c3.613,21.7-23.943,33.957-37.882,16.453-.145-.182-.632-1.044-.682-1.085-.083-.068-.171-.008-.251.077-.377.4-.8,1.2-1.211,1.685-.523.625-2.12,2.452-2.819,2.664a1.131,1.131,0,0,1-1.347-1.6c.148-.36,2.011-2.1,2.461-2.651,9.042-11.145,2.867-28.019-11.176-30.58A18.953,18.953,0,1,0,27.23,70.168c1.016-.338,2.97-1.734,3.712-.555.857,1.361-.983,1.977-1.919,2.349a21.264,21.264,0,1,1-10.5-40.883L11.8,20.819a2.337,2.337,0,0,1,.817-2.768,6.963,6.963,0,0,1,.732-.364H16.39a1.222,1.222,0,0,0,.183-.183ZM59.066,31.08V9.346c0-2.841-3.7-6.517-6.547-6.724C44.073,2.69,35.425,2,26.977,2.461c-3.365.183-6.24,1.794-7.541,5-1.307,3.222-.074,7.95-.561,11.371A1.356,1.356,0,0,1,17.729,20H14.016L21.26,30.834,28.5,20H24.791a1.278,1.278,0,0,1-1.16-1.154c.18-2.681-.228-5.641,0-8.287a3.523,3.523,0,0,1,2.2-3.036,20.679,20.679,0,0,1,4.922-.18,1.153,1.153,0,0,1,.2,2.131c-1.443.452-4.806-.872-5,1.327a45.722,45.722,0,0,0,0,6.465c.014.123.056.42.189.42h2.922a6.794,6.794,0,0,1,.833.385A2.409,2.409,0,0,1,30.31,21.5L24,31.016c.041.206,1.39.293,1.709.364a21.712,21.712,0,0,1,11.5,6.76c.278.315,1.624,2.243,1.823,2.193.131-.033,1.369-1.825,1.642-2.134a21.786,21.786,0,0,1,11.311-6.77L52,10.572c-.1-.682-.629-.964-1.27-1.043L35.513,9.522a1.111,1.111,0,0,1,.112-2.188l15.818.016a3.553,3.553,0,0,1,2.875,2.97V30.9c0,.28.6.059.786.055a25.186,25.186,0,0,1,3.962.128M54.78,33.308a19.168,19.168,0,0,0-13.176,7.4c-.305.41-1.336,1.8-1.27,2.211.054.333.643,1.321.805,1.764a21.524,21.524,0,0,1-.816,16.9A18.92,18.92,0,0,0,68.5,67C83.188,55.266,73.664,31.644,54.78,33.308" transform="translate(0 0)" fill="#075214"/>
        <path id="Trazado_874003" data-name="Trazado 874003" d="M90.221,326.843c1.437-2.26,2.627-5.083,5.666-5.355,2.325-.208,5.206.145,5.525,2.994.294,2.626-1.68,3.985-4.065,4.188l-4.036,6.147,2.028,4.932c.183.05.2-.049.3-.119.969-.667,1.475-1.934,2.806-2.308A3.5,3.5,0,0,1,103,341.383c-.167,1.217-3.215,4.3-4.288,4.965a6.579,6.579,0,0,1-8.782-1.736c-.593-.86-.793-1.811-1.348-2.668-1.508,1.8-2.415,4.54-4.906,5.2a5.606,5.606,0,0,1-4.127-.306,3.532,3.532,0,0,1,1.639-6.505l4.163-6.362-2.2-5.405c-2.751.285-5.18-1.8-4.335-4.667.825-2.8,4.486-2.617,6.849-2.413,2.906.251,3.261,3.065,4.265,5.232ZM89.7,338.569a26.564,26.564,0,0,1,1.517,3.537,4.332,4.332,0,0,0,3.026,2.819c2.994.741,4.6-1.849,6.391-3.716.282-1.075-.14-1.872-1.329-1.7-.991.148-2.28,2.474-3.369,2.962a1.755,1.755,0,0,1-2.359-1.024l-2.735-6.765a1.417,1.417,0,0,1,.234-.724c1.193-2.415,3.605-4.942,4.929-7.367.555-.63,1.442-.243,2.168-.389a1.228,1.228,0,0,0-.091-2.41c-1.541-.182-2.865-.123-3.889,1.109-.727.874-3.239,5.271-3.848,5.527a1.205,1.205,0,0,1-1.563-.5c-.895-1.448-1.362-3.927-2.24-5.43a1.292,1.292,0,0,0-1-.7,22.378,22.378,0,0,0-3.415,0,1.224,1.224,0,0,0-.113,2.432c.879.146,2.2-.358,2.789.5l2.93,6.931a1.447,1.447,0,0,1-.257,1.333A58.527,58.527,0,0,1,82.793,342c-.71.819-.853.517-1.734.7-1.346.281-1.2,2.287.576,2.411a3.133,3.133,0,0,0,2.965-1.428c1.225-1.575,2.181-3.515,3.427-5.1a1.282,1.282,0,0,1,1.672-.018" transform="translate(-68.415 -282.249)" fill="#075214"/>
        <path id="Trazado_874004" data-name="Trazado 874004" d="M372.821,326.939c.092-.065.964-1.575,1.222-1.884,1.8-2.151,5.108-3.838,7.962-3.463a3.56,3.56,0,0,1,1.777,6.14c-1.369,1.205-2.988.5-4.128,1.595-1.713,1.652-3.1,5.246-4.763,7.048a1.15,1.15,0,0,1-2.014-1.036c1.569-2.18,2.935-4.9,4.593-6.978,1.543-1.931,2.145-1.583,4.249-2.082a1.21,1.21,0,0,0-.078-2.375,7.4,7.4,0,0,0-5.41,2.123c-.742.751-2.821,4.376-3.374,4.54a1.2,1.2,0,0,1-1.479-.54c-.865-1.481-1.356-3.835-2.184-5.364a1.406,1.406,0,0,0-1.057-.769,22.293,22.293,0,0,0-3.295,0,1.223,1.223,0,0,0-.12,2.443c.916.108,2.144-.368,2.725.563,1.166,1.869,1.769,4.871,2.88,6.86.212.548-.023.882-.255,1.331a44.134,44.134,0,0,1-4.566,6.514,5.322,5.322,0,0,1-2.033,1.011c-.892.2-2.186-.069-2.316,1.219-.2,2.011,2.934,1.2,3.968.8,2.888-1.118,3.133-3.011,4.845-5.017.943-1.1,2.371-.487,2.219.632a24.439,24.439,0,0,1-2.836,4.23,9.412,9.412,0,0,1-7.537,2.907c-3.386-.4-3.979-5.32-.852-6.669,1.49-.643,2.213.205,3.557-1.435,1.24-1.512,2.258-3.608,3.425-5.213l-2.2-5.405c-3.509.588-6.111-3.607-3.383-6.15,1.282-1.2,4.2-1.076,5.9-.93,3.159.272,3.051,3.068,4.222,5.153.066.117.19.312.337.208" transform="translate(-315.218 -282.345)" fill="#075214"/>
      </g>
    </g>
  </g>
</svg>
