<svg xmlns="http://www.w3.org/2000/svg" xmlns:xlink="http://www.w3.org/1999/xlink" width="145" height="145" viewBox="0 0 145 145">
  <defs>
    <clipPath id="clip-path">
      <rect id="Rectángulo_401124" data-name="Rectángulo 401124" width="79.045" height="79.046" fill="#075214"/>
    </clipPath>
    <clipPath id="clip-path-2">
      <rect id="Rectángulo_400938" data-name="Rectángulo 400938" width="145" height="145" transform="translate(0 -0.281)" fill="none"/>
    </clipPath>
    <clipPath id="clip-path-3">
      <rect id="Rectángulo_401753" data-name="Rectángulo 401753" width="86.021" height="75.245" fill="#123e3a"/>
    </clipPath>
  </defs>
  <g id="img10" transform="translate(-175 -9540.719)">
    <g id="Grupo_1099404" data-name="Grupo 1099404" transform="translate(175 9541)">
      <g id="Grupo_1099472" data-name="Grupo 1099472" transform="translate(0 -0.281)" clip-path="url(#clip-path)">
        <path id="Trazado_873498" data-name="Trazado 873498" d="M23.156,78.743q.49.4.991.773L79.516,24.147q-.378-.5-.773-.991Z" transform="translate(-8.429 -8.429)" fill="#075214"/>
        <path id="Trazado_873499" data-name="Trazado 873499" d="M44.424,93.595c.459.136.921.261,1.383.38L93.974,45.808c-.12-.462-.244-.924-.38-1.383Z" transform="translate(-16.17 -16.171)" fill="#075214"/>
        <path id="Trazado_873500" data-name="Trazado 873500" d="M29.485,83.9q.549.339,1.106.658L84.559,30.591q-.32-.557-.658-1.106Z" transform="translate(-10.733 -10.733)" fill="#075214"/>
        <path id="Trazado_873501" data-name="Trazado 873501" d="M36.544,88.859q.612.277,1.231.532L89.39,37.776q-.255-.619-.532-1.231Z" transform="translate(-13.302 -13.302)" fill="#075214"/>
        <path id="Trazado_873502" data-name="Trazado 873502" d="M53.3,98.058q.784.112,1.572.191L98.248,54.874c-.054-.525-.116-1.049-.191-1.572Z" transform="translate(-19.402 -19.402)" fill="#075214"/>
        <path id="Trazado_873503" data-name="Trazado 873503" d="M17.941,73.849c.148.148.3.291.446.436l55.9-55.9c-.145-.149-.288-.3-.436-.446s-.3-.291-.446-.435l-55.9,55.9c.144.149.287.3.435.446" transform="translate(-6.372 -6.372)" fill="#075214"/>
        <path id="Trazado_873504" data-name="Trazado 873504" d="M63.5,102.161q.924-.02,1.848-.084l36.726-36.726q.063-.923.083-1.847Z" transform="translate(-23.115 -23.116)" fill="#075214"/>
        <path id="Trazado_873505" data-name="Trazado 873505" d="M105.688,75.821,75.82,105.689q1.2-.268,2.375-.611L105.077,78.2q.343-1.179.611-2.375" transform="translate(-27.599 -27.599)" fill="#075214"/>
        <path id="Trazado_873506" data-name="Trazado 873506" d="M.084,36.81Q.021,37.733,0,38.658L38.657,0q-.924.02-1.848.084Z" transform="translate(0 0)" fill="#075214"/>
        <path id="Trazado_873507" data-name="Trazado 873507" d="M.313,43.687c.054.525.116,1.049.191,1.573L45.26.5Q44.475.392,43.687.313Z" transform="translate(-0.114 -0.114)" fill="#075214"/>
        <path id="Trazado_873508" data-name="Trazado 873508" d="M93.715,107.7A39.84,39.84,0,0,0,107.7,93.715Z" transform="translate(-34.112 -34.113)" fill="#075214"/>
        <path id="Trazado_873509" data-name="Trazado 873509" d="M2.113,29q-.342,1.179-.611,2.375L31.37,1.5q-1.194.268-2.375.611Z" transform="translate(-0.547 -0.547)" fill="#075214"/>
        <path id="Trazado_873510" data-name="Trazado 873510" d="M22.567,8.582A39.821,39.821,0,0,0,8.581,22.568Z" transform="translate(-3.124 -3.124)" fill="#075214"/>
        <path id="Trazado_873511" data-name="Trazado 873511" d="M8.207,62.176q.32.557.658,1.106L63.281,8.866q-.549-.339-1.106-.658Z" transform="translate(-2.987 -2.988)" fill="#075214"/>
        <path id="Trazado_873512" data-name="Trazado 873512" d="M12.512,67.882q.378.5.773.991L68.872,13.286q-.49-.4-.991-.773Z" transform="translate(-4.554 -4.555)" fill="#075214"/>
        <path id="Trazado_873513" data-name="Trazado 873513" d="M1.953,50.12c.119.463.244.925.38,1.384L51.5,2.334c-.459-.137-.921-.261-1.384-.38Z" transform="translate(-0.711 -0.711)" fill="#075214"/>
        <path id="Trazado_873514" data-name="Trazado 873514" d="M4.649,56.264q.255.619.532,1.231L57.5,5.181q-.612-.277-1.231-.532Z" transform="translate(-1.692 -1.692)" fill="#075214"/>
      </g>
      <g id="Grupo_1099379" data-name="Grupo 1099379" transform="translate(0 0)">
        <rect id="Rectángulo_401103" data-name="Rectángulo 401103" width="145" height="145" transform="translate(0 -0.281)" fill="none"/>
        <path id="Trazado_873425" data-name="Trazado 873425" d="M60.362,0A60.362,60.362,0,1,1,0,60.362,60.362,60.362,0,0,1,60.362,0Z" transform="translate(17.974 21.56)" fill="#99eca7"/>
        <circle id="Elipse_11503" data-name="Elipse 11503" cx="63" cy="63" r="63" transform="translate(9 9.719)" fill="#e6fffd"/>
      </g>
    </g>
    <g id="Grupo_1100927" data-name="Grupo 1100927" transform="translate(204.489 9575.596)">
      <g id="Grupo_1100926" data-name="Grupo 1100926" clip-path="url(#clip-path-3)">
        <path id="Trazado_873983" data-name="Trazado 873983" d="M32.285,13.339a3.754,3.754,0,0,1,3.843,3.791l.059,31.883L58.821,71.743c3.183,4.053-2.459,7.081-5.5,8.737C21.894,97.556-12.62,62.985,4.587,31.75c4.915-8.922,17.058-18.563,27.7-18.411m.089,3.653C8.114,19.751-4.649,47.985,9.984,67.969a32.383,32.383,0,0,0,42.066,9.1c.648-.367,4.029-2.428,3.926-3l-23.6-23.656Z" transform="translate(0 -9.757)" fill="#123e3a"/>
        <path id="Trazado_873984" data-name="Trazado 873984" d="M163.017.05c2.523-.39,8.706,1.6,11.169,2.66a36.247,36.247,0,0,1,20.707,24.656c.779,3.409,1.886,7.9-2.942,8.333-9.064.8-19.288-.634-28.477,0a3.925,3.925,0,0,1-3.62-4.164c.664-8.86-.857-18.94.013-27.654.191-1.911,1.14-3.522,3.15-3.833m.6,3.7V7.772l3.105-2.789.384-.7a9.59,9.59,0,0,0-3.489-.541m0,18.521L177.307,8.712c.008-.5-5.276-3.248-6.25-3.093-.516.082-6.155,6.869-7.435,7.254Zm0,5.234V31.93h4.7l16.39-16.376c.179-.2.106-.326,0-.532-.632-1.23-3.411-3.047-4.311-4.292Zm9.932,4.429h9.26c.522,0,6.321-6.66,7.339-7.42.093-.5-2.622-5.893-3.054-6Zm14.495,0h4.026l-.674-3.224Z" transform="translate(-116.753 0)" fill="#123e3a"/>
        <path id="Trazado_873985" data-name="Trazado 873985" d="M209.2,160l24.908-.068c4.2.837,3.048,4.93,2.36,8.01A35.693,35.693,0,0,1,232.4,178.1c-1.645,2.8-4.2,7.409-7.963,4.65l-17.045-17.045A3.574,3.574,0,0,1,209.2,160m24.5,3.428H210.343l16.5,16.374a33.866,33.866,0,0,0,6.854-16.374" transform="translate(-151.127 -117.002)" fill="#123e3a"/>
      </g>
    </g>
  </g>
</svg>
