<svg xmlns="http://www.w3.org/2000/svg" xmlns:xlink="http://www.w3.org/1999/xlink" width="124" height="124" viewBox="0 0 124 124">
  <defs>
    <clipPath id="clip-path">
      <rect id="Rectángulo_401757" data-name="Rectángulo 401757" width="74.261" height="70.661" fill="#231291"/>
    </clipPath>
  </defs>
  <g id="Grupo_1101108" data-name="Grupo 1101108" transform="translate(-915.5 -132)">
    <circle id="Elipse_11520" data-name="Elipse 11520" cx="62" cy="62" r="62" transform="translate(915.5 132)" fill="#cbc4f8"/>
    <g id="Grupo_1100935" data-name="Grupo 1100935" transform="translate(943.739 163.853)">
      <g id="Grupo_1100934" data-name="Grupo 1100934" clip-path="url(#clip-path)">
        <path id="Trazado_874005" data-name="Trazado 874005" d="M403.5,352.782a2.621,2.621,0,0,0,.609.506,14.4,14.4,0,0,0,2.38.922c1.485.1,2.144-2.116,4.037-.75a23.292,23.292,0,0,1,2.236,2.227,2.25,2.25,0,0,1,.363,1.753c-.16.862-1.3,1.238-1.033,2.637a11.5,11.5,0,0,0,1.154,2.459c.906.887,2.564.325,3.09,1.585a13.474,13.474,0,0,1,.166,4.03,1.939,1.939,0,0,1-.478,1.039c-.846.758-1.923.286-2.778,1.124a7.806,7.806,0,0,0-1.187,2.969c.05.95.886,1.411,1.045,2.042a2.264,2.264,0,0,1-.342,1.838,23.3,23.3,0,0,1-2.236,2.227,2.007,2.007,0,0,1-1.367.416c-1.008-.091-1.658-1.361-2.859-1.135a15.184,15.184,0,0,0-2.191.891,2.111,2.111,0,0,0-.945,1.181c-.054.224.008.476-.049.7-.23.886-.631,1.584-1.618,1.676a21.858,21.858,0,0,1-3.593-.029,2.074,2.074,0,0,1-1.035-.665c-.516-.724-.147-1.7-.9-2.5a7.821,7.821,0,0,0-3.088-1.279,7.641,7.641,0,0,0-.934.327,6.468,6.468,0,0,1-.572.513,1.946,1.946,0,0,1-2.376-.136,23.651,23.651,0,0,1-2.224-2.262,2.189,2.189,0,0,1-.315-1.561c.119-.749.987-1.095,1.055-2.134a6.239,6.239,0,0,0-1.27-3.191c-.887-.783-2.344-.129-2.964-1.5a10.392,10.392,0,0,1-.039-4.469,2.625,2.625,0,0,1,.5-.672c.785-.618,1.8-.229,2.558-.949a6.691,6.691,0,0,0,1.225-3.034c-.05-1.481-1.894-1.971-.747-3.8a23.875,23.875,0,0,1,2.405-2.4,1.927,1.927,0,0,1,2.13-.039c.27.141,1.571.876,1.681.881a9.325,9.325,0,0,0,2.806-1.133c1.186-1.021.275-3.109,2.293-3.339a23.068,23.068,0,0,1,3.507,0,1.689,1.689,0,0,1,1.244.881c.39.712.159,1.469.656,2.161m3.474,13.64a7.163,7.163,0,1,0-7.163,7.163,7.163,7.163,0,0,0,7.163-7.163" transform="translate(-342.317 -312.512)" fill="#231291"/>
        <path id="Trazado_874006" data-name="Trazado 874006" d="M43.4,31.542a1.164,1.164,0,0,0-1.016-.79,46.645,46.645,0,0,0-6.8-.012,1.138,1.138,0,0,0-1.17.956c.163,3.924-.379,8.3-.051,12.178.067.787.295,1.182,1.117,1.327l6.259.011c.206.071.182.513.292.771.137.322.679,1.043.717,1.207a4.966,4.966,0,0,1-.411,1.035c-.206.15-.784.121-1.064.212A4.3,4.3,0,0,0,38.4,52.956l-33.109,0A5.351,5.351,0,0,1,.168,49.051c-.2-15.072-.254-30.235.025-45.3A5.549,5.549,0,0,1,3.734.17C23.562-.073,43.478-.034,63.31.15a5.335,5.335,0,0,1,3.783,4.294V38.077a7.005,7.005,0,0,0-1.468.286c-.878.3-1.252,1.08-2.17.537-.548-.324-.357-.763-.562-1.351-.392-1.127-2.07-2.765-3.292-2.765H55.829V22.827c0-.554-.63-.85-1.116-.9a47.871,47.871,0,0,0-6.7,0c-.84.071-1.141.238-1.222,1.116l-.01,15.187c-.421.332-.916.438-1.358.767-.6.45-1.121,1.241-1.709,1.692-.107.082-.134.2-.32.159Zm10.688-18.7A3.637,3.637,0,0,0,50.09,7.1a3.678,3.678,0,0,0-2.371,4.065l-7.454,6.409a4.1,4.1,0,0,0-1.552-.206,3.22,3.22,0,0,0-1.627.6l-6.821-3.907c-.3-.447-.219-.959-.433-1.479a3.677,3.677,0,0,0-6.671,0,5.509,5.509,0,0,0-.266,2.17l-7.5,6.436c-2.862-.538-5.106,1.046-4.842,4.086.282,3.238,5.155,4.17,6.718,1.185a5.529,5.529,0,0,0,.5-2.467c2.256-1.841,4.4-3.993,6.682-5.783,1.2-.941.884-.507,2.194-.534a4.985,4.985,0,0,0,1.6-.439L35.1,21.132c.421,1.222.625,2.351,1.819,3.07a3.654,3.654,0,0,0,5.073-1.184c.567-.954.371-1.519.547-2.535,2.311-1.9,4.464-4.012,6.786-5.891a5.007,5.007,0,0,1,.844-.618c.256-.052,1.223.129,1.679.089a3.464,3.464,0,0,0,2.236-1.218M22.966,27.266a1.134,1.134,0,0,0-1.04,1.085l.052,16a1.229,1.229,0,0,0,.966.84l7.276-.043a1.218,1.218,0,0,0,.85-1.063l-.052-16a1.156,1.156,0,0,0-1.174-.846,44.579,44.579,0,0,0-6.878.027M10.422,34.383a.958.958,0,0,0-.822.985c.031,2.807-.259,5.954,0,8.718.057.62.217.918.853,1.06a48.515,48.515,0,0,0,7.071.055c.816-.1,1.054-.584,1.117-1.327a63.366,63.366,0,0,0,0-8.3c-.064-.755-.2-1.183-1.013-1.218-2.45-.106-3.684.025-7.2.025" transform="translate(0 0)" fill="#231291"/>
      </g>
    </g>
  </g>
</svg>
