<svg xmlns="http://www.w3.org/2000/svg" xmlns:xlink="http://www.w3.org/1999/xlink" width="1029.5" height="500" viewBox="0 0 1029.5 500">
  <defs>
    <clipPath id="clip-path">
      <rect id="Rectángulo_401693" data-name="Rectángulo 401693" width="459" height="400" transform="translate(767.641 6607.998)" fill="#fff" stroke="#707070" stroke-width="1"/>
    </clipPath>
    <clipPath id="clip-path-2">
      <rect id="Rectángulo_401692" data-name="Rectángulo 401692" width="412.253" height="418.426" fill="none"/>
    </clipPath>
  </defs>
  <g id="img12" transform="translate(-285.375 -6358)">
    <rect id="Rectángulo_401691" data-name="Rectángulo 401691" width="1029.5" height="500" transform="translate(285.375 6358)" fill="#efeef8"/>
    <g id="Enmascarar_grupo_1098696" data-name="Enmascarar grupo 1098696" transform="translate(67.359 -149.998)" clip-path="url(#clip-path)">
      <g id="Grupo_1100870" data-name="Grupo 1100870" transform="translate(803.612 6614.169)">
        <g id="Grupo_1100869" data-name="Grupo 1100869" transform="translate(0 0)" clip-path="url(#clip-path-2)">
          <path id="Trazado_873930" data-name="Trazado 873930" d="M85,789.385q2.317-2.066,4.479-4.3a13.282,13.282,0,0,0,.923-1.125,16.515,16.515,0,0,1,2.4-2.783,104.316,104.316,0,0,0-9.967-19.852,138.173,138.173,0,0,0-8.473-11.548c-1.726-2.149-3.481-4.263-5.208-6.34-1-1.2-2.414-2.509-3.909-2.046a3.341,3.341,0,0,0-1.656,1.416c-2,2.928-2.083,6.742-1.7,10.266.563,5.206,2.287,10.594-2.731,14.086-3.78,2.631-8.973,1.681-13.212,1.061q-11.328-1.656-22.57-3.844c-6.4-1.246-13.376-2.549-19.17.445a7.43,7.43,0,0,0-4.059,4.462,6.628,6.628,0,0,0,1.431,5.49,18.467,18.467,0,0,0,4.442,3.8c9.919,6.737,20.391,12.612,30.848,18.478l18.676,10.476a82.7,82.7,0,0,1,9.432-4.8A85.494,85.494,0,0,0,85,789.385" transform="translate(0 -532.682)" fill="#de9a90"/>
          <path id="Trazado_873931" data-name="Trazado 873931" d="M304.172,872.181c4.115-4.354,8.026-8.914,11.786-13.605q2.016-2.515,3.971-5.078c.152-.946.316-1.89.465-2.835q3.724-23.579,7.451-47.158c2.75-17.408,5.579-35.075,13.289-51.166s21.076-30.688,38.893-36.345c1.4-.445,2.811-.815,4.228-1.135a39.569,39.569,0,0,0-6.846.416,85.011,85.011,0,0,0-11.192,2.39c-15.1,4.336-26.948,12.682-38.32,25.025-8.4,9.115-15.979,18.936-23.548,28.742l-.415.538c-9.679,12.541-19.357,25.089-28.866,37.759-3.78-4.075-7.733-8.391-12.5-13.842-2.111-2.414-4.379-5.047-6.866-7.986-4.28-5.056-8.57-10.119-13.251-14.814a98.591,98.591,0,0,0-7.485-6.82c-1.7-1.385-4.8-5.5-7.37-4.436a2.445,2.445,0,0,0-.539.339,16.516,16.516,0,0,0-2.4,2.783,13.308,13.308,0,0,1-.923,1.125q-2.16,2.229-4.479,4.3a85.489,85.489,0,0,1-20.026,13.336,82.711,82.711,0,0,0-9.432,4.8c-.31.2-.635.378-.937.592-2.491,1.767-2.636,3.4-.722,5.39,2.141,2.221,3.8,5.3,5.513,7.881q3.546,5.353,7.171,10.655c.521.765,1.027,1.54,1.55,2.3q7.957,11.6,16.416,22.838c6.224,8.269,12.615,16.411,19.036,24.529a121.409,121.409,0,0,0,11.185,12.7c5.358,5.385,11.137,10.822,18.2,12.962q.715.216,1.448.388a25,25,0,0,0,12.094-.388,33.92,33.92,0,0,0,7.551-3.04c6-3.29,11.106-8.1,15.868-13.143" transform="translate(-134.254 -513.672)" fill="#075214"/>
          <path id="Trazado_873932" data-name="Trazado 873932" d="M907.655,292.492c22.025,1.786,36.844-16.941,53.751-29.33l-.064-.071c8.309-7.03,15.978-15.978,17.9-26.843,1.917-10.226-3.2-19.813-12.144-23.647-7.03-2.557-15.339.639-21.73-3.834-7.03-5.753-11.5-12.783-19.173-17.9a11.865,11.865,0,0,0-3.15-1.232c-3.484,3.718-6.611,7.906-9.545,11.216-8.479,9.562-15.16,22.881-20.15,34.565q-.551,1.29-1.068,2.6c-4.971,12.518-7.659,26.134-5.734,39.434.087.6.189,1.2.3,1.8,5.626,6.621,12.007,12.359,20.817,13.24m5.532-9.07c-4.152-1.556-13.254-7.589-11.481-24.518l33.955,18.583s-11.7,9.972-22.474,5.935m41.846-64.347a5.4,5.4,0,0,1,3.179,1.314c5.851,4.275,10.627,11.145,10.314,18.642-.061,1.464-.839,1.917-2.277,2.125a2.24,2.24,0,0,1-1.889-.514,3.658,3.658,0,0,1-.7-1.223c-2.161-5.076-6.508-8.846-10.8-12.312a5.125,5.125,0,0,1-1.982-2.431,2.788,2.788,0,0,1-.086-.524c-.165-2.265,1.878-5.015,4.238-5.076m-15.727,21.109a19.72,19.72,0,0,1,4.623-7.543c.933-.9,2.088-1.473,3.059-.277,1,1.236.415,2.863-.2,4.127a27.619,27.619,0,0,1-3.483,5.4,5.037,5.037,0,0,1-1.674,1.466,1.957,1.957,0,0,1-2.108-.194c-.779-.716-.564-1.983-.213-2.981m-16.861-36.45c.09-.2.188-.4.29-.578a2.571,2.571,0,0,1,.887-1.022,2.656,2.656,0,0,1,1.445-.243,12.2,12.2,0,0,1,4.585,1.1,17.56,17.56,0,0,1,8.748,10.256c.3,1.094,1.292,5.57-1,5.174a1.9,1.9,0,0,1-1.252-1.008,12.159,12.159,0,0,1-.619-1.54,9.174,9.174,0,0,0-4.759-4.688,23.432,23.432,0,0,0-6.6-1.718c-2.926-.432-2.7-3.572-1.724-5.735M913.256,225.8a19.725,19.725,0,0,1,4.623-7.543c.933-.9,2.088-1.473,3.06-.276,1,1.236.415,2.863-.206,4.127a27.692,27.692,0,0,1-3.482,5.4,5.046,5.046,0,0,1-1.675,1.466,1.955,1.955,0,0,1-2.108-.195c-.779-.716-.563-1.983-.212-2.981m-12.07,15.814a1.686,1.686,0,0,1,.79-.507q7.382-2.954,14.883-5.6a71.216,71.216,0,0,0,8.732-3.487,25.4,25.4,0,0,0,3.974-2.47c1.924-1.481,1.467.741.53,1.859-2.961,3.533-7.162,5.818-11.488,7.41s-8.851,2.569-13.239,3.982a20.819,20.819,0,0,0,.131,5.348c.3,1.921.864,3.877.438,5.773a2.728,2.728,0,0,1-1.832-1.348,16.893,16.893,0,0,1-3.134-10.037,1.607,1.607,0,0,1,.213-.924" transform="translate(-636.602 -136.272)" fill="rgba(238,130,119,0.67)"/>
          <path id="Trazado_873933" data-name="Trazado 873933" d="M944.38,354.581c.425-1.9-.142-3.852-.438-5.773a20.827,20.827,0,0,1-.131-5.348c4.387-1.413,8.913-2.39,13.239-3.982s8.527-3.877,11.488-7.41c.937-1.118,1.394-3.34-.53-1.859a25.393,25.393,0,0,1-3.974,2.47,71.221,71.221,0,0,1-8.732,3.487q-7.5,2.644-14.883,5.6a1.685,1.685,0,0,0-.79.507,1.608,1.608,0,0,0-.213.924,16.889,16.889,0,0,0,3.134,10.037,2.727,2.727,0,0,0,1.832,1.348" transform="translate(-675.042 -236.928)" fill="#e55467"/>
          <path id="Trazado_873934" data-name="Trazado 873934" d="M1109.9,211.423c-3.835-5.113-3.2-11.5-6.391-16.618-7.031-10.225-18.535-3.835-28.761-7.669-6.391-1.917-8.948-8.309-14.061-10.226-6.539-2.452-13.078-.985-19.617-.277a14.211,14.211,0,0,1,6.933,3.645c2.837,2.641,4.944,5.959,7.511,8.864s5.834,5.506,9.686,5.944c3.359.382,6.663-.923,10.028-1.249,13.2-1.278,23.667,13.928,22.3,26.1a28.867,28.867,0,0,1-3.073,9.19,111.084,111.084,0,0,1-14.069,22.041,2.13,2.13,0,0,0-.676,1.545,2.036,2.036,0,0,0,.629,1.03c1.125,1.192,2.427,2.185,3.65,3.256a75.885,75.885,0,0,1,13.782-6.107c.819-.267,1.649-.522,2.485-.745a20.2,20.2,0,0,1,6.766-.787c.161.013.321.042.481.061l1.625-.914,3.982-2.239c.585-.329,1.175-.662,1.758-1.009a16.1,16.1,0,0,0,5.733-5.043c2.821-4.546,1.524-10.664,3.923-15.447,1.722-3.434,5.086-5.682,7.693-8.5a20.834,20.834,0,0,0,1.513-1.848c-7.925,3.249-17.775,4.158-23.833-3" transform="translate(-748.093 -126.146)" fill="#6a382b"/>
          <path id="Trazado_873935" data-name="Trazado 873935" d="M962.525,16.361a25.151,25.151,0,0,0-.1,20.381,22.844,22.844,0,0,0,8.654,9.72,22.571,22.571,0,0,0,8.878,3.551c.227.032.45.072.681.1a21.007,21.007,0,0,1,2.407.382c6.54-.708,13.078-2.175,19.617.277,5.113,1.918,7.67,8.309,14.061,10.226,10.226,3.835,21.73-2.556,28.761,7.669,3.2,5.113,2.556,11.5,6.391,16.618,6.058,7.158,15.908,6.249,23.833,3,2.889-3.955,4.42-8.971,3.415-13.732-1.344-6.368-6.86-11.128-12.825-13.733-3.869-1.69-8.13-2.738-11.384-5.43a15.485,15.485,0,0,1-3.809-4.817c-2.313-4.367-3.124-9.571-5.672-13.86-3.7-6.233-9.471-10.886-16.823-11.913-4.8-.67-10.026.146-14.221-2.278-5.949-3.438-6.985-11.6-11.406-16.855a15.919,15.919,0,0,0-1.453-1.5c-5.6-5.14-13.237-4.506-20.412-3.387a20.9,20.9,0,0,0-8.283,3.387,29.453,29.453,0,0,0-10.305,12.2" transform="translate(-690.062 -0.003)" fill="#904a37"/>
          <path id="Trazado_873936" data-name="Trazado 873936" d="M984.574,299.617a5.047,5.047,0,0,0,1.675-1.466,27.689,27.689,0,0,0,3.482-5.4c.62-1.264,1.209-2.89.205-4.127-.972-1.2-2.126-.625-3.06.276a19.722,19.722,0,0,0-4.622,7.543c-.351,1-.567,2.265.212,2.981a1.955,1.955,0,0,0,2.108.195" transform="translate(-705.6 -206.911)" fill="#331113"/>
          <path id="Trazado_873937" data-name="Trazado 873937" d="M1077.14,350.718a5.035,5.035,0,0,0,1.674-1.466,27.624,27.624,0,0,0,3.483-5.4c.62-1.265,1.209-2.891.2-4.127-.971-1.2-2.125-.624-3.059.277a19.719,19.719,0,0,0-4.623,7.543c-.352,1-.566,2.265.212,2.981a1.956,1.956,0,0,0,2.108.194" transform="translate(-772.115 -243.632)" fill="#331113"/>
          <path id="Trazado_873938" data-name="Trazado 873938" d="M1118.5,302.265c4.291,3.467,8.639,7.236,10.8,12.312a3.651,3.651,0,0,0,.7,1.223,2.239,2.239,0,0,0,1.889.514c1.438-.208,2.216-.661,2.277-2.125.313-7.5-4.464-14.367-10.314-18.642a5.4,5.4,0,0,0-3.179-1.314c-2.359.06-4.4,2.81-4.238,5.076a2.787,2.787,0,0,0,.087.524,5.124,5.124,0,0,0,1.982,2.432" transform="translate(-802.238 -211.43)" fill="#6a382b"/>
          <path id="Trazado_873939" data-name="Trazado 873939" d="M1015.767,240.733a23.434,23.434,0,0,1,6.6,1.718,9.173,9.173,0,0,1,4.759,4.688,12.163,12.163,0,0,0,.619,1.54,1.905,1.905,0,0,0,1.252,1.008c2.3.4,1.3-4.081,1-5.174a17.564,17.564,0,0,0-8.748-10.256,12.21,12.21,0,0,0-4.585-1.1,2.656,2.656,0,0,0-1.445.243,2.571,2.571,0,0,0-.887,1.022c-.1.183-.2.376-.29.578-.973,2.163-1.2,5.3,1.724,5.735" transform="translate(-728.199 -167.536)" fill="#6a382b"/>
          <path id="Trazado_873940" data-name="Trazado 873940" d="M941.442,435.765c-1.773,16.929,7.329,22.962,11.481,24.518,10.774,4.038,22.474-5.935,22.474-5.935Z" transform="translate(-676.339 -313.133)" fill="#f5ebe7"/>
          <path id="Trazado_873941" data-name="Trazado 873941" d="M1005.88,255.272a9.613,9.613,0,0,0-5.886-4,12.524,12.524,0,0,0-1.624-.3c-.161-.019-.321-.048-.481-.06a20.192,20.192,0,0,0-6.766.786c-.837.223-1.667.478-2.486.745a75.885,75.885,0,0,0-13.782,6.107c-1.223-1.071-2.525-2.064-3.65-3.256a2.032,2.032,0,0,1-.63-1.03,2.129,2.129,0,0,1,.676-1.545,111.08,111.08,0,0,0,14.068-22.041,28.866,28.866,0,0,0,3.073-9.19c1.363-12.176-9.106-27.382-22.3-26.1-3.365.326-6.669,1.631-10.028,1.249-3.852-.438-7.12-3.038-9.686-5.944s-4.674-6.223-7.511-8.864a14.21,14.21,0,0,0-6.933-3.645,21,21,0,0,0-2.407-.382c-.232-.023-.454-.063-.681-.1-1.189,1.046-2.341,2.172-3.452,3.357a11.858,11.858,0,0,1,3.149,1.232c7.669,5.112,12.143,12.143,19.173,17.9,6.392,4.474,14.7,1.278,21.731,3.835,8.947,3.835,14.061,13.422,12.144,23.647-1.918,10.866-9.587,19.813-17.9,26.844l.064.07c-16.906,12.389-31.725,31.116-53.75,29.33-8.81-.881-15.191-6.619-20.817-13.24a37.96,37.96,0,0,0,4.218,12.211c.275.479.558.953.861,1.417,5.478,8.384,15.023,12.833,25.115,13.751-.151.944-.314,1.888-.44,2.835-.133,1-.27,2.036-.4,3.087a75.644,75.644,0,0,1,11.978,1.994,13.977,13.977,0,0,1,6.368,3.2c2.188,2.214,2.908,5.491,3.53,8.578a11.85,11.85,0,0,1,6.349-8.552,23.514,23.514,0,0,1,10.555-2.354c3.888-.112,5.764-.075,9.623-.248.2-.009,2.428.039,4.207.1,1-4.976,1.782-9.734,2.528-13.487a151.884,151.884,0,0,0,2.489-15.954,54.978,54.978,0,0,0,13.556-1.147,27.568,27.568,0,0,0,10.266-4.325,19.406,19.406,0,0,0,4.492-4.367c2.552-3.5,3.7-8.483,1.395-12.151m-9.395,8.322a1.046,1.046,0,0,1-.569.164A88.315,88.315,0,0,0,976.7,267.65a13.518,13.518,0,0,0,1.472,1.747,1.957,1.957,0,0,1,.4,2.115,1.712,1.712,0,0,1-1.819.644,6.633,6.633,0,0,1-1.862-.858c-1.23-.688-5.083-1.317-3.423-3.213,1.387-1.584,3.933-2.772,5.781-3.718a34.942,34.942,0,0,1,13.153-3.745c2.154-.169,4.639.009,5.973,1.709.29.37.479.971.11,1.263" transform="translate(-638.954 -127.7)" fill="#de9a90"/>
          <path id="Trazado_873942" data-name="Trazado 873942" d="M1199.451,472.2a34.939,34.939,0,0,0-13.153,3.745c-1.848.947-4.395,2.134-5.781,3.718-1.659,1.9,2.194,2.525,3.423,3.213a6.629,6.629,0,0,0,1.862.858,1.712,1.712,0,0,0,1.819-.644,1.957,1.957,0,0,0-.4-2.115,13.514,13.514,0,0,1-1.471-1.748,88.32,88.32,0,0,1,19.213-3.891,1.047,1.047,0,0,0,.569-.164c.369-.292.18-.893-.11-1.263-1.333-1.7-3.819-1.878-5.972-1.709" transform="translate(-848.002 -339.278)" fill="#331113"/>
          <path id="Trazado_873943" data-name="Trazado 873943" d="M721.783,741.647c-13.012-4.525-20.509-19.067-19.844-32.985-.258.024-.514.058-.772.08a86.478,86.478,0,0,0-11.738,1.674c-1.417.32-2.827.691-4.228,1.135C667.385,717.208,654.02,731.8,646.31,747.9s-10.539,33.757-13.289,51.166q-3.727,23.578-7.451,47.158c-.149.946-.313,1.89-.465,2.835-1.874,11.647-3.935,23.262-6.055,34.866q-1.095,5.991-2.2,11.979c-1.321,7.172-3.326,14-4.976,20.989-1.539,6.516,2.123,7.294,8.5,7.192,32.677-.52,64.756,2.073,97.406,3.032,17.052.5,34.113-.122,51.161-.745l20.149-.736c-1.778-.505-3.543-1.066-5.285-1.635a121.442,121.442,0,0,1-15.729-6.223c-9.409-4.312-18.8-8.658-28.107-13.194q-12.643-6.164-25-12.878-6.863-3.727-13.658-7.577c-2.7-1.524-5.577-3.508-8.493-4.513-2.607-.9-3.222-2.423-1.807-5.129.172-.328.38-.633.566-.953l-21.4-.84c-11.981-.471-23.979-.943-35.876-2.433a18.474,18.474,0,0,1-5.683-1.363,6.631,6.631,0,0,1-3.77-4.238,7.433,7.433,0,0,1,1.588-5.82c3.8-5.3,10.6-7.311,16.871-9.111q11-3.16,21.85-6.837c4.057-1.376,9.114-2.89,11.285-6.952,2.881-5.391-1.1-9.406-3.972-13.787-1.942-2.965-3.6-6.4-3.15-9.918a3.34,3.34,0,0,1,.831-2.014c1.121-1.092,2.974-.571,4.412.046,2.483,1.065,5.006,2.15,7.52,3.279a138.054,138.054,0,0,1,12.8,6.434,104.269,104.269,0,0,1,17.883,13.19,2.518,2.518,0,0,1,.345-.587c1.807-2.121,6.438.14,8.581.6a98.252,98.252,0,0,1,9.766,2.671c6.3,2.053,12.426,4.612,18.537,7.17,11.609,4.86,19.7,7.9,27.249,10.665,5.017-28,11.01-55.777,17.544-83.539q.851-3.618,1.714-7.237c2.007-8.417,4.027-16.874,7.31-24.88,1.8-4.394,4.038-8.715,7.421-12.048,4.686-4.616,9.472-5.975,14.014-5.234a18.765,18.765,0,0,0-4.835-2.315,152.806,152.806,0,0,0-19.938-5.469c-5.324-1.113-10.7-2.027-16.094-2.819-11.7,23.094-35.853,40.417-62.592,31.5" transform="translate(-439.429 -509.231)" fill="#99eca7"/>
          <path id="Trazado_873944" data-name="Trazado 873944" d="M946.29,626.3c-.744,3.524-3.188,16.583-3.4,17.613a37.561,37.561,0,0,1-1.142,3.821c-1.526.184-3.042.394-4.557.6-1.494.2-2.99.379-4.491.523-.665,13.918,6.832,28.46,19.844,32.985,26.739,8.913,50.892-8.41,62.592-31.5q-1.569-.23-3.141-.451c-1.706-.238-3.414-.457-5.121-.682-.178-.766-.434-1.536-.525-2.261-.758-6.1-1.153-12.256-1.728-18.372a17.071,17.071,0,0,0-2.23-.144c-1.779-.065-4-.113-4.207-.1-3.858.172-5.735.136-9.623.248a23.512,23.512,0,0,0-10.554,2.354,11.848,11.848,0,0,0-6.349,8.552c-.622-3.087-1.342-6.363-3.53-8.578a13.98,13.98,0,0,0-6.369-3.2,75.625,75.625,0,0,0-11.978-1.994c-1.161-.113-2.278-.207-3.285-.274a6.209,6.209,0,0,0-.209.871" transform="translate(-670.192 -449.422)" fill="#e7fdeb"/>
          <path id="Trazado_873945" data-name="Trazado 873945" d="M743.239,1101.668q1.123-2.893,2.035-5.863a13.441,13.441,0,0,0,.31-1.422,16.937,16.937,0,0,1,.853-3.531,104.268,104.268,0,0,0-17.883-13.19,138.116,138.116,0,0,0-12.8-6.434c-2.514-1.129-5.037-2.214-7.521-3.279-1.438-.617-3.291-1.137-4.412-.046a3.341,3.341,0,0,0-.831,2.014c-.448,3.515,1.209,6.952,3.15,9.917,2.868,4.381,6.853,8.4,3.972,13.787-2.171,4.062-7.228,5.576-11.286,6.952q-10.841,3.676-21.85,6.837c-6.268,1.8-13.072,3.81-16.871,9.111a7.433,7.433,0,0,0-1.588,5.82,6.631,6.631,0,0,0,3.77,4.239,18.475,18.475,0,0,0,5.683,1.363c11.9,1.491,23.9,1.963,35.876,2.434l21.4.84a82.649,82.649,0,0,1,6.217-8.567,85.5,85.5,0,0,0,11.775-20.983" transform="translate(-473.105 -766.919)" fill="#de9a90"/>
          <path id="Trazado_873946" data-name="Trazado 873946" d="M1012.282,756.352c-3.384,3.333-5.619,7.654-7.421,12.048-3.283,8.007-5.3,16.463-7.31,24.88q-.862,3.619-1.714,7.237c-6.534,27.762-12.527,55.537-17.544,83.539-7.553-2.765-15.64-5.805-27.249-10.666-6.111-2.558-12.234-5.117-18.537-7.17a98.273,98.273,0,0,0-9.766-2.671c-2.143-.461-6.775-2.722-8.581-.6a2.513,2.513,0,0,0-.345.587,16.931,16.931,0,0,0-.853,3.531,13.569,13.569,0,0,1-.311,1.422q-.911,2.967-2.035,5.863a85.5,85.5,0,0,1-11.775,20.983,82.65,82.65,0,0,0-6.217,8.567c-.185.32-.394.625-.566.953-1.415,2.706-.8,4.231,1.807,5.129,2.916,1,5.793,2.989,8.493,4.513q6.8,3.838,13.658,7.577,12.361,6.713,25,12.878c9.3,4.536,18.7,8.882,28.107,13.193a121.421,121.421,0,0,0,15.729,6.223c1.742.57,3.507,1.13,5.285,1.635,6.09,1.731,12.329,2.808,18.291,1.324,6.591-1.641,12.091-6.325,15.94-11.984,7.448-10.951,11.3-23.743,13.96-36.592a791.639,791.639,0,0,0,13.45-91.678c1.145-13.12,1.93-26.591-1.769-39.23-3.121-10.665-12.694-24.925-23.719-26.725-4.542-.741-9.328.618-14.014,5.234" transform="translate(-640.481 -539.602)" fill="#075214"/>
        </g>
      </g>
    </g>
    <rect id="Rectángulo_401694" data-name="Rectángulo 401694" width="239" height="42" rx="19" transform="translate(774 6394)" fill="#cbc4f8"/>
    <path id="Trazado_874515" data-name="Trazado 874515" d="M8.675,11.577H3.524V17H1.3V4.2h8.13V6H3.524V9.8h5.15Zm7.058-2.136a5.285,5.285,0,0,0-.87-.07A1.959,1.959,0,0,0,12.885,10.5V17H10.749V7.49h2.039l.053,1.063a2.406,2.406,0,0,1,2.145-1.239,2,2,0,0,1,.756.123Zm5.37,7.734A4.419,4.419,0,0,1,17.811,15.9a4.639,4.639,0,0,1-1.261-3.406v-.264A5.706,5.706,0,0,1,17.1,9.683a4.181,4.181,0,0,1,1.542-1.745,4.078,4.078,0,0,1,2.215-.624,3.733,3.733,0,0,1,3,1.239,5.24,5.24,0,0,1,1.059,3.507v.861H18.7a2.856,2.856,0,0,0,.787,1.863,2.362,2.362,0,0,0,1.736.686,2.892,2.892,0,0,0,2.391-1.187l1.151,1.1a3.845,3.845,0,0,1-1.525,1.323A4.774,4.774,0,0,1,21.1,17.176Zm-.255-8.147a1.8,1.8,0,0,0-1.419.615,3.189,3.189,0,0,0-.69,1.714h4.069V11.2a2.6,2.6,0,0,0-.571-1.622A1.785,1.785,0,0,0,20.848,9.028Zm9.633,6.442A1.931,1.931,0,0,0,31.808,15a1.591,1.591,0,0,0,.563-1.151h2.013a3.137,3.137,0,0,1-.554,1.657,3.632,3.632,0,0,1-1.406,1.217,4.191,4.191,0,0,1-1.916.448,4.055,4.055,0,0,1-3.164-1.292,5.124,5.124,0,0,1-1.169-3.568V12.1a5.039,5.039,0,0,1,1.16-3.476A4.018,4.018,0,0,1,30.5,7.314a3.907,3.907,0,0,1,2.764.989,3.542,3.542,0,0,1,1.121,2.6H32.37a1.956,1.956,0,0,0-.558-1.345,1.8,1.8,0,0,0-1.332-.527,1.879,1.879,0,0,0-1.6.751,3.834,3.834,0,0,0-.571,2.281V12.4a3.9,3.9,0,0,0,.558,2.307A1.878,1.878,0,0,0,30.48,15.471Zm11.276.6a3.312,3.312,0,0,1-2.672,1.107,2.952,2.952,0,0,1-2.342-.905,3.851,3.851,0,0,1-.8-2.619V7.49h2.136v6.135q0,1.811,1.5,1.811a2.111,2.111,0,0,0,2.1-1.116V7.49h2.136V17H41.81Zm8.429,1.107A4.419,4.419,0,0,1,46.894,15.9a4.639,4.639,0,0,1-1.261-3.406v-.264a5.706,5.706,0,0,1,.549-2.544,4.181,4.181,0,0,1,1.542-1.745,4.078,4.078,0,0,1,2.215-.624,3.733,3.733,0,0,1,3,1.239A5.24,5.24,0,0,1,54,12.061v.861H47.786a2.856,2.856,0,0,0,.787,1.863,2.362,2.362,0,0,0,1.736.686A2.892,2.892,0,0,0,52.7,14.284l1.151,1.1a3.845,3.845,0,0,1-1.525,1.323A4.774,4.774,0,0,1,50.186,17.176Zm-.255-8.147a1.8,1.8,0,0,0-1.419.615,3.189,3.189,0,0,0-.69,1.714h4.069V11.2a2.6,2.6,0,0,0-.571-1.622A1.785,1.785,0,0,0,49.931,9.028ZM57.639,7.49l.062,1.1a3.419,3.419,0,0,1,2.769-1.274q2.971,0,3.023,3.4V17H61.356V10.839a1.958,1.958,0,0,0-.391-1.34,1.645,1.645,0,0,0-1.279-.435,2.058,2.058,0,0,0-1.925,1.169V17H55.626V7.49Zm11.936,7.98A1.931,1.931,0,0,0,70.9,15a1.591,1.591,0,0,0,.563-1.151h2.013a3.137,3.137,0,0,1-.554,1.657,3.632,3.632,0,0,1-1.406,1.217,4.191,4.191,0,0,1-1.916.448,4.055,4.055,0,0,1-3.164-1.292,5.124,5.124,0,0,1-1.169-3.568V12.1a5.039,5.039,0,0,1,1.16-3.476,4.018,4.018,0,0,1,3.164-1.305,3.907,3.907,0,0,1,2.764.989,3.542,3.542,0,0,1,1.121,2.6H71.464a1.956,1.956,0,0,0-.558-1.345,1.8,1.8,0,0,0-1.332-.527,1.879,1.879,0,0,0-1.6.751,3.834,3.834,0,0,0-.571,2.281V12.4a3.9,3.9,0,0,0,.558,2.307A1.878,1.878,0,0,0,69.574,15.471ZM77.361,17H75.226V7.49h2.136ZM75.094,5.021a1.133,1.133,0,0,1,.312-.817,1.179,1.179,0,0,1,.892-.325,1.193,1.193,0,0,1,.9.325,1.125,1.125,0,0,1,.316.817,1.1,1.1,0,0,1-.316.8,1.2,1.2,0,0,1-.9.321,1.188,1.188,0,0,1-.892-.321A1.107,1.107,0,0,1,75.094,5.021ZM85.368,17a3.3,3.3,0,0,1-.246-.888,3.593,3.593,0,0,1-4.834.246,2.615,2.615,0,0,1-.905-2.021A2.7,2.7,0,0,1,80.512,12a5.473,5.473,0,0,1,3.23-.813h1.31v-.624a1.666,1.666,0,0,0-.413-1.182,1.638,1.638,0,0,0-1.257-.444,1.881,1.881,0,0,0-1.2.365,1.129,1.129,0,0,0-.466.927H79.585A2.37,2.37,0,0,1,80.1,8.769,3.455,3.455,0,0,1,81.514,7.7,4.955,4.955,0,0,1,83.5,7.314a3.99,3.99,0,0,1,2.663.839,2.993,2.993,0,0,1,1.02,2.36V14.8a4.861,4.861,0,0,0,.36,2.048V17Zm-2.347-1.538a2.429,2.429,0,0,0,1.191-.308,2.055,2.055,0,0,0,.839-.826V12.535H83.9a3.148,3.148,0,0,0-1.784.413,1.338,1.338,0,0,0-.6,1.169,1.248,1.248,0,0,0,.409.98A1.583,1.583,0,0,0,83.021,15.462ZM98.886,9.441a5.285,5.285,0,0,0-.87-.07A1.959,1.959,0,0,0,96.038,10.5V17H93.9V7.49h2.039l.053,1.063a2.406,2.406,0,0,1,2.145-1.239,2,2,0,0,1,.756.123Zm5.37,7.734a4.419,4.419,0,0,1-3.292-1.279A4.639,4.639,0,0,1,99.7,12.491v-.264a5.706,5.706,0,0,1,.549-2.544,4.181,4.181,0,0,1,1.542-1.745,4.078,4.078,0,0,1,2.215-.624,3.733,3.733,0,0,1,3,1.239,5.24,5.24,0,0,1,1.059,3.507v.861h-6.214a2.856,2.856,0,0,0,.787,1.863,2.362,2.362,0,0,0,1.736.686,2.892,2.892,0,0,0,2.391-1.187l1.151,1.1a3.845,3.845,0,0,1-1.525,1.323A4.774,4.774,0,0,1,104.256,17.176ZM104,9.028a1.8,1.8,0,0,0-1.419.615,3.189,3.189,0,0,0-.69,1.714h4.069V11.2a2.6,2.6,0,0,0-.571-1.622A1.785,1.785,0,0,0,104,9.028ZM112,17h-2.136V3.5H112Zm8.007,0a3.3,3.3,0,0,1-.246-.888,3.593,3.593,0,0,1-4.834.246,2.615,2.615,0,0,1-.905-2.021A2.7,2.7,0,0,1,115.15,12a5.473,5.473,0,0,1,3.23-.813h1.31v-.624a1.666,1.666,0,0,0-.413-1.182,1.638,1.638,0,0,0-1.257-.444,1.881,1.881,0,0,0-1.2.365,1.129,1.129,0,0,0-.466.927h-2.136a2.37,2.37,0,0,1,.519-1.463A3.455,3.455,0,0,1,116.152,7.7a4.955,4.955,0,0,1,1.991-.387,3.99,3.99,0,0,1,2.663.839,2.993,2.993,0,0,1,1.02,2.36V14.8a4.861,4.861,0,0,0,.36,2.048V17Zm-2.347-1.538a2.429,2.429,0,0,0,1.191-.308,2.055,2.055,0,0,0,.839-.826V12.535h-1.151a3.148,3.148,0,0,0-1.784.413,1.338,1.338,0,0,0-.6,1.169,1.248,1.248,0,0,0,.409.98A1.583,1.583,0,0,0,117.659,15.462Zm9.079-10.283V7.49h1.679V9.072h-1.679v5.309a1.169,1.169,0,0,0,.215.787,1,1,0,0,0,.769.242,3.29,3.29,0,0,0,.747-.088v1.652a5.26,5.26,0,0,1-1.406.2q-2.461,0-2.461-2.716V9.072h-1.564V7.49H124.6V5.179ZM132.319,17h-2.136V7.49h2.136ZM130.052,5.021a1.133,1.133,0,0,1,.312-.817,1.179,1.179,0,0,1,.892-.325,1.193,1.193,0,0,1,.9.325,1.125,1.125,0,0,1,.316.817,1.1,1.1,0,0,1-.316.8,1.2,1.2,0,0,1-.9.321,1.188,1.188,0,0,1-.892-.321A1.107,1.107,0,0,1,130.052,5.021ZM138,14.293l2.013-6.8h2.206L138.92,17h-1.854l-3.322-9.51h2.215ZM149.1,17a3.3,3.3,0,0,1-.246-.888,3.593,3.593,0,0,1-4.834.246,2.615,2.615,0,0,1-.905-2.021A2.7,2.7,0,0,1,144.242,12a5.473,5.473,0,0,1,3.23-.813h1.31v-.624a1.666,1.666,0,0,0-.413-1.182,1.638,1.638,0,0,0-1.257-.444,1.881,1.881,0,0,0-1.2.365,1.129,1.129,0,0,0-.466.927h-2.136a2.37,2.37,0,0,1,.519-1.463A3.455,3.455,0,0,1,145.244,7.7a4.955,4.955,0,0,1,1.991-.387,3.99,3.99,0,0,1,2.663.839,2.993,2.993,0,0,1,1.02,2.36V14.8a4.861,4.861,0,0,0,.36,2.048V17Zm-2.347-1.538a2.429,2.429,0,0,0,1.191-.308,2.055,2.055,0,0,0,.839-.826V12.535H147.63a3.148,3.148,0,0,0-1.784.413,1.338,1.338,0,0,0-.6,1.169,1.248,1.248,0,0,0,.409.98A1.583,1.583,0,0,0,146.751,15.462ZM157.667,11.8a13.393,13.393,0,0,1,.545-3.854,10.578,10.578,0,0,1,1.6-3.261,6.351,6.351,0,0,1,2.232-2.017l.422,1.248a6.524,6.524,0,0,0-2.008,2.87,12.852,12.852,0,0,0-.839,4.417l-.009.756a13.972,13.972,0,0,0,.751,4.75,7,7,0,0,0,2.1,3.177l-.422,1.187a6.362,6.362,0,0,1-2.237-2.026,10.577,10.577,0,0,1-1.6-3.261A13.921,13.921,0,0,1,157.667,11.8Zm6.021-5.133a2.568,2.568,0,0,1,.747-1.9,2.975,2.975,0,0,1,3.933,0,2.633,2.633,0,0,1,.743,1.947v.633a2.551,2.551,0,0,1-.743,1.89,2.653,2.653,0,0,1-1.956.738,2.737,2.737,0,0,1-1.956-.725,2.559,2.559,0,0,1-.769-1.956Zm1.494.673a1.41,1.41,0,0,0,.338.983,1.145,1.145,0,0,0,.892.374,1.121,1.121,0,0,0,.879-.374,1.474,1.474,0,0,0,.334-1.018V6.659a1.426,1.426,0,0,0-.338-.987,1.138,1.138,0,0,0-.892-.379,1.106,1.106,0,0,0-.883.383,1.493,1.493,0,0,0-.33,1.009Zm4.658,6.525a2.516,2.516,0,0,1,.765-1.907,2.98,2.98,0,0,1,3.907,0,2.6,2.6,0,0,1,.76,1.969v.624a2.571,2.571,0,0,1-.734,1.885,2.637,2.637,0,0,1-1.964.743,2.715,2.715,0,0,1-1.982-.734,2.586,2.586,0,0,1-.751-1.938Zm1.494.677a1.4,1.4,0,0,0,.347.98,1.151,1.151,0,0,0,.892.382,1.115,1.115,0,0,0,.883-.365,1.5,1.5,0,0,0,.321-1.024v-.659a1.389,1.389,0,0,0-.343-.984,1.236,1.236,0,0,0-1.762,0,1.452,1.452,0,0,0-.338,1.02Zm-4.482,1.5-1.1-.633,6.249-10,1.1.633Zm14.4-4.1a13.224,13.224,0,0,1-.536,3.766,10.671,10.671,0,0,1-1.626,3.3,6.367,6.367,0,0,1-2.276,2.061l-.422-1.187a6.754,6.754,0,0,0,2.087-3.116,13.84,13.84,0,0,0,.769-4.786v-.2a14.044,14.044,0,0,0-.668-4.452,7.852,7.852,0,0,0-1.916-3.221l-.272-.246.422-1.2a6.3,6.3,0,0,1,2.18,1.934,10.491,10.491,0,0,1,1.617,3.107,12.941,12.941,0,0,1,.633,3.546Z" transform="translate(802 6404)" fill="#12263f"/>
    <g id="Grupo_1100874" data-name="Grupo 1100874" transform="translate(4 -228.5)">
      <path id="Trazado_873947" data-name="Trazado 873947" d="M354.835,0c5.986.928,12.225.568,18.313,1.131,69.663,6.446,133.588,54.071,161,117.97,36.277,84.552,10.187,183.257-63.51,237.618L354.835,197.536Z" transform="translate(181.144 6638.506)" fill="#6cdfd4"/>
      <path id="Trazado_873948" data-name="Trazado 873948" d="M218.951,357.077,333.313,515.128c-.078.95-13.874,9.374-15.859,10.514-87.625,50.347-199.267,25.989-258.4-55.151-1.337-1.835-10.918-15.612-10.248-16.512Z" transform="translate(314.713 6482.672)" fill="#25a196"/>
      <path id="Trazado_873949" data-name="Trazado 873949" d="M49.3,120.1,193.768,249.951,25.523,346.608c-.742.058-.95-.423-1.317-.915-1.739-2.334-4.789-9.385-6.185-12.411C-14.42,262.98-2.51,177.57,49.3,120.1" transform="translate(336 6586.09)" fill="#99eca7"/>
      <path id="Trazado_873950" data-name="Trazado 873950" d="M235.993,0V192.746L92.853,63.967A197.407,197.407,0,0,1,195.409,4.784,232.5,232.5,0,0,1,235.993,0" transform="translate(295.478 6638.506)" fill="#075214"/>
      <rect id="Rectángulo_401695" data-name="Rectángulo 401695" width="395.505" height="395.987" transform="translate(336 6638.506)" fill="none"/>
    </g>
    <g id="Grupo_1100873" data-name="Grupo 1100873" transform="translate(63 -188)">
      <g id="Grupo_1100872" data-name="Grupo 1100872" transform="translate(0 8)">
        <path id="Trazado_874516" data-name="Trazado 874516" d="M3.329,11.518V16h-2.1V3.914H5.852A4.675,4.675,0,0,1,9.069,4.969,3.549,3.549,0,0,1,10.26,7.761a3.431,3.431,0,0,1-1.166,2.767,4.9,4.9,0,0,1-3.266.989Zm0-1.693H5.852A2.485,2.485,0,0,0,7.562,9.3a1.937,1.937,0,0,0,.589-1.523,2.09,2.09,0,0,0-.6-1.565,2.3,2.3,0,0,0-1.644-.6H3.329Zm11.837,3.287,1.826-6.093h2.15L15.572,17.361a2.9,2.9,0,0,1-2.789,2.266,3.6,3.6,0,0,1-.971-.15V17.909l.382.025a1.964,1.964,0,0,0,1.15-.278,1.842,1.842,0,0,0,.61-.933l.291-.771L11.09,7.019h2.175Zm7.662-8.276V7.019h1.585V8.513H22.827v5.014a1.1,1.1,0,0,0,.2.743.943.943,0,0,0,.726.228,3.107,3.107,0,0,0,.706-.083v1.561a4.968,4.968,0,0,1-1.328.191q-2.324,0-2.324-2.565V8.513H19.333V7.019H20.81V4.835ZM27.94,8a3.157,3.157,0,0,1,2.5-1.146q2.872,0,2.914,3.279V16H31.335V10.206a1.773,1.773,0,0,0-.4-1.316A1.646,1.646,0,0,0,29.75,8.5a1.943,1.943,0,0,0-1.81,1.079V16H25.923V3.25H27.94Zm7.072,3.428a5.3,5.3,0,0,1,.523-2.378A3.819,3.819,0,0,1,37,7.421a4.14,4.14,0,0,1,2.175-.569,3.923,3.923,0,0,1,2.951,1.17,4.6,4.6,0,0,1,1.224,3.1l.008.473a5.343,5.343,0,0,1-.51,2.374,3.773,3.773,0,0,1-1.461,1.619,4.17,4.17,0,0,1-2.2.573A3.9,3.9,0,0,1,36.154,14.9a4.848,4.848,0,0,1-1.141-3.374Zm2.017.174a3.619,3.619,0,0,0,.573,2.171,1.862,1.862,0,0,0,1.594.784,1.842,1.842,0,0,0,1.59-.8,4,4,0,0,0,.569-2.333,3.572,3.572,0,0,0-.585-2.158,1.973,1.973,0,0,0-3.158-.012A3.922,3.922,0,0,0,37.03,11.6Zm9.911-4.582L47,8.056a3.229,3.229,0,0,1,2.615-1.2q2.806,0,2.855,3.212V16H50.452V10.181a1.85,1.85,0,0,0-.369-1.266A1.554,1.554,0,0,0,48.875,8.5a1.944,1.944,0,0,0-1.818,1.1V16H45.04V7.019Z" transform="translate(813 6667)" fill="#12263f"/>
        <path id="Trazado_874517" data-name="Trazado 874517" d="M6.176,3.914H8.268v8.475a3.606,3.606,0,0,1-1.083,2.756,4,4,0,0,1-2.86,1.021A4.139,4.139,0,0,1,1.4,15.211,3.444,3.444,0,0,1,.374,12.555H2.465A1.987,1.987,0,0,0,2.943,14a1.852,1.852,0,0,0,1.382.486,1.721,1.721,0,0,0,1.349-.56,2.237,2.237,0,0,0,.5-1.548ZM15.838,16a3.113,3.113,0,0,1-.232-.838,3.14,3.14,0,0,1-2.357,1,3.169,3.169,0,0,1-2.208-.772,2.47,2.47,0,0,1-.855-1.909,2.55,2.55,0,0,1,1.067-2.2,5.169,5.169,0,0,1,3.051-.768h1.237V9.924a1.573,1.573,0,0,0-.39-1.116,1.547,1.547,0,0,0-1.187-.419,1.777,1.777,0,0,0-1.129.344,1.066,1.066,0,0,0-.44.876H10.376a2.239,2.239,0,0,1,.49-1.382A3.263,3.263,0,0,1,12.2,7.218a4.68,4.68,0,0,1,1.88-.365,3.769,3.769,0,0,1,2.515.793,2.827,2.827,0,0,1,.963,2.229v4.051a4.591,4.591,0,0,0,.34,1.934V16Zm-2.216-1.453a2.294,2.294,0,0,0,1.125-.291,1.941,1.941,0,0,0,.793-.78V11.783H14.452a2.973,2.973,0,0,0-1.685.39,1.264,1.264,0,0,0-.564,1.1,1.179,1.179,0,0,0,.386.926A1.5,1.5,0,0,0,13.622,14.547Zm9.089-1.1,1.9-6.425H26.7L23.583,16H21.831L18.693,7.019h2.092ZM33.195,16a3.113,3.113,0,0,1-.232-.838,3.393,3.393,0,0,1-4.565.232,2.47,2.47,0,0,1-.855-1.909,2.55,2.55,0,0,1,1.067-2.2,5.169,5.169,0,0,1,3.051-.768H32.9V9.924a1.573,1.573,0,0,0-.39-1.116,1.547,1.547,0,0,0-1.187-.419,1.777,1.777,0,0,0-1.129.344,1.066,1.066,0,0,0-.44.876H27.733a2.239,2.239,0,0,1,.49-1.382,3.263,3.263,0,0,1,1.332-1.009,4.68,4.68,0,0,1,1.88-.365,3.769,3.769,0,0,1,2.515.793,2.827,2.827,0,0,1,.963,2.229v4.051a4.591,4.591,0,0,0,.34,1.934V16Zm-2.216-1.453a2.294,2.294,0,0,0,1.125-.291,1.941,1.941,0,0,0,.793-.78V11.783H31.809a2.973,2.973,0,0,0-1.685.39,1.264,1.264,0,0,0-.564,1.1,1.179,1.179,0,0,0,.386.926A1.5,1.5,0,0,0,30.979,14.547Z" transform="translate(813 6705)" fill="#12263f"/>
        <path id="Trazado_874518" data-name="Trazado 874518" d="M10.451,12.065a4.364,4.364,0,0,1-1.428,3.017,4.867,4.867,0,0,1-3.312,1.083,4.713,4.713,0,0,1-2.544-.685,4.5,4.5,0,0,1-1.7-1.947A7.024,7.024,0,0,1,.847,10.6V9.476a7.075,7.075,0,0,1,.606-3.013A4.567,4.567,0,0,1,3.192,4.454a4.851,4.851,0,0,1,2.619-.706A4.672,4.672,0,0,1,9.031,4.831,4.527,4.527,0,0,1,10.451,7.9H8.359a2.985,2.985,0,0,0-.76-1.88,2.51,2.51,0,0,0-1.789-.577,2.452,2.452,0,0,0-2.1,1A5,5,0,0,0,2.955,9.38v1.072a5.308,5.308,0,0,0,.7,2.991,2.328,2.328,0,0,0,2.054,1.03,2.715,2.715,0,0,0,1.859-.556,2.9,2.9,0,0,0,.789-1.851Zm6.342-2.714h3.154v1.843H16.792v3.594H14.833V11.194H11.663V9.351h3.171V5.989h1.959Zm9.471,0h3.154v1.843H26.264v3.594H24.3V11.194H21.134V9.351H24.3V5.989h1.959Z" transform="translate(813 6743)" fill="#12263f"/>
        <path id="Trazado_874519" data-name="Trazado 874519" d="M6.176,3.914H8.268v8.475a3.606,3.606,0,0,1-1.083,2.756,4,4,0,0,1-2.86,1.021A4.139,4.139,0,0,1,1.4,15.211,3.444,3.444,0,0,1,.374,12.555H2.465A1.987,1.987,0,0,0,2.943,14a1.852,1.852,0,0,0,1.382.486,1.721,1.721,0,0,0,1.349-.56,2.237,2.237,0,0,0,.5-1.548ZM15.838,16a3.113,3.113,0,0,1-.232-.838,3.14,3.14,0,0,1-2.357,1,3.169,3.169,0,0,1-2.208-.772,2.47,2.47,0,0,1-.855-1.909,2.55,2.55,0,0,1,1.067-2.2,5.169,5.169,0,0,1,3.051-.768h1.237V9.924a1.573,1.573,0,0,0-.39-1.116,1.547,1.547,0,0,0-1.187-.419,1.777,1.777,0,0,0-1.129.344,1.066,1.066,0,0,0-.44.876H10.376a2.239,2.239,0,0,1,.49-1.382A3.263,3.263,0,0,1,12.2,7.218a4.68,4.68,0,0,1,1.88-.365,3.769,3.769,0,0,1,2.515.793,2.827,2.827,0,0,1,.963,2.229v4.051a4.591,4.591,0,0,0,.34,1.934V16Zm-2.216-1.453a2.294,2.294,0,0,0,1.125-.291,1.941,1.941,0,0,0,.793-.78V11.783H14.452a2.973,2.973,0,0,0-1.685.39,1.264,1.264,0,0,0-.564,1.1,1.179,1.179,0,0,0,.386.926A1.5,1.5,0,0,0,13.622,14.547Zm9.089-1.1,1.9-6.425H26.7L23.583,16H21.831L18.693,7.019h2.092ZM33.195,16a3.113,3.113,0,0,1-.232-.838,3.393,3.393,0,0,1-4.565.232,2.47,2.47,0,0,1-.855-1.909,2.55,2.55,0,0,1,1.067-2.2,5.169,5.169,0,0,1,3.051-.768H32.9V9.924a1.573,1.573,0,0,0-.39-1.116,1.547,1.547,0,0,0-1.187-.419,1.777,1.777,0,0,0-1.129.344,1.066,1.066,0,0,0-.44.876H27.733a2.239,2.239,0,0,1,.49-1.382,3.263,3.263,0,0,1,1.332-1.009,4.68,4.68,0,0,1,1.88-.365,3.769,3.769,0,0,1,2.515.793,2.827,2.827,0,0,1,.963,2.229v4.051a4.591,4.591,0,0,0,.34,1.934V16Zm-2.216-1.453a2.294,2.294,0,0,0,1.125-.291,1.941,1.941,0,0,0,.793-.78V11.783H31.809a2.973,2.973,0,0,0-1.685.39,1.264,1.264,0,0,0-.564,1.1,1.179,1.179,0,0,0,.386.926A1.5,1.5,0,0,0,30.979,14.547Zm12.559-1.66a1.459,1.459,0,0,0-.56-1.229,6.741,6.741,0,0,0-2.021-.872,9.76,9.76,0,0,1-2.324-.979A3.1,3.1,0,0,1,36.98,7.1a2.945,2.945,0,0,1,1.191-2.407,4.821,4.821,0,0,1,3.092-.946,5.223,5.223,0,0,1,2.25.465,3.692,3.692,0,0,1,1.552,1.324,3.4,3.4,0,0,1,.564,1.905H43.538a1.894,1.894,0,0,0-.594-1.482,2.45,2.45,0,0,0-1.7-.535,2.558,2.558,0,0,0-1.6.44,1.465,1.465,0,0,0-.569,1.229A1.325,1.325,0,0,0,39.694,8.2a7.076,7.076,0,0,0,2.025.863,9.317,9.317,0,0,1,2.266.955,3.6,3.6,0,0,1,1.253,1.229,3.2,3.2,0,0,1,.4,1.623,2.876,2.876,0,0,1-1.158,2.4,5.023,5.023,0,0,1-3.142.892,5.9,5.9,0,0,1-2.411-.486,4.051,4.051,0,0,1-1.71-1.341,3.341,3.341,0,0,1-.61-1.992h2.1a1.955,1.955,0,0,0,.681,1.594,2.981,2.981,0,0,0,1.951.564,2.59,2.59,0,0,0,1.648-.444A1.433,1.433,0,0,0,43.538,12.887Zm7.438,1.668a1.824,1.824,0,0,0,1.253-.44,1.5,1.5,0,0,0,.531-1.087h1.9a2.963,2.963,0,0,1-.523,1.565,3.43,3.43,0,0,1-1.328,1.15,3.958,3.958,0,0,1-1.81.423,3.829,3.829,0,0,1-2.988-1.22,4.84,4.84,0,0,1-1.1-3.37v-.208A4.759,4.759,0,0,1,48,8.085a3.8,3.8,0,0,1,2.988-1.233,3.69,3.69,0,0,1,2.611.934,3.345,3.345,0,0,1,1.058,2.453h-1.9a1.847,1.847,0,0,0-.527-1.27,1.7,1.7,0,0,0-1.258-.5,1.775,1.775,0,0,0-1.511.71,3.621,3.621,0,0,0-.54,2.154v.324a3.682,3.682,0,0,0,.527,2.179A1.773,1.773,0,0,0,50.975,14.556Zm9.911-5.694a4.991,4.991,0,0,0-.822-.066A1.85,1.85,0,0,0,58.2,9.857V16H56.18V7.019h1.926l.05,1a2.273,2.273,0,0,1,2.025-1.17,1.888,1.888,0,0,1,.714.116ZM64.306,16H62.289V7.019h2.017ZM62.165,4.686a1.071,1.071,0,0,1,.295-.772,1.113,1.113,0,0,1,.843-.307,1.127,1.127,0,0,1,.847.307,1.062,1.062,0,0,1,.3.772,1.038,1.038,0,0,1-.3.76,1.136,1.136,0,0,1-.847.3,1.122,1.122,0,0,1-.843-.3A1.046,1.046,0,0,1,62.165,4.686Zm12.2,6.915a5.348,5.348,0,0,1-.946,3.324,3.287,3.287,0,0,1-4.906.27v4.258H66.5V7.019h1.859l.083.913a2.963,2.963,0,0,1,2.416-1.079,3.062,3.062,0,0,1,2.577,1.224,5.49,5.49,0,0,1,.934,3.4Zm-2.009-.174a3.746,3.746,0,0,0-.535-2.133A1.741,1.741,0,0,0,70.291,8.5a1.856,1.856,0,0,0-1.776,1.021V13.51a1.873,1.873,0,0,0,1.793,1.046,1.739,1.739,0,0,0,1.507-.776A4.124,4.124,0,0,0,72.358,11.426ZM78.6,4.835V7.019h1.585V8.513H78.6v5.014a1.1,1.1,0,0,0,.2.743.943.943,0,0,0,.726.228,3.107,3.107,0,0,0,.706-.083v1.561a4.968,4.968,0,0,1-1.328.191q-2.324,0-2.324-2.565V8.513H75.105V7.019h1.478V4.835Z" transform="translate(813 6781)" fill="#12263f"/>
        <circle id="Elipse_11540" data-name="Elipse 11540" cx="14" cy="14" r="14" transform="translate(766 6663)" fill="#6cdfd4"/>
        <circle id="Elipse_11541" data-name="Elipse 11541" cx="14" cy="14" r="14" transform="translate(766 6701)" fill="#123e3a"/>
        <circle id="Elipse_11542" data-name="Elipse 11542" cx="14" cy="14" r="14" transform="translate(766 6739)" fill="#99eca7"/>
        <circle id="Elipse_11543" data-name="Elipse 11543" cx="14" cy="14" r="14" transform="translate(766 6777)" fill="#25a196"/>
      </g>
      <g id="Grupo_1100871" data-name="Grupo 1100871" transform="translate(38 495)">
        <g id="Rectángulo_401685" data-name="Rectángulo 401685" transform="translate(685 6151)" fill="none" stroke="#6cdfd4" stroke-width="3">
          <rect width="214" height="191" rx="26" stroke="none"/>
          <rect x="1.5" y="1.5" width="211" height="188" rx="24.5" fill="none"/>
        </g>
      </g>
    </g>
  </g>
</svg>
