<svg xmlns="http://www.w3.org/2000/svg" xmlns:xlink="http://www.w3.org/1999/xlink" width="610" height="364" viewBox="0 0 610 364">
  <defs>
    <clipPath id="clip-path">
      <rect id="Rectángulo_401985" data-name="Rectángulo 401985" width="608.695" height="345.856" fill="none"/>
    </clipPath>
    <clipPath id="clip-path-3">
      <rect id="Rectángulo_401917" data-name="Rectángulo 401917" width="134.722" height="3.862" fill="none"/>
    </clipPath>
    <clipPath id="clip-path-4">
      <rect id="Rectángulo_401919" data-name="Rectángulo 401919" width="58.722" height="8.774" fill="none"/>
    </clipPath>
    <clipPath id="clip-path-5">
      <rect id="Rectángulo_401923" data-name="Rectángulo 401923" width="13.918" height="107.731" fill="none"/>
    </clipPath>
    <clipPath id="clip-path-6">
      <rect id="Rectángulo_401925" data-name="Rectángulo 401925" width="13.918" height="74.87" fill="none"/>
    </clipPath>
    <clipPath id="clip-path-7">
      <rect id="Rectángulo_401927" data-name="Rectángulo 401927" width="13.92" height="84.39" fill="none"/>
    </clipPath>
    <clipPath id="clip-path-8">
      <rect id="Rectángulo_401929" data-name="Rectángulo 401929" width="13.918" height="87.709" fill="none"/>
    </clipPath>
    <clipPath id="clip-path-9">
      <rect id="Rectángulo_401931" data-name="Rectángulo 401931" width="13.918" height="61.704" fill="none"/>
    </clipPath>
    <clipPath id="clip-path-10">
      <rect id="Rectángulo_401933" data-name="Rectángulo 401933" width="13.918" height="82.902" fill="none"/>
    </clipPath>
    <clipPath id="clip-path-11">
      <rect id="Rectángulo_401935" data-name="Rectángulo 401935" width="13.918" height="57.615" fill="none"/>
    </clipPath>
    <clipPath id="clip-path-12">
      <rect id="Rectángulo_401937" data-name="Rectángulo 401937" width="13.92" height="64.941" fill="none"/>
    </clipPath>
    <clipPath id="clip-path-13">
      <rect id="Rectángulo_401939" data-name="Rectángulo 401939" width="13.918" height="67.495" fill="none"/>
    </clipPath>
    <clipPath id="clip-path-14">
      <rect id="Rectángulo_401941" data-name="Rectángulo 401941" width="13.918" height="47.483" fill="none"/>
    </clipPath>
    <clipPath id="clip-path-15">
      <rect id="Rectángulo_401943" data-name="Rectángulo 401943" width="188.205" height="24.155" fill="none"/>
    </clipPath>
    <clipPath id="clip-path-16">
      <rect id="Rectángulo_401945" data-name="Rectángulo 401945" width="121.135" height="6.192" fill="none"/>
    </clipPath>
    <clipPath id="clip-path-19">
      <rect id="Rectángulo_401952" data-name="Rectángulo 401952" width="121.135" height="6.191" fill="none"/>
    </clipPath>
    <clipPath id="clip-path-20">
      <rect id="Rectángulo_401968" data-name="Rectángulo 401968" width="38.879" height="48.839" fill="none"/>
    </clipPath>
    <clipPath id="clip-path-21">
      <rect id="Rectángulo_401969" data-name="Rectángulo 401969" width="31.273" height="40.817" fill="none"/>
    </clipPath>
    <clipPath id="clip-path-22">
      <rect id="Rectángulo_401970" data-name="Rectángulo 401970" width="6.167" height="6.178" fill="none"/>
    </clipPath>
    <clipPath id="clip-path-23">
      <rect id="Rectángulo_401972" data-name="Rectángulo 401972" width="29.358" height="29.358" fill="none"/>
    </clipPath>
    <clipPath id="clip-path-24">
      <rect id="Rectángulo_401974" data-name="Rectángulo 401974" width="57.273" height="3.989" fill="none"/>
    </clipPath>
    <clipPath id="clip-path-25">
      <rect id="Rectángulo_401976" data-name="Rectángulo 401976" width="38.651" height="3.989" fill="none"/>
    </clipPath>
    <clipPath id="clip-path-26">
      <rect id="Rectángulo_401978" data-name="Rectángulo 401978" width="51.446" height="3.989" fill="none"/>
    </clipPath>
    <clipPath id="clip-path-27">
      <rect id="Rectángulo_401979" data-name="Rectángulo 401979" width="83.192" height="83.18" fill="none"/>
    </clipPath>
    <clipPath id="clip-path-28">
      <rect id="Rectángulo_401980" data-name="Rectángulo 401980" width="71.375" height="72.148" fill="none"/>
    </clipPath>
    <clipPath id="clip-path-29">
      <rect id="Rectángulo_401981" data-name="Rectángulo 401981" width="61.628" height="62.383" fill="none"/>
    </clipPath>
    <clipPath id="clip-path-30">
      <rect id="Rectángulo_401982" data-name="Rectángulo 401982" width="88.343" height="88.329" fill="none"/>
    </clipPath>
  </defs>
  <g id="img18" transform="translate(-705 -10054)">
    <g id="Grupo_1101223" data-name="Grupo 1101223" transform="translate(706.305 10072.145)">
      <g id="Grupo_1101222" data-name="Grupo 1101222" clip-path="url(#clip-path)">
        <g id="Grupo_1101221" data-name="Grupo 1101221" transform="translate(0 0)">
          <g id="Grupo_1101220" data-name="Grupo 1101220" clip-path="url(#clip-path)">
            <path id="Trazado_874375" data-name="Trazado 874375" d="M2256.171,303.016a57.444,57.444,0,1,0,69.822-41.526,57.509,57.509,0,0,0-69.822,41.526m14.188,1.664h0a43.324,43.324,0,1,1,82.972,24.967h0a43.324,43.324,0,0,1-82.972-24.968" transform="translate(-1798.14 -207.152)" fill="#f7cc7f"/>
            <path id="Trazado_874376" data-name="Trazado 874376" d="M2066.493,153.522c.271,1.372,1.512,1.851,4.576,3.066,5.481,2.174,10.966,4.349,16.366,6.713a3.809,3.809,0,0,1,1.8,2.662c.624,5.738.9,11.516,1.584,17.246.211,1.776.039,2.72-1.557,3.722-6.378,4.008-12.645,8.195-18.884,12.27,1.56,6.69,9.417,21.726,13.617,25.931,6.616-2.784,13.419-5.525,20.1-8.53,2.081-.935,3.144-.756,4.878.9a151.093,151.093,0,0,0,12.84,10.717c1.794,1.37,2.75,2.443,2.169,4.91-1.507,6.4-2.626,12.881-4.025,19.3-.376,1.726-.047,2.805,1.656,3.333q12.026,3.723,24.057,7.433c1.971.609,2.275-1.011,2.767-2.172,2.491-5.874,5.015-11.739,7.306-17.691.861-2.235,2.014-2.971,4.442-3.047,6.426-.2,12.838-.822,19.75-1.31l13.241,20.1a86.029,86.029,0,0,0,25.645-13.809l-9.066-21.783c4.758-6.027,9.288-11.511,13.484-17.24,1.215-1.658,2.167-1.931,3.99-1.53,6.326,1.39,12.7,2.582,19.032,3.928,1.37.291,2.375.344,3.077-1.153,3.545-7.562,6.406-15.321,7.561-23.66.257-1.859-.41-2.593-1.941-3.225-6.164-2.546-12.279-5.21-18.454-7.73a3.006,3.006,0,0,1-2.258-3.07c-.471-6.329-1.216-12.645-2.12-18.928a2.553,2.553,0,0,1,1.408-2.973c6.294-4.146,12.557-8.337,18.992-12.62a92.3,92.3,0,0,0-13.394-25.5l-22.7,9.448-18.557-15.392c1.134-5.658,2.487-12.166,3.731-18.7,1.021-5.359,1.789-4.654-3.595-6.914a9.057,9.057,0,0,1-1.421-.933l-14.446-4.347a17.891,17.891,0,0,1-3.366-.417c-2.757-.873-4.309-.247-5.407,2.706-2.289,6.152-4.964,12.164-7.625,18.17a3.488,3.488,0,0,1-2.357,1.716c-5.635.713-11.347.939-16.922,1.944-2.728.492-3.876-.254-5.222-2.381-3.818-6.032-7.884-11.907-12.251-18.44l-25.584,13.433c.669,1.7,1.039,2.681,1.442,3.651,2.489,5.978,4.924,11.979,7.52,17.911.737,1.684.362,2.631-.792,4-3.962,4.708-7.621,9.671-11.552,14.407a3.848,3.848,0,0,1-3.072,1.084c-5.233-.909-10.415-2.107-15.631-3.121-4.22-.82-5.791-1.11-7.127.268Zm37.832-.59a59.479,59.479,0,1,1,6.526,45.053,59.089,59.089,0,0,1-6.526-45.053" transform="translate(-1648.266 -57.568)" fill="#f7cc7f"/>
            <path id="Trazado_874377" data-name="Trazado 874377" d="M13.016,275.536c.885.691,1.891.329,4.391-.544,4.471-1.561,8.945-3.124,13.467-4.527a3.058,3.058,0,0,1,2.495.667c3.4,3.156,6.6,6.518,10.028,9.639,1.062.967,1.453,1.631,1.012,3.079-1.766,5.787-3.371,11.624-5.017,17.378,4.464,3.242,17.14,8.242,21.9,8.587,2.554-5.169,5.244-10.41,7.724-15.748.772-1.662,1.512-2.111,3.436-2.016a121.388,121.388,0,0,0,13.431-.242c1.81-.112,2.954.037,3.9,1.841,2.447,4.676,5.177,9.2,7.7,13.837.679,1.246,1.446,1.729,2.758,1.153q9.26-4.062,18.515-8.133c1.517-.666.85-1.81.538-2.774-1.576-4.876-3.126-9.764-4.864-14.584-.653-1.81-.339-2.863,1.1-4.185,3.8-3.5,7.364-7.248,11.3-11.178l18.608,5.246a69.1,69.1,0,0,0,8.313-21.866L136.8,242.7c-.279-6.161-.411-11.872-.875-17.557a2.605,2.605,0,0,1,1.618-3.027c4.572-2.482,9.067-5.106,13.622-7.62.985-.543,1.623-1.039,1.262-2.317a66.092,66.092,0,0,0-7.847-18.342,2.078,2.078,0,0,0-2.874-.938c-5.081,1.695-10.2,3.292-15.27,5.007a2.413,2.413,0,0,1-2.985-.677c-3.613-3.6-7.385-7.039-11.238-10.379a2.051,2.051,0,0,1-.708-2.546c1.643-5.826,3.242-11.664,4.9-17.647a74.118,74.118,0,0,0-21.538-8.442l-8.818,17.671-19.36.409c-2.286-4.031-4.886-8.7-7.563-13.314-2.2-3.791-1.36-3.766-5.818-2.308a7.269,7.269,0,0,1-1.353.181l-11.057,4.955a14.374,14.374,0,0,1-2.263,1.516c-2.133.919-2.746,2.115-1.861,4.486,1.844,4.939,3.38,10,4.922,15.042a2.8,2.8,0,0,1-.529,2.281c-3.047,3.4-6.4,6.535-9.254,10.076-1.4,1.733-2.487,1.883-4.422,1.3-5.489-1.656-11.047-3.086-17.133-4.757L1.88,217.362c1.3.679,2.04,1.082,2.795,1.459,4.654,2.321,9.288,4.685,13.982,6.923,1.333.635,1.6,1.407,1.623,2.846.069,4.942.456,9.879.559,14.821a3.091,3.091,0,0,1-1.3,2.273c-3.655,2.2-7.432,4.2-11.132,6.322-2.994,1.72-4.1,2.37-4.187,3.909Zm22.662-20.247a47.772,47.772,0,1,1,27.647,23.927,47.459,47.459,0,0,1-27.647-23.927" transform="translate(-1.5 -126.198)" fill="#50bfa5"/>
            <path id="Trazado_874378" data-name="Trazado 874378" d="M484.966,9.605l1.817-3.336-1.71-3.392a.522.522,0,0,1,.561-.749l3.725.7L492.048.152a.52.52,0,0,1,.884.3l.485,3.77,3.372,1.736a.523.523,0,0,1-.015.937l-3.425,1.627-.6,3.752a.52.52,0,0,1-.893.275l-2.6-2.764-3.745.583a.522.522,0,0,1-.537-.767" transform="translate(-386.764 0.001)" fill="#f7cc7f"/>
            <path id="Trazado_874379" data-name="Trazado 874379" d="M1464.611,88.345l1.551-2.52-1.246-.505a.533.533,0,0,1,.4-.987l1.437.583,1.387-2.263-1.331-.54a.533.533,0,1,1,.4-.987l1.522.617,1.611-2.592a.533.533,0,0,1,.653-.212l.232.094a.533.533,0,0,1,.254.772l-1.5,2.445,2.206.895,1.611-2.591a.533.533,0,0,1,.653-.213l.253.1a.533.533,0,0,1,.254.772l-1.5,2.445,1.246.505a.533.533,0,0,1-.4.987l-1.437-.583-1.366,2.271,1.331.54a.533.533,0,1,1-.4.987l-1.522-.617-1.645,2.672a.532.532,0,0,1-.654.215l-.272-.11a.533.533,0,0,1-.254-.773l1.551-2.52-2.206-.895-1.646,2.672a.533.533,0,0,1-.654.214l-.272-.11a.532.532,0,0,1-.253-.773m5.622-2.019,1.387-2.263-2.207-.895-1.387,2.263Z" transform="translate(-1168.133 -62.932)" fill="#07345a"/>
            <path id="Trazado_874380" data-name="Trazado 874380" d="M1407.456,231.433l-2.1,11.164c.176.567.722.713,2.069,1.088,2.411.671,4.823,1.341,7.208,2.1a1.615,1.615,0,0,1,.881,1.042c.522,2.393.9,4.819,1.445,7.206a1.328,1.328,0,0,1-.489,1.641c-2.511,1.979-4.967,4.027-7.416,6.028.959,2.753,4.952,8.744,6.914,10.329,2.666-1.473,5.414-2.936,8.1-4.5a1.54,1.54,0,0,1,2.1.161,64.176,64.176,0,0,0,5.9,3.944c.819.5,1.271.907,1.136,1.974-.348,2.766-.528,5.553-.829,8.327-.081.745.106,1.186.849,1.332q5.242,1.029,10.486,2.053c.859.168.915-.529,1.07-1.041.786-2.591,1.588-5.179,2.286-7.794a1.751,1.751,0,0,1,1.737-1.486c2.7-.374,5.38-.925,8.275-1.442l6.492,7.887a36.5,36.5,0,0,0,10.2-6.982l-4.807-8.784c1.736-2.757,3.4-5.275,4.914-7.882a1.377,1.377,0,0,1,1.615-.826c2.732.3,5.474.518,8.208.8.591.061,1.017.038,1.246-.625a34.923,34.923,0,0,0,2.125-10.324,1.1,1.1,0,0,0-.964-1.273c-2.716-.8-5.416-1.646-8.135-2.431a1.275,1.275,0,0,1-1.091-1.194c-.484-2.649-1.082-5.281-1.747-7.891a1.084,1.084,0,0,1,.46-1.318c2.469-2.033,4.923-4.083,7.446-6.18a39.167,39.167,0,0,0-6.8-10.156l-9.154,5.009-8.523-5.66c.223-2.438.5-5.246.732-8.057.189-2.307.545-2.044-1.828-2.755a3.845,3.845,0,0,1-.642-.33l-6.292-1.184a7.6,7.6,0,0,1-1.439-.024c-1.2-.244-1.829.09-2.16,1.385-.689,2.7-1.547,5.356-2.4,8.01a1.48,1.48,0,0,1-.917.83c-2.345.555-4.745.907-7.053,1.582a1.81,1.81,0,0,1-2.31-.769c-1.883-2.373-3.863-4.669-6-7.229L1418.061,214c.359.686.559,1.085.773,1.476,1.319,2.41,2.617,4.833,3.98,7.219a1.381,1.381,0,0,1-.154,1.724c-1.46,2.165-2.78,4.424-4.226,6.6a1.634,1.634,0,0,1-1.247.6c-2.249-.148-4.49-.42-6.736-.613-1.818-.156-2.493-.207-3,.434m20.753,9.4a18.385,18.385,0,1,1,14.668,21.467A18.385,18.385,0,0,1,1428.209,240.83Z" transform="translate(-1120.932 -162.151)" fill="#f47458"/>
            <path id="Trazado_874381" data-name="Trazado 874381" d="M1055.084,22.871l6.61.8-2.821-5.132Z" transform="translate(-841.551 -14.785)" fill="#355389"/>
            <path id="Trazado_874382" data-name="Trazado 874382" d="M1174.981,305.565a4.619,4.619,0,0,0,3.843,4.647,4.529,4.529,0,0,0,4.93-3.084c1.5-4.009-2.889-7.172-5.269-4.746-2.221,2.265-1.519,5.629.879,5.63.9,0,2.36-.758,1.783-1.854a.366.366,0,0,0-.628,0c-.291.5-.268.513-.405.624a1.234,1.234,0,0,1-.785.227c-2.441-.042-.818-5.627,2.06-4.274a3.221,3.221,0,0,1,1.5,4.108,3.678,3.678,0,0,1-3.583,2.575,4.209,4.209,0,0,1-3.725-3.853.3.3,0,0,0-.6,0" transform="translate(-937.17 -240.51)" fill="#f47458"/>
            <path id="Trazado_874383" data-name="Trazado 874383" d="M1884.139,193.063l1.976.849s3.3-.736,3.668-1.356.584-2.186,1.045-2.187a1.409,1.409,0,0,1,1.459,1.324c.09.8-1.248,2.951-1.086,3.208a11.346,11.346,0,0,0,2.049,1.047,1.6,1.6,0,0,1,.946,1.359v0a.852.852,0,0,1-.618.876l-.6.169.139.614a.852.852,0,0,1-.636,1.018l-.464.108.115.377a.852.852,0,0,1-.653,1.087l-.4.077.008.106a.852.852,0,0,1-.71.9l-.4.066-5.263-2.261a3.939,3.939,0,0,1-1.307-.913l-1.72-1.1a.445.445,0,0,1-.166-.556l2.043-4.589a.442.442,0,0,1,.579-.227" transform="translate(-1500.696 -151.84)" fill="#50bfa5"/>
            <path id="Trazado_874384" data-name="Trazado 874384" d="M1330.3,377.977h-35.717a6.619,6.619,0,0,0-6.619,6.619v11.7a6.619,6.619,0,0,0,6.619,6.619H1330.3a6.619,6.619,0,0,0,6.619-6.619V384.6a6.619,6.619,0,0,0-6.619-6.619" transform="translate(-1027.299 -301.48)" fill="#5184ce"/>
            <path id="Trazado_874385" data-name="Trazado 874385" d="M1114.268,1592.713l-37.829,17.436v3.862h134.722v-3.862l-38.171-17.436Z" transform="translate(-858.583 -1270.371)" fill="#466eb6"/>
            <rect id="Rectángulo_401915" data-name="Rectángulo 401915" width="58.746" height="74.768" transform="translate(255.684 247.605)" fill="#466eb6"/>
            <path id="Trazado_874386" data-name="Trazado 874386" d="M884.167,617.7V449.1a14.505,14.505,0,0,0-14.505-14.5h-326.9a14.5,14.5,0,0,0-14.5,14.5V617.7Z" transform="translate(-421.345 -346.637)" fill="#466eb6"/>
            <g id="Grupo_1101138" data-name="Grupo 1101138" transform="translate(217.855 339.777)" opacity="0.3" style="mix-blend-mode: multiply;isolation: isolate">
              <g id="Grupo_1101137" data-name="Grupo 1101137">
                <g id="Grupo_1101136" data-name="Grupo 1101136" clip-path="url(#clip-path-3)">
                  <rect id="Rectángulo_401916" data-name="Rectángulo 401916" width="134.722" height="3.862" transform="translate(0 0)" fill="#184655"/>
                </g>
              </g>
            </g>
            <g id="Grupo_1101141" data-name="Grupo 1101141" transform="translate(255.685 313.567)" opacity="0.3" style="mix-blend-mode: multiply;isolation: isolate">
              <g id="Grupo_1101140" data-name="Grupo 1101140">
                <g id="Grupo_1101139" data-name="Grupo 1101139" clip-path="url(#clip-path-4)">
                  <rect id="Rectángulo_401918" data-name="Rectángulo 401918" width="58.722" height="8.774" transform="translate(-0.001)" fill="#184655"/>
                </g>
              </g>
            </g>
            <path id="Trazado_874387" data-name="Trazado 874387" d="M528.256,1339.33v27.017c0,5.62,3.715,10.176,8.3,10.176H875.87c4.582,0,8.3-4.556,8.3-10.176V1339.33Z" transform="translate(-421.345 -1068.27)" fill="#5184ce"/>
            <path id="Trazado_874388" data-name="Trazado 874388" d="M1400.6,397.682a3.3,3.3,0,1,1-3.3-3.3,3.3,3.3,0,0,1,3.3,3.3" transform="translate(-1111.872 -314.562)" fill="#184655"/>
            <path id="Trazado_874389" data-name="Trazado 874389" d="M908.67,639.231V478.4a7.774,7.774,0,0,0-7.908-7.633H577.33a7.774,7.774,0,0,0-7.908,7.633V639.231Z" transform="translate(-454.18 -375.492)" fill="#cce6ff"/>
            <rect id="Rectángulo_401920" data-name="Rectángulo 401920" width="203.905" height="142.28" transform="translate(130.14 108.26)" fill="#e9ffff"/>
            <rect id="Rectángulo_401921" data-name="Rectángulo 401921" width="203.905" height="16.659" transform="translate(130.14 108.26)" fill="#5184ce"/>
            <g id="Grupo_1101144" data-name="Grupo 1101144" transform="translate(406.609 143.856)" opacity="0.6">
              <g id="Grupo_1101143" data-name="Grupo 1101143">
                <g id="Grupo_1101142" data-name="Grupo 1101142" clip-path="url(#clip-path-5)">
                  <rect id="Rectángulo_401922" data-name="Rectángulo 401922" width="13.918" height="107.731" transform="translate(0 0)" fill="#9bc1f9"/>
                </g>
              </g>
            </g>
            <g id="Grupo_1101147" data-name="Grupo 1101147" transform="translate(387.172 176.717)" opacity="0.6">
              <g id="Grupo_1101146" data-name="Grupo 1101146">
                <g id="Grupo_1101145" data-name="Grupo 1101145" clip-path="url(#clip-path-6)">
                  <rect id="Rectángulo_401924" data-name="Rectángulo 401924" width="13.918" height="74.87" transform="translate(0)" fill="#9bc1f9"/>
                </g>
              </g>
            </g>
            <g id="Grupo_1101150" data-name="Grupo 1101150" transform="translate(426.326 167.197)" opacity="0.6">
              <g id="Grupo_1101149" data-name="Grupo 1101149">
                <g id="Grupo_1101148" data-name="Grupo 1101148" clip-path="url(#clip-path-7)">
                  <rect id="Rectángulo_401926" data-name="Rectángulo 401926" width="13.918" height="84.39" transform="translate(0.001 0)" fill="#9bc1f9"/>
                </g>
              </g>
            </g>
            <g id="Grupo_1101153" data-name="Grupo 1101153" transform="translate(367.735 163.878)" opacity="0.6">
              <g id="Grupo_1101152" data-name="Grupo 1101152">
                <g id="Grupo_1101151" data-name="Grupo 1101151" clip-path="url(#clip-path-8)">
                  <rect id="Rectángulo_401928" data-name="Rectángulo 401928" width="13.918" height="87.709" transform="translate(-0.001 0)" fill="#9bc1f9"/>
                </g>
              </g>
            </g>
            <g id="Grupo_1101156" data-name="Grupo 1101156" transform="translate(348.296 189.884)" opacity="0.6">
              <g id="Grupo_1101155" data-name="Grupo 1101155">
                <g id="Grupo_1101154" data-name="Grupo 1101154" clip-path="url(#clip-path-9)">
                  <rect id="Rectángulo_401930" data-name="Rectángulo 401930" width="13.918" height="61.704" transform="translate(0.001)" fill="#9bc1f9"/>
                </g>
              </g>
            </g>
            <g id="Grupo_1101159" data-name="Grupo 1101159" transform="translate(406.609 168.685)" opacity="0.3" style="mix-blend-mode: multiply;isolation: isolate">
              <g id="Grupo_1101158" data-name="Grupo 1101158">
                <g id="Grupo_1101157" data-name="Grupo 1101157" clip-path="url(#clip-path-10)">
                  <rect id="Rectángulo_401932" data-name="Rectángulo 401932" width="13.918" height="82.902" transform="translate(0)" fill="#9bc1f9"/>
                </g>
              </g>
            </g>
            <g id="Grupo_1101162" data-name="Grupo 1101162" transform="translate(387.172 193.972)" opacity="0.3" style="mix-blend-mode: multiply;isolation: isolate">
              <g id="Grupo_1101161" data-name="Grupo 1101161">
                <g id="Grupo_1101160" data-name="Grupo 1101160" clip-path="url(#clip-path-11)">
                  <rect id="Rectángulo_401934" data-name="Rectángulo 401934" width="13.918" height="57.615" transform="translate(0)" fill="#9bc1f9"/>
                </g>
              </g>
            </g>
            <g id="Grupo_1101165" data-name="Grupo 1101165" transform="translate(426.326 186.647)" opacity="0.3" style="mix-blend-mode: multiply;isolation: isolate">
              <g id="Grupo_1101164" data-name="Grupo 1101164">
                <g id="Grupo_1101163" data-name="Grupo 1101163" clip-path="url(#clip-path-12)">
                  <rect id="Rectángulo_401936" data-name="Rectángulo 401936" width="13.918" height="64.941" transform="translate(0.001 0)" fill="#9bc1f9"/>
                </g>
              </g>
            </g>
            <g id="Grupo_1101168" data-name="Grupo 1101168" transform="translate(367.735 184.093)" opacity="0.3" style="mix-blend-mode: multiply;isolation: isolate">
              <g id="Grupo_1101167" data-name="Grupo 1101167">
                <g id="Grupo_1101166" data-name="Grupo 1101166" clip-path="url(#clip-path-13)">
                  <rect id="Rectángulo_401938" data-name="Rectángulo 401938" width="13.918" height="67.495" transform="translate(-0.001)" fill="#9bc1f9"/>
                </g>
              </g>
            </g>
            <g id="Grupo_1101171" data-name="Grupo 1101171" transform="translate(348.296 204.105)" opacity="0.3" style="mix-blend-mode: multiply;isolation: isolate">
              <g id="Grupo_1101170" data-name="Grupo 1101170">
                <g id="Grupo_1101169" data-name="Grupo 1101169" clip-path="url(#clip-path-14)">
                  <rect id="Rectángulo_401940" data-name="Rectángulo 401940" width="13.918" height="47.483" transform="translate(0.001)" fill="#9bc1f9"/>
                </g>
              </g>
            </g>
            <g id="Grupo_1101174" data-name="Grupo 1101174" transform="translate(137.175 131.779)" opacity="0.6">
              <g id="Grupo_1101173" data-name="Grupo 1101173">
                <g id="Grupo_1101172" data-name="Grupo 1101172" clip-path="url(#clip-path-15)">
                  <rect id="Rectángulo_401942" data-name="Rectángulo 401942" width="188.204" height="24.156" transform="translate(0 -0.001)" fill="#9bc1f9"/>
                </g>
              </g>
            </g>
            <g id="Grupo_1101177" data-name="Grupo 1101177" transform="translate(204.245 162.795)" opacity="0.6">
              <g id="Grupo_1101176" data-name="Grupo 1101176">
                <g id="Grupo_1101175" data-name="Grupo 1101175" clip-path="url(#clip-path-16)">
                  <rect id="Rectángulo_401944" data-name="Rectángulo 401944" width="121.135" height="6.192" transform="translate(0)" fill="#9bc1f9"/>
                </g>
              </g>
            </g>
            <rect id="Rectángulo_401946" data-name="Rectángulo 401946" width="59.591" height="71.45" transform="translate(137.176 162.794)" fill="#5184ce"/>
            <g id="Grupo_1101180" data-name="Grupo 1101180" transform="translate(204.245 175.846)" opacity="0.6">
              <g id="Grupo_1101179" data-name="Grupo 1101179">
                <g id="Grupo_1101178" data-name="Grupo 1101178" clip-path="url(#clip-path-16)">
                  <rect id="Rectángulo_401947" data-name="Rectángulo 401947" width="121.135" height="6.192" transform="translate(0)" fill="#9bc1f9"/>
                </g>
              </g>
            </g>
            <g id="Grupo_1101183" data-name="Grupo 1101183" transform="translate(204.245 215.001)" opacity="0.6">
              <g id="Grupo_1101182" data-name="Grupo 1101182">
                <g id="Grupo_1101181" data-name="Grupo 1101181" clip-path="url(#clip-path-16)">
                  <rect id="Rectángulo_401949" data-name="Rectángulo 401949" width="121.135" height="6.192" transform="translate(0)" fill="#9bc1f9"/>
                </g>
              </g>
            </g>
            <g id="Grupo_1101186" data-name="Grupo 1101186" transform="translate(204.245 228.053)" opacity="0.6">
              <g id="Grupo_1101185" data-name="Grupo 1101185">
                <g id="Grupo_1101184" data-name="Grupo 1101184" clip-path="url(#clip-path-19)">
                  <rect id="Rectángulo_401951" data-name="Rectángulo 401951" width="121.135" height="6.192" transform="translate(0 0)" fill="#9bc1f9"/>
                </g>
              </g>
            </g>
            <path id="Trazado_874390" data-name="Trazado 874390" d="M28.347,930.177l113.139-.2a3.077,3.077,0,0,1,3.082,3.071l.268,149.084a3.076,3.076,0,0,1-3.071,3.082l-113.14.2a3.077,3.077,0,0,1-3.082-3.071l-.269-149.084a3.077,3.077,0,0,1,3.071-3.082" transform="translate(-20.16 -741.76)" fill="#f7cc7f"/>
            <rect id="Rectángulo_401953" data-name="Rectángulo 401953" width="106.874" height="145.717" transform="translate(11.327 192.742) rotate(-0.103)" fill="#fff"/>
            <path id="Trazado_874391" data-name="Trazado 874391" d="M248.224,915.431a1.187,1.187,0,0,0-1.189-1.185l-44.874.081a1.187,1.187,0,0,0-1.185,1.189l.008,4.664,47.248-.085Z" transform="translate(-160.301 -729.216)" fill="#13375b"/>
            <path id="Trazado_874392" data-name="Trazado 874392" d="M289.8,886.427a7.077,7.077,0,1,0,7.09,7.064,7.077,7.077,0,0,0-7.09-7.064m.021,11.616a4.539,4.539,0,1,1,4.531-4.547,4.539,4.539,0,0,1-4.531,4.547" transform="translate(-225.514 -707.027)" fill="#13375b"/>
            <path id="Trazado_874393" data-name="Trazado 874393" d="M247.529,914.7a1.188,1.188,0,0,1,.727,1.092l.008,4.664-47.248.085a5.851,5.851,0,0,0,5.861,5.84l35.546-.064a5.851,5.851,0,0,0,5.84-5.861l-.008-4.664a1.188,1.188,0,0,0-.727-1.092" transform="translate(-160.334 -729.581)" fill="#355389"/>
            <path id="Trazado_874394" data-name="Trazado 874394" d="M202.954,914.646h0a1.186,1.186,0,0,0-.983.525,1.186,1.186,0,0,1,.983-.525" transform="translate(-161.095 -729.535)" fill="#9bc1f9"/>
            <path id="Trazado_874395" data-name="Trazado 874395" d="M201.236,917.937a1.19,1.19,0,0,1,.089-.213,1.19,1.19,0,0,0-.089.213" transform="translate(-160.509 -731.99)" fill="#9bc1f9"/>
            <path id="Trazado_874396" data-name="Trazado 874396" d="M463.5,1103.925l-15.193.027-.027-15.193,15.193-.027Zm-14.573-.595,13.951-.025-.025-13.951-13.951.025Z" transform="translate(-357.556 -868.389)" fill="#184655"/>
            <path id="Trazado_874397" data-name="Trazado 874397" d="M463.726,1228.833l-15.193.027-.027-15.193,15.193-.027Zm-14.573-.595,13.951-.025-.025-13.951-13.951.025Z" transform="translate(-357.735 -968.018)" fill="#184655"/>
            <path id="Trazado_874398" data-name="Trazado 874398" d="M463.951,1353.743l-15.193.027-.027-15.193,15.193-.027Zm-14.573-.595,13.951-.025-.025-13.951-13.951.025Z" transform="translate(-357.915 -1067.648)" fill="#184655"/>
            <path id="Trazado_874399" data-name="Trazado 874399" d="M464.176,1478.652l-15.193.028-.027-15.193,15.193-.027Zm-14.573-.595,13.951-.025-.025-13.951-13.951.025Z" transform="translate(-358.094 -1167.277)" fill="#184655"/>
            <rect id="Rectángulo_401954" data-name="Rectángulo 401954" width="65.021" height="2.187" transform="matrix(1, -0.002, 0.002, 1, 19.341, 220.809)" fill="#9bc1f9"/>
            <rect id="Rectángulo_401955" data-name="Rectángulo 401955" width="65.021" height="2.187" transform="matrix(1, -0.002, 0.002, 1, 19.352, 227.002)" fill="#9bc1f9"/>
            <rect id="Rectángulo_401956" data-name="Rectángulo 401956" width="65.021" height="2.187" transform="matrix(1, -0.002, 0.002, 1, 19.363, 233.194)" fill="#9bc1f9"/>
            <rect id="Rectángulo_401957" data-name="Rectángulo 401957" width="65.021" height="2.187" transform="translate(19.387 246.953) rotate(-0.103)" fill="#9bc1f9"/>
            <rect id="Rectángulo_401958" data-name="Rectángulo 401958" width="65.021" height="2.187" transform="translate(19.399 253.145) rotate(-0.103)" fill="#9bc1f9"/>
            <rect id="Rectángulo_401959" data-name="Rectángulo 401959" width="65.021" height="2.187" transform="translate(19.41 259.337) rotate(-0.103)" fill="#9bc1f9"/>
            <rect id="Rectángulo_401960" data-name="Rectángulo 401960" width="65.021" height="2.187" transform="translate(19.432 271.723) rotate(-0.103)" fill="#9bc1f9"/>
            <rect id="Rectángulo_401961" data-name="Rectángulo 401961" width="65.021" height="2.187" transform="translate(19.443 277.915) rotate(-0.103)" fill="#9bc1f9"/>
            <rect id="Rectángulo_401962" data-name="Rectángulo 401962" width="65.021" height="2.187" transform="translate(19.455 284.107) rotate(-0.103)" fill="#9bc1f9"/>
            <rect id="Rectángulo_401963" data-name="Rectángulo 401963" width="65.021" height="2.187" transform="translate(19.477 296.493) rotate(-0.103)" fill="#9bc1f9"/>
            <rect id="Rectángulo_401964" data-name="Rectángulo 401964" width="65.021" height="2.187" transform="translate(19.488 302.685) rotate(-0.103)" fill="#9bc1f9"/>
            <rect id="Rectángulo_401965" data-name="Rectángulo 401965" width="65.021" height="2.187" transform="translate(19.499 308.878) rotate(-0.103)" fill="#9bc1f9"/>
            <rect id="Rectángulo_401966" data-name="Rectángulo 401966" width="75.011" height="2.187" transform="translate(19.528 324.888) rotate(-0.103)" fill="#9bc1f9"/>
            <rect id="Rectángulo_401967" data-name="Rectángulo 401967" width="89.804" height="2.187" transform="translate(19.537 330.187) rotate(-0.103)" fill="#9bc1f9"/>
            <path id="Trazado_874400" data-name="Trazado 874400" d="M466.986,1092l-4.718-8.095,1.688-.984,2.739,4.7,4.471-10.725,1.8.752Z" transform="translate(-368.712 -858.945)" fill="#f47458"/>
            <path id="Trazado_874401" data-name="Trazado 874401" d="M467.214,1218.543l-4.718-8.094,1.688-.984,2.739,4.7,4.471-10.725,1.8.752Z" transform="translate(-368.893 -959.88)" fill="#f47458"/>
            <path id="Trazado_874402" data-name="Trazado 874402" d="M467.659,1465.954l-4.718-8.094,1.688-.984,2.739,4.7,4.471-10.725,1.8.752Z" transform="translate(-369.248 -1157.219)" fill="#f47458"/>
            <path id="Trazado_874403" data-name="Trazado 874403" d="M470.867,1351.8l-1.361-1.373-3.882,3.847-3.9-3.833-1.356,1.378,3.879,3.816-3.865,3.83,1.36,1.373,3.882-3.847,3.9,3.833,1.356-1.378L467,1355.634Z" transform="translate(-367.2 -1077.124)" fill="#f47458"/>
            <g id="Grupo_1101189" data-name="Grupo 1101189" transform="translate(11.505 289.577)" opacity="0.3" style="mix-blend-mode: multiply;isolation: isolate">
              <g id="Grupo_1101188" data-name="Grupo 1101188">
                <g id="Grupo_1101187" data-name="Grupo 1101187" clip-path="url(#clip-path-20)">
                  <path id="Trazado_874404" data-name="Trazado 874404" d="M67.678,1430.82A27.951,27.951,0,0,0,56.849,1433l.006,3.561A24.765,24.765,0,0,1,81.1,1479.659l5.333-.01q.574-.517,1.125-1.068a28,28,0,0,0-19.884-47.762" transform="translate(-56.849 -1430.82)" fill="#9bc1f9"/>
                </g>
              </g>
            </g>
            <g id="Grupo_1101192" data-name="Grupo 1101192" transform="translate(11.521 297.167)" opacity="0.3" style="mix-blend-mode: multiply;isolation: isolate">
              <g id="Grupo_1101191" data-name="Grupo 1101191">
                <g id="Grupo_1101190" data-name="Grupo 1101190" clip-path="url(#clip-path-21)">
                  <path id="Trazado_874405" data-name="Trazado 874405" d="M67.753,1468.327a20.286,20.286,0,0,0-10.828,3.14l0,1.939a18.794,18.794,0,1,1,.055,30.7l0,1.939a20.405,20.405,0,1,0,10.765-37.716" transform="translate(-56.925 -1468.327)" fill="#9bc1f9"/>
                </g>
              </g>
            </g>
            <path id="Trazado_874406" data-name="Trazado 874406" d="M1216.46,75.715l-2.062,8.043,6.312-3.545,18.854-6.953-13.895-.385s-7.2.864-7.625,1.161a17.146,17.146,0,0,0-1.585,1.679" transform="translate(-968.622 -58.126)" fill="#50bfa5"/>
            <path id="Trazado_874407" data-name="Trazado 874407" d="M1197.431,58.925l28.6,3.208-23.1,2.455Z" transform="translate(-955.089 -47)" fill="#96d9c9"/>
            <path id="Trazado_874408" data-name="Trazado 874408" d="M1238.443,86.554l-6.769-6.91,21.67-4.866Z" transform="translate(-982.402 -59.644)" fill="#96d9c9"/>
            <path id="Trazado_874409" data-name="Trazado 874409" d="M1009.9,126.768a18.271,18.271,0,0,1,.6-1.909c.218-.577.469-1.154.746-1.715l.608.3c-.268.541-.51,1.1-.72,1.653a17.66,17.66,0,0,0-.581,1.838q-.07.272-.131.545l-.662-.148c.043-.192.089-.383.136-.566m3.732-7.366a25.747,25.747,0,0,1,3.042-3.217l.452.5a25.082,25.082,0,0,0-2.962,3.132Zm21.5,1.209-.107-.09.44-.515.088.074a.363.363,0,0,0,.065.029,3.123,3.123,0,0,0,1.9-.009,2.873,2.873,0,0,0,1.236-1.1l.569.368a3.582,3.582,0,0,1-1.53,1.356,3.772,3.772,0,0,1-2.411.024.886.886,0,0,1-.247-.133m-14.955-7.122a35.322,35.322,0,0,1,3.828-2.2l.3.607a34.566,34.566,0,0,0-3.754,2.16Zm12.9,1.551a8.245,8.245,0,0,1,.481-1.947,9.789,9.789,0,0,1,.467-1.043l.6.312a9.038,9.038,0,0,0-.434.97,7.542,7.542,0,0,0-.442,1.786,6.241,6.241,0,0,0-.018,1.273l-.675.06a6.956,6.956,0,0,1,.02-1.411m3.642-3.041-.08-.051.359-.575.087.055a6.815,6.815,0,0,1,2.777,3.441l-.642.218a6.129,6.129,0,0,0-2.5-3.088m-8.422-1.932a15.489,15.489,0,0,1,2.9-.312c.559.04,1.069.1,1.558.169l-.1.67c-.472-.071-.965-.124-1.506-.163a14.01,14.01,0,0,0-2.732.3Zm8.481-1.539a15.151,15.151,0,0,1,3.688-2.507l.295.61a14.478,14.478,0,0,0-3.523,2.395Z" transform="translate(-805.405 -84.565)" fill="#9bc1f9"/>
            <path id="Trazado_874410" data-name="Trazado 874410" d="M1182.593,99.544a13.066,13.066,0,0,1,2.173-.147l.012-.678a13.744,13.744,0,0,0-2.286.154Z" transform="translate(-943.173 -78.739)" fill="#9bc1f9"/>
            <path id="Trazado_874411" data-name="Trazado 874411" d="M918.449,152.624c.408.017,1.526.391,3.161,3.481,2.088,3.946,5.14,15.867,5.14,15.867l-9.109,3.393-1.17-2.488-1.927-19.156s3.793-1.1,3.906-1.1" transform="translate(-729.453 -121.735)" fill="#a34b3d"/>
            <path id="Trazado_874412" data-name="Trazado 874412" d="M810.671,144.133a55.652,55.652,0,0,1,12.042,1.719s2.2,18.888-1.979,33.241c-.935,3.213.773,13.319.773,13.319l-26.993-.356s3.2-24.431,1.993-28.377-1.233-17.7-1.233-17.7.185-.029,6.065-1.045a61.093,61.093,0,0,1,9.332-.8" transform="translate(-633.717 -114.962)" fill="#b75742"/>
            <path id="Trazado_874413" data-name="Trazado 874413" d="M828.567,555.907s.6,6.892,1.695,8.8-.058,5.153-.115,5.6-2.311,1.081-5.894.7-3.525-1.209-3.236-2.545,2.2-3.054,2.311-4.326-1.1-5.853-1.1-5.853Z" transform="translate(-654.758 -443.4)" fill="#f7a491"/>
            <path id="Trazado_874414" data-name="Trazado 874414" d="M816.647,352.908s18.633-1.035,22.794,1.485-2.956,14.887-2.956,14.887-12.966-.6-38.361.868c-6.014.347-6.532-15.681-5.408-17.007s23.931-.234,23.931-.234" transform="translate(-631.902 -281.147)" fill="#e0973f"/>
            <path id="Trazado_874415" data-name="Trazado 874415" d="M822.939,607.86c-3.689-.393-3.233-2.206-2.936-3.581.186-.861,1.245-1.877,1.875-2.837a6.149,6.149,0,0,0,2.468,1.2c1.664.491,3.945-.481,5.4-1.09a17.824,17.824,0,0,1,.493,4.759c-.059.459-3.61,1.943-7.3,1.55" transform="translate(-653.892 -479.718)" fill="#dd513a"/>
            <path id="Trazado_874416" data-name="Trazado 874416" d="M789.689,366.968c.744,5.633,4.43,33.676,4.43,33.676l-8.553,1.06s-10.517-36.6-9.978-42.2,4.476-6.07,4.476-6.07,7.653-1.378,9.624,13.534" transform="translate(-618.605 -281.877)" fill="#f7cc7f"/>
            <path id="Trazado_874417" data-name="Trazado 874417" d="M780.228,163.517c2.524-.947,3.758,21.793,4.1,31.153a109.978,109.978,0,0,0,14.2-.142c.912-.069,3.016-.839,3.923-.958a9.1,9.1,0,0,1,2.23-.106,42.132,42.132,0,0,1,5.225,2.352c.494.518,1.83,1.825,1.6,2.39s-2.57-1.575-2.57-1.575l-1.146-.643c1.426,1.393,4.146,3.228,3.754,3.9-.382.651-2.836-1.21-4.585-2.48,1.5,1.355,3.363,3.779,2.934,4.157-.386.34-2.505-2.467-4.771-3.275-.84-.3-1.676.53-2.337.63a4.749,4.749,0,0,1-1.711.1l-2.453-.7c-.836.075-.857.57-1.7.749-.98.208-2.587.428-3.834.733-7.183,1.755-9.579,2.57-11.779,2.569-6.662,0-7.048-36.614-1.084-38.851" transform="translate(-618.964 -130.401)" fill="#f7a491"/>
            <path id="Trazado_874418" data-name="Trazado 874418" d="M772.431,176.491c-.473-9.587-.4-21.4,4.971-23.42,2.121-.8,5.859,3.988,5.186,23.615a40.387,40.387,0,0,1-10.157-.195" transform="translate(-615.957 -122.026)" fill="#a34b3d"/>
            <path id="Trazado_874419" data-name="Trazado 874419" d="M953.37,588.08s-1.235,2.181-.263,4.01,6.071,4.519,6.6,5.511a2.4,2.4,0,0,1,.323,1.693l-15.142-3.712,1.16-4.564,1.416-3.154Z" transform="translate(-753.659 -468.889)" fill="#f7a491"/>
            <path id="Trazado_874420" data-name="Trazado 874420" d="M951.56,605.5s-4.256.737-5.944-.609-1.575-1.593-2.2-1.362c-.4.149-1.009,1.966-1.393,3.246a1.245,1.245,0,0,0,.9,1.565l15.767,3.9c1.2.23,1.99-.517,1.184-1.478a14.256,14.256,0,0,0-1.627-1.514c-1.174-1.058-6.684-3.744-6.684-3.744" transform="translate(-751.331 -481.321)" fill="#dd513a"/>
            <path id="Trazado_874421" data-name="Trazado 874421" d="M956.553,358.836c1.2-2.535,3.944-5.835,8.764-3.847,4.6,1.9,5.831,6.555,4.381,11.326s-11,32.817-11.332,36.673l-7.624.051s1.386-22.207,1.725-27.575a51.987,51.987,0,0,1,4.086-16.627" transform="translate(-758.325 -282.658)" fill="#f7cc7f"/>
            <path id="Trazado_874422" data-name="Trazado 874422" d="M845.01,248.761H819.525a1.662,1.662,0,0,0-1.538,1.035L810.14,269H796.09a.713.713,0,0,0,0,1.427h39.988a2.791,2.791,0,0,0,2.547-1.654l7.9-17.661a1.667,1.667,0,0,0-1.516-2.35" transform="translate(-634.406 -198.415)" fill="#184655"/>
            <path id="Trazado_874423" data-name="Trazado 874423" d="M961.929,296.688a1.4,1.4,0,1,1-1.051-1.835,1.5,1.5,0,0,1,1.051,1.835" transform="translate(-765.046 -235.159)" fill="#fff"/>
            <path id="Trazado_874424" data-name="Trazado 874424" d="M848.364,22.447a19.506,19.506,0,0,1-2.255-.9,11.322,11.322,0,0,0-2.57-.969c-1.422-.219-3.866-.073-5.215,1.391-1.681,1.823-4.668.329-4.066,9.88.681,10.81,6.692,9.624,6.838,9.441s5.361-6.916,5.361-6.916,1.823,3.989,1.823,3.842,9.311-12.659.084-15.767" transform="translate(-665.353 -16.346)" fill="#0e2e35"/>
            <path id="Trazado_874425" data-name="Trazado 874425" d="M857.392,103.2l.519,3.863s1.162,5.565-.333,6.638-6.359-6.8-6.359-6.8l.514-9.788Z" transform="translate(-678.944 -77.464)" fill="#f7a491"/>
            <path id="Trazado_874426" data-name="Trazado 874426" d="M852.936,100.292a11.082,11.082,0,0,0,6.266,6.187l-.44-3.275L853.1,97.12Z" transform="translate(-680.315 -77.464)" fill="#f47458"/>
            <path id="Trazado_874427" data-name="Trazado 874427" d="M854.465,44.232a5.151,5.151,0,0,1,5.932,5.209,39.165,39.165,0,0,1-.434,4.955c-.689,4.459-3.731,8.386-5.743,8.035s-7.073-4.2-6.182-10.543c.55-3.918,3.1-7.119,6.427-7.656" transform="translate(-676.325 -35.228)" fill="#f7a491"/>
            <path id="Trazado_874428" data-name="Trazado 874428" d="M843.812,78a1.5,1.5,0,1,1-1.14-2.028A1.659,1.659,0,0,1,843.812,78" transform="translate(-670.703 -60.581)" fill="#f7a491"/>
            <path id="Trazado_874429" data-name="Trazado 874429" d="M846.689,44.786s2.432.6,3.335-.96,4.13-4.94,8.233-3.54-3.611-3.4-3.939-3.4-4.267-.028-4.267-.028-3.036,2.5-3.145,2.772-.985,3.266-.985,3.266Z" transform="translate(-674.719 -29.396)" fill="#0e2e35"/>
            <path id="Trazado_874430" data-name="Trazado 874430" d="M871.636,108.292l4.426.846a1.97,1.97,0,0,1-2.379,1.351c-2.386-.385-2.046-2.2-2.046-2.2" transform="translate(-695.217 -86.375)" fill="#fff"/>
            <path id="Trazado_874431" data-name="Trazado 874431" d="M1108.115,1613.872s-.81,5.65-2.2,7.474a14.394,14.394,0,0,0-1.883,2.492c-.873,1.721-.39,4.285.254,5.7.33.725-.023.722.729.956a4.616,4.616,0,0,0,5.549-2.62,13.367,13.367,0,0,0,1.089-4.814c.238-5.13,1.824-7.739,1.824-7.739Z" transform="translate(-880.212 -1287.249)" fill="#f7a491"/>
            <path id="Trazado_874432" data-name="Trazado 874432" d="M1242.906,1626.641s.5,6.371.094,8.442c-.217,1.109-1.428,3.391-.873,4.434a2.8,2.8,0,0,0,1.19,1.3l14.39.233c.784.013.266-.495-.366-.962a28.965,28.965,0,0,0-5.174-2.879c-.215-.1-1-.607-1.283-.781a9.976,9.976,0,0,1-2.058-1.829c-1.033-1.157-1.123-6.767-1.123-6.767Z" transform="translate(-990.624 -1297.433)" fill="#f7a491"/>
            <path id="Trazado_874433" data-name="Trazado 874433" d="M1247.945,1201.895s1.812,10.344.622,17.126-6.9,69.644-6.9,69.644l-6.346.36s-1.33-26.259-1.092-29.91a56.879,56.879,0,0,1,2.121-9.763l-.632-21.2,8.008-27.852Z" transform="translate(-984.417 -957.376)" fill="#e25a44"/>
            <path id="Trazado_874434" data-name="Trazado 874434" d="M1139.941,1188.185s-5,7.564-6.187,13.824.874,25.5-1.415,33.7c-1.239,4.441-5.935,11.3-6.649,17.037s-3.514,20.77-3.514,20.77l6.343,1.265,14.742-37.54,11.564-33.93,2.962-17.475Z" transform="translate(-895.065 -945.841)" fill="#f47458"/>
            <path id="Trazado_874435" data-name="Trazado 874435" d="M1109.067,1665.941a7.074,7.074,0,0,1-6.954-2.922c-.879,1.725-1.307,4.3-.661,5.716.569,1.248,2.233,1.212,3.543,1.261a3.418,3.418,0,0,0,3.144-1.935,11.637,11.637,0,0,0,.929-2.119" transform="translate(-878.286 -1326.449)" fill="#f7cc7f"/>
            <path id="Trazado_874436" data-name="Trazado 874436" d="M1250.757,1673.746a12.956,12.956,0,0,1-8.193-.324c-.406,1.157-.944,2.608-.658,3.445.349,1.024.847,1.256,1.286,1.268,3.476.092,12.734.217,15.384.251a.436.436,0,0,0,.336-.716c-.657-.79-7.872-3.75-8.155-3.925" transform="translate(-990.499 -1334.747)" fill="#f7cc7f"/>
            <path id="Trazado_874437" data-name="Trazado 874437" d="M1287.895,1083.326c.265-.564-2.531-1.331-2.621-1.938s3.658-.265,3.846-.771c.346-.932-4.081-.627-3.949-1.066s4.683-.978,4.281-1.8-4.66,1.051-4.728.517,4.117-1.382,4.163-2.533c.025-.615-6.968,2.356-7.7,1.945s1.157-3.118.591-3.607-3.021,5.17-3.464,5.335-10.038,3.066-13.3,3.547c-.276-1.1-2.729-7.185-2.965-8.227-1.916,1.085-4.357-.221-6.318.746.987,3.481,3.2,14.946,4.089,15.462,2.7,1.572,16.885-5.923,19.23-7.25s3.546-.694,5.075-1.032,3.506,1.231,3.771.668" transform="translate(-1001.588 -856.676)" fill="#f38b80"/>
            <path id="Trazado_874438" data-name="Trazado 874438" d="M1121.263,893.637c.713-3.244,1.412-6.509-.469-10.073a9.149,9.149,0,0,0-7.2-4.905c-8.631-1.024-6.787,7.034-18.85,8.778-3.749.542-7.231,1.063-10.361,2.927-5.651,3.366-7.785,8.766-4.037,17.564,9.177,21.542,31.136,2.823,34.486-.987,3.324-3.781,5.972-11.215,6.432-13.3" transform="translate(-860.203 -700.76)" fill="#0e2e35"/>
            <path id="Trazado_874439" data-name="Trazado 874439" d="M1193.009,1003.618s-4.358.495-6.965,3.33,4.214,25.63,4.688,29.239-4.533,13.6-4.533,13.6,17.019,3.383,21.443.461c0,0,.389-27.9-.085-30.473s-4.424-13.062-5.372-14.094-9.175-2.062-9.175-2.062" transform="translate(-945.534 -800.501)" fill="#f7cc7f"/>
            <path id="Trazado_874440" data-name="Trazado 874440" d="M1224.106,959.621s-.034.194-.1.523c-.294,1.581-1.425,6.826-2.19,8.268-.924,1.742,3.162,7.3,7.095,6.622,1.171-.2-.99-5.106-.886-5.626.2-.994.468-2.351.744-3.742l.461-2.328c.42-2.125.764-3.863.764-3.863Z" transform="translate(-974.438 -765.291)" fill="#f7a491"/>
            <g id="Grupo_1101195" data-name="Grupo 1101195" transform="translate(249.395 194.183)" opacity="0.5">
              <g id="Grupo_1101194" data-name="Grupo 1101194">
                <g id="Grupo_1101193" data-name="Grupo 1101193" clip-path="url(#clip-path-22)">
                  <path id="Trazado_874441" data-name="Trazado 874441" d="M1232.456,960.144c.061-.329.1-.523.1-.523l5.893-.147s-.343,1.738-.764,3.863l-.458,2.315a5.525,5.525,0,0,1-2.814-1.408,7.421,7.421,0,0,1-2.131-3.164c.073-.372.133-.692.179-.937" transform="translate(-1232.278 -959.474)" fill="#f47458"/>
                </g>
              </g>
            </g>
            <path id="Trazado_874442" data-name="Trazado 874442" d="M1227.161,890.983a6.953,6.953,0,0,0-4.144,2.581c-1.741,2.247-3.618,9.2.708,12.975s8.6-.5,9.232-5.033.505-10.687-5.8-10.523" transform="translate(-973.948 -710.659)" fill="#f7a491"/>
            <path id="Trazado_874443" data-name="Trazado 874443" d="M1276.878,928.247c-.273,1.093-.989,1.832-1.6,1.649s-.885-1.216-.612-2.309.989-1.832,1.6-1.65.885,1.216.612,2.31" transform="translate(-1016.609 -738.52)" fill="#f7a491"/>
            <path id="Trazado_874444" data-name="Trazado 874444" d="M1219.779,890.637s-5.648,6.484-8.3,6.789-3,3.817-3,3.817.949-8.092,3.577-9.652,7.729-.954,7.729-.954" transform="translate(-963.897 -710.293)" fill="#0e2e35"/>
            <path id="Trazado_874445" data-name="Trazado 874445" d="M1216.659,925.072c.216,1.174-.219,2.25-.97,2.4s-1.536-.673-1.751-1.846.218-2.25.97-2.4,1.536.672,1.752,1.846" transform="translate(-968.211 -736.364)" fill="#f7a491"/>
            <path id="Trazado_874446" data-name="Trazado 874446" d="M1208.636,1094.979l18.25,2.67a1,1,0,0,1,.848,1.139l-3.562,24.347a1,1,0,0,1-1.139.848l-18.25-2.67a1,1,0,0,1-.848-1.139l3.562-24.347a1,1,0,0,1,1.139-.848" transform="translate(-960.268 -873.363)" fill="#184655"/>
            <path id="Trazado_874447" data-name="Trazado 874447" d="M1262.418,1095.567a.2.2,0,0,0-.172-.231l-7.612-1.113a.2.2,0,0,0-.231.172l-.116.791,8.015,1.173Z" transform="translate(-1000.438 -872.766)" fill="#13375b"/>
            <path id="Trazado_874448" data-name="Trazado 874448" d="M1270.027,1092.177a1.213,1.213,0,1,0,1.025,1.376,1.213,1.213,0,0,0-1.025-1.376m-.288,1.971a.778.778,0,1,1,.883-.657.778.778,0,0,1-.883.657" transform="translate(-1011.885 -871.127)" fill="#13375b"/>
            <path id="Trazado_874449" data-name="Trazado 874449" d="M1262.28,1099.167a.2.2,0,0,1,.1.2l-.116.791-8.015-1.173a1,1,0,0,0,.847,1.138l6.03.882a1,1,0,0,0,1.138-.847l.116-.791a.2.2,0,0,0-.1-.2" transform="translate(-1000.396 -876.57)" fill="#355389"/>
            <path id="Trazado_874450" data-name="Trazado 874450" d="M1250.233,954l-4.107-.022a1.8,1.8,0,0,0,1.892,1.622c2.2.075,2.215-1.6,2.215-1.6" transform="translate(-993.929 -760.91)" fill="#fff"/>
            <path id="Trazado_874451" data-name="Trazado 874451" d="M1163.82,1125.785l6.613.676s-.108,5.612.006,6.257c0,0,11.308,3.134,16.034,3.985,0,0,2.152-1.22,3.022-1.607a21.1,21.1,0,0,1,3.728-.879c.518-.068.341.5-.1.7a4.3,4.3,0,0,0-1.92,1.4,3.591,3.591,0,0,0,1.427-.118c.494-.22,1.174-.686,1.185-.927s.123-.824.285-.792c.041.008.1.2.152.4s.109.385.155.576c.083.344.179.847.216,1.073a15.59,15.59,0,0,1-.275,2.442c-.081.922-.344,1.332-.831,1.567a12.049,12.049,0,0,1-2.842.575,19.119,19.119,0,0,1-5.219-.516c-.9-.1-15.3-1.529-15.3-1.529s-5.724-.824-6.1-1.809-.227-11.471-.227-11.471" transform="translate(-928.256 -897.943)" fill="#f7a491"/>
            <path id="Trazado_874452" data-name="Trazado 874452" d="M1167.979,1015.624s-2.087.99-3.922,5.264c-1.743,4.062-2.256,24.333-2.256,24.333l6.917-1.153,3.515-9.451a17.333,17.333,0,0,0-1.792-17.239c-.974-1.333-1.871-2.137-2.463-1.754" transform="translate(-926.67 -810.001)" fill="#f7cc7f"/>
            <g id="Grupo_1101198" data-name="Grupo 1101198" transform="translate(350.379 108.246)" opacity="0.6">
              <g id="Grupo_1101197" data-name="Grupo 1101197">
                <g id="Grupo_1101196" data-name="Grupo 1101196" clip-path="url(#clip-path-23)">
                  <rect id="Rectángulo_401971" data-name="Rectángulo 401971" width="29.359" height="29.359" transform="translate(-0.001 0)" fill="#9bc1f9"/>
                </g>
              </g>
            </g>
            <g id="Grupo_1101201" data-name="Grupo 1101201" transform="translate(384.932 108.246)" opacity="0.6">
              <g id="Grupo_1101200" data-name="Grupo 1101200">
                <g id="Grupo_1101199" data-name="Grupo 1101199" clip-path="url(#clip-path-24)">
                  <rect id="Rectángulo_401973" data-name="Rectángulo 401973" width="57.275" height="3.989" transform="translate(-0.001 0)" fill="#9bc1f9"/>
                </g>
              </g>
            </g>
            <g id="Grupo_1101204" data-name="Grupo 1101204" transform="translate(384.932 116.701)" opacity="0.6">
              <g id="Grupo_1101203" data-name="Grupo 1101203">
                <g id="Grupo_1101202" data-name="Grupo 1101202" clip-path="url(#clip-path-25)">
                  <rect id="Rectángulo_401975" data-name="Rectángulo 401975" width="38.652" height="3.989" transform="translate(-0.001 0)" fill="#9bc1f9"/>
                </g>
              </g>
            </g>
            <g id="Grupo_1101207" data-name="Grupo 1101207" transform="translate(384.932 125.159)" opacity="0.6">
              <g id="Grupo_1101206" data-name="Grupo 1101206">
                <g id="Grupo_1101205" data-name="Grupo 1101205" clip-path="url(#clip-path-26)">
                  <rect id="Rectángulo_401977" data-name="Rectángulo 401977" width="51.447" height="3.989" transform="translate(-0.001 0)" fill="#9bc1f9"/>
                </g>
              </g>
            </g>
            <path id="Trazado_874453" data-name="Trazado 874453" d="M2396.768,1015.836c-1.2-.976-10.481,3.1-10.363,4.514s-6.476,15.161-6.476,15.161l-11.395-9.086,0,0c-.1-.329-1.181-3.862-1.234-4.494-.055-.663-1.98-1.823-2.875-1.653s.765,1.293.874,1.5c.3.56-.849.771-.849.771s-3.254-1.044-3.324-2.106-2.3,1.858-2.034,2.264,5.573,4.681,6.338,5.611c0,0,14.739,16.849,15.789,17.29.92.387,4.2-5.42,7.305-9.274s12-17.451,8.249-20.5" transform="translate(-1881.627 -810.127)" fill="#f7a491"/>
            <path id="Trazado_874454" data-name="Trazado 874454" d="M2687.559,1606.783s2.026,1.976,2.071,2.7.179,8.495-.647,9.22-3.255,1.24-2.474,2.056c.59.616,5.13.485,8.139.319.878-.048,1.98-7.056,2.328-8.086.505-1.5,1.734-4.865,1.275-5.908a8.765,8.765,0,0,0-2.8-2.527,13.788,13.788,0,0,1-3.105-3.307Z" transform="translate(-2142.678 -1277.183)" fill="#f48c7f"/>
            <path id="Trazado_874455" data-name="Trazado 874455" d="M2558.594,1650.89s1.813,5.12,1.815,5.133c.135.811.666,2.815.666,3.553,0,2.77-12.494-2.352-9.694-3.579a2.959,2.959,0,0,0,1.132-1.941,6.489,6.489,0,0,0-1.052-3.275Z" transform="translate(-2034.693 -1316.687)" fill="#f7a491"/>
            <path id="Trazado_874456" data-name="Trazado 874456" d="M2478.529,1180.221s-.911,9.179-.911,9.316c0,14.848-2.943,43.851-2.384,46.643,1.366,6.809,16.063,41.543,16.063,41.543l7.943-.949-8.526-41.973,1.984-16.352,5.39-33.087Z" transform="translate(-1974.228 -941.362)" fill="#50bfa5"/>
            <path id="Trazado_874457" data-name="Trazado 874457" d="M2527.5,1193.5l1.506,8.7,4.079,35.8L2548.613,1273s-2.184,5.092-5.407,5.807l-24.717-35.927-15.354-45.972.539-10.213Z" transform="translate(-1996.538 -946.525)" fill="#96d9c9"/>
            <path id="Trazado_874458" data-name="Trazado 874458" d="M2476.139,977.544l11.015,1.124s.5-9.03.5-13.337c0-5.226-.445-11.957-1.076-11.812a9.6,9.6,0,0,0-5.577,3.336c-4.914,6.752-4.867,20.689-4.867,20.689" transform="translate(-1975.006 -760.539)" fill="#b75742"/>
            <path id="Trazado_874459" data-name="Trazado 874459" d="M2485.279,963.04c-.231,1.593-4.465,44.909-4.465,44.909,20.055,9.686,31.122,1.726,31.122,1.726s-.656-30.417.13-34.557c.521-2.739,1.169-20.94-.605-21.45a44.452,44.452,0,0,0-7.736-1.644c-2.43-.252-11.87-.4-13.559.169a21.5,21.5,0,0,0-4.887,10.848" transform="translate(-1978.735 -759.17)" fill="#f47458"/>
            <path id="Trazado_874460" data-name="Trazado 874460" d="M2692.14,1617.349s-4.668,13.143-6.5,13.777c-.485.168-2.813.6-3.252,1.625a4.456,4.456,0,0,0,0,1.346h9.729s1.23-5.791,1.717-8.336c0,0,2.575-6.217,2.289-6.781s-3.988-1.632-3.988-1.632" transform="translate(-2139.47 -1290.022)" fill="#f47458"/>
            <path id="Trazado_874461" data-name="Trazado 874461" d="M2523.63,1680.945l-1.431-4.52s-3,1.271-4.507,1.059a45.574,45.574,0,0,1-4.436-1.059c-6,1.974-10.909,2.932-10.015,4.52Z" transform="translate(-1996.539 -1337.142)" fill="#f47458"/>
            <path id="Trazado_874462" data-name="Trazado 874462" d="M2463.211,1119.016a2.564,2.564,0,0,1-.3-.225c.357-4.244.292-8.356-1.04-9.746.032-.066.323-.685.627-1.327,1.544,1.194,2.277,4.365,1.989,9.514a8.749,8.749,0,0,1-.2,1.066c-.447.492-.853.809-1.071.718" transform="translate(-1963.624 -883.532)" fill="#f7a491"/>
            <path id="Trazado_874463" data-name="Trazado 874463" d="M2550.818,909.54l1.293,8.521s-4.721,10.145-7.539,9.265c-2.365-.738-.91-9.715-.91-9.715s1.289-4.821.9-7.233,6.254-.838,6.254-.838" transform="translate(-2028.51 -725.06)" fill="#f7a491"/>
            <path id="Trazado_874464" data-name="Trazado 874464" d="M2549.214,910.378c-.386-2.412,6.254-.838,6.254-.838l.107.707a3.937,3.937,0,0,1-.72,1.188,8.742,8.742,0,0,1-5.806,2.627,13.17,13.17,0,0,0,.165-3.684" transform="translate(-2033.16 -725.06)" fill="#f47458"/>
            <path id="Trazado_874465" data-name="Trazado 874465" d="M2541.46,841.48c.188-.068,1.5,9.7-.994,12.393s-7.367,3.569-9.114,1.451c-1.931-2.342-1.835-12.845,2.05-15.611s8.057,1.767,8.057,1.767" transform="translate(-2018.063 -669.054)" fill="#f7a491"/>
            <path id="Trazado_874466" data-name="Trazado 874466" d="M2540.349,817.17a10.792,10.792,0,0,1,5.663,3.229c1.363.161,3.216.915,5.13,4.083a7.924,7.924,0,0,1-2.124,10.33,6.173,6.173,0,0,0-2.7,4.564l-.433-1.265a7.081,7.081,0,0,1-.343-2.981,5.831,5.831,0,0,1,.443-1.792c.659-1.415-1.415-2.354-2-3.531-.448-.906-.47-2.979-1.175-4.476l-.842-1.143a5.357,5.357,0,0,0-3.845-1.086c-1.9.427-1.628-6.719,2.225-5.933" transform="translate(-2023.53 -651.739)" fill="#0e2e35"/>
            <path id="Trazado_874467" data-name="Trazado 874467" d="M2572.252,880.023c-.02,1.192.522,2.168,1.21,2.18s1.263-.945,1.282-2.137-.522-2.168-1.21-2.18-1.262.945-1.282,2.138" transform="translate(-2051.667 -700.215)" fill="#f7a491"/>
            <path id="Trazado_874468" data-name="Trazado 874468" d="M2537.36,901.292l-3.767-.195a1.649,1.649,0,0,0,1.667,1.569c2.017.163,2.1-1.374,2.1-1.374" transform="translate(-2020.833 -718.728)" fill="#fff"/>
            <path id="Trazado_874469" data-name="Trazado 874469" d="M2389.14,1001.13q1.327-1.359,2.478-2.795l16.44,16.054c1.01.987.662,2.981-.777,4.455s-3.426,1.869-4.436.883l-16.44-16.054q1.4-1.185,2.735-2.543" transform="translate(-1903.433 -796.287)" fill="#0e2e35"/>
            <g id="Grupo_1101210" data-name="Grupo 1101210" transform="translate(413.946 133.791)" opacity="0.6">
              <g id="Grupo_1101209" data-name="Grupo 1101209">
                <g id="Grupo_1101208" data-name="Grupo 1101208" clip-path="url(#clip-path-27)">
                  <path id="Trazado_874470" data-name="Trazado 874470" d="M2057.965,732.327a41.465,41.465,0,1,0-.878-58.814,41.593,41.593,0,0,0,.878,58.814" transform="translate(-2045.339 -661.072)" fill="#c5ddf9"/>
                </g>
              </g>
            </g>
            <g id="Grupo_1101213" data-name="Grupo 1101213" transform="translate(414.063 144.865)" style="mix-blend-mode: soft-light;isolation: isolate">
              <g id="Grupo_1101212" data-name="Grupo 1101212">
                <g id="Grupo_1101211" data-name="Grupo 1101211" clip-path="url(#clip-path-28)">
                  <path id="Trazado_874471" data-name="Trazado 874471" d="M2117.3,775.016a41.428,41.428,0,0,1-26.4,12.921l-44.975-45.715c.009-.086.015-.172.025-.258a41.709,41.709,0,0,1,13.081-26.176Z" transform="translate(-2045.921 -715.788)" fill="#fff"/>
                </g>
              </g>
            </g>
            <g id="Grupo_1101216" data-name="Grupo 1101216" transform="translate(435.15 133.744)" style="mix-blend-mode: soft-light;isolation: isolate">
              <g id="Grupo_1101215" data-name="Grupo 1101215">
                <g id="Grupo_1101214" data-name="Grupo 1101214" clip-path="url(#clip-path-29)">
                  <path id="Trazado_874472" data-name="Trazado 874472" d="M2170.143,660.838l41.592,42.276c-.02,1.279-.1,2.568-.234,3.865a41.792,41.792,0,0,1-5.224,16.243l-56.169-57.094a41.082,41.082,0,0,1,20.036-5.29" transform="translate(-2150.108 -660.838)" fill="#fff"/>
                </g>
              </g>
            </g>
            <path id="Trazado_874473" data-name="Trazado 874473" d="M2032.786,714.806a46.877,46.877,0,1,0-.993-66.491,47.022,47.022,0,0,0,.993,66.491m3.781-3.872a41.464,41.464,0,1,1,58.819-.514,41.593,41.593,0,0,1-58.819.514" transform="translate(-1609.996 -505.888)" fill="#184655"/>
            <g id="Grupo_1101219" data-name="Grupo 1101219" transform="translate(411.37 131.216)" opacity="0.5" style="mix-blend-mode: multiply;isolation: isolate">
              <g id="Grupo_1101218" data-name="Grupo 1101218">
                <g id="Grupo_1101217" data-name="Grupo 1101217" clip-path="url(#clip-path-30)">
                  <path id="Trazado_874474" data-name="Trazado 874474" d="M2046.021,724.015a44.032,44.032,0,1,0-.933-62.456,44.168,44.168,0,0,0,.933,62.456m1.794-1.836a41.464,41.464,0,1,1,58.819-.514,41.593,41.593,0,0,1-58.819.514" transform="translate(-2032.613 -648.35)" fill="#50bfa5"/>
                </g>
              </g>
            </g>
            <path id="Trazado_874475" data-name="Trazado 874475" d="M2513.471,1123.993l2.555-2.65a6.66,6.66,0,0,0-.172-9.418l-47.462-46.015a6.661,6.661,0,0,0-9.418.172l-2.555,2.65a6.66,6.66,0,0,0,.172,9.418l47.462,46.015a6.661,6.661,0,0,0,9.418-.172" transform="translate(-1957.789 -848.698)" fill="#184655"/>
            <path id="Trazado_874476" data-name="Trazado 874476" d="M2652.968,1048.316a1.2,1.2,0,0,0,0-.279c-.3-3-2.786-28.189-3.205-29.26-.379-.967-11.549-16.943-11.549-16.943l-5.49,7.48,10.743,14.33c.241.91,4.117,17.914,4.117,17.914s.795,3.1,1.15,4.956c-.162.447-.322.87-.463,1.216a11.179,11.179,0,0,1-1.157,1.86,12.727,12.727,0,0,0-1.372,2.426c-.114.437-.319,1.346-.435,1.9s-.275,1.188-.3,1.485a2.863,2.863,0,0,1-.347.8.479.479,0,0,0,.565.692c.39-.13.694-.635.881-.95.529-.888.811-2.511.942-2.425s.595,2.838.667,3.149a33.929,33.929,0,0,0,.943,4.092c.313.584.729.486.838.121.095-.315-.346-4.787-.346-4.787s-.055-.57.2-.392.658,4.238.832,4.832.57.909.906.432c.409-.581-.294-4.887-.294-4.887s-.079-.541.152-.491.521,3.511.7,3.81a.456.456,0,0,0,.851-.092c.255-.588-.406-4.426-.406-4.426s.032-.306.177-.2.6,3.033.9,3.3a.317.317,0,0,0,.459.007c.548-.374-.292-3.162-.284-4.549s-.635-2.945-.443-4.6c.012-.1.046-.358.067-.518" transform="translate(-2099.904 -799.078)" fill="#f8a492"/>
            <path id="Trazado_874477" data-name="Trazado 874477" d="M2627.74,979.494,2618.2,985.9s-5.378-8-8.265-10.852c-3.616-3.569,1.317-14.5,3.647-13.884,5.212,1.383,14.159,18.329,14.159,18.329" transform="translate(-2080.698 -766.619)" fill="#f47458"/>
            <rect id="Rectángulo_401983" data-name="Rectángulo 401983" width="565.868" height="2.833" transform="translate(0 343.022)" fill="#0e2e35"/>
          </g>
        </g>
      </g>
    </g>
    <rect id="Rectángulo_401986" data-name="Rectángulo 401986" width="610" height="364" transform="translate(705 10054)" fill="none"/>
  </g>
</svg>
