<svg xmlns="http://www.w3.org/2000/svg" xmlns:xlink="http://www.w3.org/1999/xlink" width="145" height="145" viewBox="0 0 145 145">
  <defs>
    <clipPath id="clip-path">
      <rect id="Rectángulo_401124" data-name="Rectángulo 401124" width="79.045" height="79.046" fill="#075214"/>
    </clipPath>
    <clipPath id="clip-path-2">
      <rect id="Rectángulo_400938" data-name="Rectángulo 400938" width="145" height="145" transform="translate(0 -0.281)" fill="none"/>
    </clipPath>
    <clipPath id="clip-path-3">
      <rect id="Rectángulo_401752" data-name="Rectángulo 401752" width="71.674" height="71.677" fill="#123e3a" stroke="#123e3a" stroke-width="1"/>
    </clipPath>
  </defs>
  <g id="img9" transform="translate(-175 -9540.719)">
    <g id="Grupo_1099404" data-name="Grupo 1099404" transform="translate(175 9541)">
      <g id="Grupo_1099472" data-name="Grupo 1099472" transform="translate(0 -0.281)" clip-path="url(#clip-path)">
        <path id="Trazado_873498" data-name="Trazado 873498" d="M23.156,78.743q.49.4.991.773L79.516,24.147q-.378-.5-.773-.991Z" transform="translate(-8.429 -8.429)" fill="#075214"/>
        <path id="Trazado_873499" data-name="Trazado 873499" d="M44.424,93.595c.459.136.921.261,1.383.38L93.974,45.808c-.12-.462-.244-.924-.38-1.383Z" transform="translate(-16.17 -16.171)" fill="#075214"/>
        <path id="Trazado_873500" data-name="Trazado 873500" d="M29.485,83.9q.549.339,1.106.658L84.559,30.591q-.32-.557-.658-1.106Z" transform="translate(-10.733 -10.733)" fill="#075214"/>
        <path id="Trazado_873501" data-name="Trazado 873501" d="M36.544,88.859q.612.277,1.231.532L89.39,37.776q-.255-.619-.532-1.231Z" transform="translate(-13.302 -13.302)" fill="#075214"/>
        <path id="Trazado_873502" data-name="Trazado 873502" d="M53.3,98.058q.784.112,1.572.191L98.248,54.874c-.054-.525-.116-1.049-.191-1.572Z" transform="translate(-19.402 -19.402)" fill="#075214"/>
        <path id="Trazado_873503" data-name="Trazado 873503" d="M17.941,73.849c.148.148.3.291.446.436l55.9-55.9c-.145-.149-.288-.3-.436-.446s-.3-.291-.446-.435l-55.9,55.9c.144.149.287.3.435.446" transform="translate(-6.372 -6.372)" fill="#075214"/>
        <path id="Trazado_873504" data-name="Trazado 873504" d="M63.5,102.161q.924-.02,1.848-.084l36.726-36.726q.063-.923.083-1.847Z" transform="translate(-23.115 -23.116)" fill="#075214"/>
        <path id="Trazado_873505" data-name="Trazado 873505" d="M105.688,75.821,75.82,105.689q1.2-.268,2.375-.611L105.077,78.2q.343-1.179.611-2.375" transform="translate(-27.599 -27.599)" fill="#075214"/>
        <path id="Trazado_873506" data-name="Trazado 873506" d="M.084,36.81Q.021,37.733,0,38.658L38.657,0q-.924.02-1.848.084Z" transform="translate(0 0)" fill="#075214"/>
        <path id="Trazado_873507" data-name="Trazado 873507" d="M.313,43.687c.054.525.116,1.049.191,1.573L45.26.5Q44.475.392,43.687.313Z" transform="translate(-0.114 -0.114)" fill="#075214"/>
        <path id="Trazado_873508" data-name="Trazado 873508" d="M93.715,107.7A39.84,39.84,0,0,0,107.7,93.715Z" transform="translate(-34.112 -34.113)" fill="#075214"/>
        <path id="Trazado_873509" data-name="Trazado 873509" d="M2.113,29q-.342,1.179-.611,2.375L31.37,1.5q-1.194.268-2.375.611Z" transform="translate(-0.547 -0.547)" fill="#075214"/>
        <path id="Trazado_873510" data-name="Trazado 873510" d="M22.567,8.582A39.821,39.821,0,0,0,8.581,22.568Z" transform="translate(-3.124 -3.124)" fill="#075214"/>
        <path id="Trazado_873511" data-name="Trazado 873511" d="M8.207,62.176q.32.557.658,1.106L63.281,8.866q-.549-.339-1.106-.658Z" transform="translate(-2.987 -2.988)" fill="#075214"/>
        <path id="Trazado_873512" data-name="Trazado 873512" d="M12.512,67.882q.378.5.773.991L68.872,13.286q-.49-.4-.991-.773Z" transform="translate(-4.554 -4.555)" fill="#075214"/>
        <path id="Trazado_873513" data-name="Trazado 873513" d="M1.953,50.12c.119.463.244.925.38,1.384L51.5,2.334c-.459-.137-.921-.261-1.384-.38Z" transform="translate(-0.711 -0.711)" fill="#075214"/>
        <path id="Trazado_873514" data-name="Trazado 873514" d="M4.649,56.264q.255.619.532,1.231L57.5,5.181q-.612-.277-1.231-.532Z" transform="translate(-1.692 -1.692)" fill="#075214"/>
      </g>
      <g id="Grupo_1099379" data-name="Grupo 1099379" transform="translate(0 0)">
        <rect id="Rectángulo_401103" data-name="Rectángulo 401103" width="145" height="145" transform="translate(0 -0.281)" fill="none"/>
        <path id="Trazado_873425" data-name="Trazado 873425" d="M60.362,0A60.362,60.362,0,1,1,0,60.362,60.362,60.362,0,0,1,60.362,0Z" transform="translate(17.974 21.56)" fill="#99eca7"/>
        <circle id="Elipse_11503" data-name="Elipse 11503" cx="63" cy="63" r="63" transform="translate(9 9.719)" fill="#e6fffd"/>
      </g>
    </g>
    <g id="Grupo_1100925" data-name="Grupo 1100925" transform="translate(211.663 9577.381)">
      <g id="Grupo_1100925-2" data-name="Grupo 1100925" clip-path="url(#clip-path-3)">
        <path id="Trazado_873973" data-name="Trazado 873973" d="M65.172,61.59v7.166h5.038c1.468,0,2.351,2.643,0,2.915l-68.536.006c-2.705-.243-1.649-2.921-.214-2.921H6.5V61.59c-3.139.442-5.872-.883-6.475-4.162L0,6.83A7.089,7.089,0,0,1,6.83,0L65.068,0a7.111,7.111,0,0,1,6.606,6.606l-.007,50.617c-.475,3.377-3.269,4.83-6.5,4.365m3.583-51.5V5.944c0-1.071-2.231-3.159-3.47-3.024l-59.466.1c-1.013.087-2.9,2.015-2.9,2.924v4.143Zm0,2.911H2.921V57.447c0,1.167,2.643,1.738,3.583,1.456V54.312c0-.283.856-.747,1.22-.8a62.021,62.021,0,0,1,8.983,0c.415.041,1.442.368,1.442.8V68.755h4.031V38.861c0-.283.856-.747,1.22-.8a62.021,62.021,0,0,1,8.983,0c.415.041,1.442.368,1.442.8V68.755h4.031V50.729c0-.578,1.22-.929,1.7-.989a52.056,52.056,0,0,1,7.6-.028c.6.043,2.342.228,2.342,1.017V68.755h4.031V53.192c0-.982,2.687-.982,2.687,0V68.755h6.27V38.749h-6.27v6.158c0,.671-2.233,1.372-2.64-.047a55.966,55.966,0,0,1-.051-7.57c.132-1.131.6-1.339,1.684-1.451a56.05,56.05,0,0,1,8.284,0c.532.056,1.68.358,1.68,1.007V58.9c.939.283,3.583-.289,3.583-1.456ZM31.135,40.764h-6.27V68.755h6.27ZM46.81,52.632H40.54V68.755h6.27Zm-31.35,3.583H9.191v12.54h6.27Z" fill="#123e3a" stroke="#123e3a" stroke-width="1"/>
        <path id="Trazado_873974" data-name="Trazado 873974" d="M71.985,110.254a5.086,5.086,0,0,1-8.633-4.268c.078-.6.736-1.693.548-2.139l-8.955-8.978c-.8-.472-1.736.215-2.7.252-1.035.039-1.635-.434-2.569-.357L41.817,102.6c-.377.65.241,1.785.257,2.69a5.047,5.047,0,1,1-5.017-4.948,20.414,20.414,0,0,1,2.532.486l7.864-7.846c.366-.56-.39-1.656-.469-2.465a5.061,5.061,0,0,1,9.075-3.478c1.319,1.724,1.2,3.669.435,5.607l9.177,9.19c.865.563,1.964-.244,2.9-.215.614.019,1.877.675,2.229.607.8-.156,7.62-7.959,9-8.921.266-.609-.337-1.147-.465-1.772-1.487-7.271,8.064-8.7,9.646-2.933a5.089,5.089,0,0,1-4.5,6.508c-.809.04-1.723-.4-2.337-.116L72.8,104.4a5.027,5.027,0,0,1-.815,5.857M54.231,90.059a2.215,2.215,0,1,0-2.215,2.215,2.216,2.216,0,0,0,2.215-2.215m32.146.01a2.22,2.22,0,1,0-2.22,2.22,2.22,2.22,0,0,0,2.22-2.22M39.252,105.378a2.224,2.224,0,1,0-2.224,2.224,2.224,2.224,0,0,0,2.224-2.224m31.332,1.353a2.23,2.23,0,1,0-2.23,2.23,2.23,2.23,0,0,0,2.23-2.23" transform="translate(-24.807 -65.987)" fill="#123e3a" stroke="#123e3a" stroke-width="1"/>
        <path id="Trazado_873975" data-name="Trazado 873975" d="M29.8,78.782a62.317,62.317,0,0,1,7.56-.042,1.382,1.382,0,0,1,0,2.676,54.853,54.853,0,0,1-7.378,0,1.4,1.4,0,0,1-.182-2.634" transform="translate(-22.465 -61.035)" fill="#123e3a" stroke="#123e3a" stroke-width="1"/>
        <path id="Trazado_873976" data-name="Trazado 873976" d="M29.8,108.782a62.318,62.318,0,0,1,7.56-.042,1.382,1.382,0,0,1,0,2.676,54.851,54.851,0,0,1-7.378,0,1.4,1.4,0,0,1-.182-2.634" transform="translate(-22.465 -84.318)" fill="#123e3a" stroke="#123e3a" stroke-width="1"/>
        <path id="Trazado_873977" data-name="Trazado 873977" d="M241.6,215.6a1.4,1.4,0,1,1-1.4-1.4,1.4,1.4,0,0,1,1.4,1.4" transform="translate(-185.326 -166.24)" fill="#123e3a" stroke="#123e3a" stroke-width="1"/>
        <path id="Trazado_873978" data-name="Trazado 873978" d="M84.845,80.2A1.395,1.395,0,1,1,83.45,78.8,1.395,1.395,0,0,1,84.845,80.2" transform="translate(-63.681 -61.158)" fill="#123e3a" stroke="#123e3a" stroke-width="1"/>
        <path id="Trazado_873979" data-name="Trazado 873979" d="M166.772,21.638c.513.515.408,2.013-.453,2.241-10.722.4-21.549.044-32.311.182-2.27-.67-1.286-3.124.9-2.932,9.719.628,20.422-.8,30.025,0a4.541,4.541,0,0,1,1.841.51" transform="translate(-102.996 -16.202)" fill="#123e3a" stroke="#123e3a" stroke-width="1"/>
        <path id="Trazado_873980" data-name="Trazado 873980" d="M36.615,23.969a1.395,1.395,0,1,1-1.395-1.395,1.395,1.395,0,0,1,1.395,1.395" transform="translate(-26.251 -17.519)" fill="#123e3a" stroke="#123e3a" stroke-width="1"/>
        <path id="Trazado_873981" data-name="Trazado 873981" d="M61.615,23.969a1.395,1.395,0,1,1-1.395-1.395,1.395,1.395,0,0,1,1.395,1.395" transform="translate(-45.653 -17.519)" fill="#123e3a" stroke="#123e3a" stroke-width="1"/>
        <path id="Trazado_873982" data-name="Trazado 873982" d="M86.615,23.969a1.395,1.395,0,1,1-1.395-1.395,1.395,1.395,0,0,1,1.395,1.395" transform="translate(-65.055 -17.519)" fill="#123e3a" stroke="#123e3a" stroke-width="1"/>
      </g>
    </g>
  </g>
</svg>
